G04*
G04 #@! TF.GenerationSoftware,Altium Limited,Altium Designer,19.1.9 (167)*
G04*
G04 Layer_Physical_Order=2*
G04 Layer_Color=36540*
%FSLAX24Y24*%
%MOIN*%
G70*
G01*
G75*
%ADD10C,0.0040*%
%ADD12C,0.0060*%
%ADD38C,0.0100*%
%ADD51C,0.0236*%
%ADD54C,0.0197*%
%ADD55C,0.0200*%
G36*
X39078Y6342D02*
X34560D01*
X34532Y6384D01*
X34548Y6423D01*
X34564Y6540D01*
X34548Y6657D01*
X34503Y6767D01*
X34431Y6861D01*
X34337Y6933D01*
X34227Y6978D01*
X34110Y6994D01*
X33993Y6978D01*
X33883Y6933D01*
X33789Y6861D01*
X33717Y6767D01*
X33672Y6657D01*
X33656Y6540D01*
X33672Y6423D01*
X33688Y6384D01*
X33660Y6342D01*
X31785D01*
X31760Y6392D01*
X31795Y6445D01*
X31802Y6480D01*
X31590D01*
Y6530D01*
X31540D01*
Y6742D01*
X31505Y6735D01*
X31433Y6687D01*
X31414Y6659D01*
X31352Y6657D01*
X31337Y6677D01*
X31270Y6728D01*
X31193Y6760D01*
X31110Y6771D01*
X31027Y6760D01*
X30950Y6728D01*
X30883Y6677D01*
X30832Y6610D01*
X30800Y6533D01*
X30789Y6450D01*
X30797Y6392D01*
X30761Y6342D01*
X30119D01*
X30094Y6392D01*
X30126Y6433D01*
X30161Y6519D01*
X30173Y6610D01*
X30161Y6701D01*
X30126Y6787D01*
X30070Y6860D01*
X29997Y6916D01*
X29911Y6951D01*
X29820Y6963D01*
X29729Y6951D01*
X29643Y6916D01*
X29570Y6860D01*
X29514Y6787D01*
X29479Y6701D01*
X29467Y6610D01*
X29479Y6519D01*
X29514Y6433D01*
X29546Y6392D01*
X29521Y6342D01*
X28825D01*
X28792Y6380D01*
X28793Y6392D01*
X28782Y6476D01*
X28750Y6553D01*
X28699Y6619D01*
X28633Y6670D01*
X28556Y6702D01*
X28472Y6713D01*
X28389Y6702D01*
X28312Y6670D01*
X28246Y6619D01*
X28195Y6553D01*
X28163Y6476D01*
X28152Y6392D01*
X28153Y6380D01*
X28120Y6342D01*
X28059D01*
X28026Y6392D01*
X28040Y6427D01*
X28051Y6510D01*
X28040Y6593D01*
X28008Y6670D01*
X27957Y6737D01*
X27890Y6788D01*
X27813Y6820D01*
X27730Y6831D01*
X27647Y6820D01*
X27570Y6788D01*
X27503Y6737D01*
X27452Y6670D01*
X27438Y6637D01*
X27384Y6627D01*
X27381Y6629D01*
X27317Y6678D01*
X27239Y6710D01*
X27156Y6721D01*
X27073Y6710D01*
X26996Y6678D01*
X26929Y6627D01*
X26878Y6560D01*
X26846Y6483D01*
X26835Y6400D01*
X26838Y6380D01*
X26805Y6342D01*
X26338D01*
X26323Y6360D01*
X26311Y6451D01*
X26276Y6537D01*
X26220Y6610D01*
X26147Y6666D01*
X26061Y6701D01*
X25970Y6713D01*
X25879Y6701D01*
X25793Y6666D01*
X25767Y6646D01*
X25741Y6666D01*
X25656Y6701D01*
X25565Y6713D01*
X25473Y6701D01*
X25388Y6666D01*
X25322Y6615D01*
X25257Y6666D01*
X25171Y6701D01*
X25080Y6713D01*
X24989Y6701D01*
X24903Y6666D01*
X24865Y6636D01*
X24827Y6666D01*
X24741Y6701D01*
X24650Y6713D01*
X24559Y6701D01*
X24473Y6666D01*
X24455Y6652D01*
X24437Y6666D01*
X24351Y6701D01*
X24260Y6713D01*
X24169Y6701D01*
X24083Y6666D01*
X24010Y6610D01*
X23954Y6537D01*
X23919Y6451D01*
X23907Y6360D01*
X23892Y6342D01*
X22677D01*
X22650Y6392D01*
X22665Y6415D01*
X22672Y6450D01*
X22248D01*
X22255Y6415D01*
X22270Y6392D01*
X22243Y6342D01*
X21480D01*
X21458Y6387D01*
X21470Y6403D01*
X21502Y6481D01*
X21513Y6564D01*
X21502Y6647D01*
X21470Y6724D01*
X21419Y6791D01*
X21353Y6842D01*
X21275Y6874D01*
X21192Y6885D01*
X21109Y6874D01*
X21038Y6844D01*
X20968Y6874D01*
X20885Y6885D01*
X20802Y6874D01*
X20724Y6842D01*
X20658Y6791D01*
X20607Y6724D01*
X20575Y6647D01*
X20564Y6564D01*
X20575Y6481D01*
X20607Y6403D01*
X20619Y6387D01*
X20597Y6342D01*
X19029D01*
X19007Y6387D01*
X19023Y6408D01*
X19055Y6486D01*
X19066Y6569D01*
X19055Y6652D01*
X19023Y6729D01*
X18972Y6796D01*
X18905Y6847D01*
X18828Y6879D01*
X18745Y6890D01*
X18662Y6879D01*
X18586Y6847D01*
X18510Y6879D01*
X18427Y6890D01*
X18344Y6879D01*
X18267Y6847D01*
X18200Y6796D01*
X18149Y6729D01*
X18117Y6652D01*
X18106Y6569D01*
X18117Y6486D01*
X18149Y6408D01*
X18166Y6387D01*
X18143Y6342D01*
X10617D01*
X10593Y6387D01*
X10605Y6405D01*
X10612Y6440D01*
X10188D01*
X10195Y6405D01*
X10207Y6387D01*
X10183Y6342D01*
X9710D01*
Y6814D01*
X9846Y6922D01*
X10011Y7082D01*
X10160Y7258D01*
X10291Y7448D01*
X10402Y7649D01*
X10494Y7861D01*
X10564Y8080D01*
X10612Y8306D01*
X10638Y8535D01*
X10640Y8650D01*
X10640Y8650D01*
X10641Y8766D01*
X10622Y8997D01*
X10579Y9225D01*
X10515Y9448D01*
X10429Y9663D01*
X10322Y9869D01*
X10196Y10063D01*
X10051Y10244D01*
X9889Y10411D01*
X9879Y10419D01*
X9888Y10430D01*
X9920Y10507D01*
X9926Y10551D01*
X9993Y10560D01*
X10070Y10592D01*
X10093Y10609D01*
X10160Y10597D01*
X10183Y10563D01*
X10255Y10515D01*
X10290Y10508D01*
Y10720D01*
Y10932D01*
X10273Y10929D01*
X10229Y10949D01*
X10217Y10960D01*
X10188Y11030D01*
X10186Y11033D01*
X10208Y11078D01*
X14044D01*
X14049Y11028D01*
X14035Y11025D01*
X13963Y10977D01*
X13915Y10904D01*
X13908Y10869D01*
X14332D01*
X14325Y10904D01*
X14277Y10977D01*
X14205Y11025D01*
X14191Y11028D01*
X14196Y11078D01*
X15697D01*
X15712Y11028D01*
X15690Y11013D01*
X15642Y10941D01*
X15635Y10905D01*
X16060D01*
X16053Y10941D01*
X16004Y11013D01*
X15982Y11028D01*
X15997Y11078D01*
X18279D01*
X18303Y11028D01*
X18289Y11009D01*
X18257Y10932D01*
X18246Y10849D01*
X18257Y10766D01*
X18289Y10688D01*
X18340Y10622D01*
X18407Y10571D01*
X18484Y10539D01*
X18567Y10528D01*
X18650Y10539D01*
X18726Y10570D01*
X18802Y10539D01*
X18885Y10528D01*
X18968Y10539D01*
X19045Y10571D01*
X19112Y10622D01*
X19163Y10688D01*
X19195Y10766D01*
X19206Y10849D01*
X19195Y10932D01*
X19163Y11009D01*
X19149Y11028D01*
X19173Y11078D01*
X20740Y11078D01*
X20765Y11028D01*
X20747Y11004D01*
X20715Y10927D01*
X20704Y10844D01*
X20715Y10761D01*
X20747Y10683D01*
X20798Y10617D01*
X20864Y10566D01*
X20942Y10534D01*
X21025Y10523D01*
X21108Y10534D01*
X21178Y10563D01*
X21249Y10534D01*
X21332Y10523D01*
X21415Y10534D01*
X21493Y10566D01*
X21559Y10617D01*
X21610Y10683D01*
X21642Y10761D01*
X21653Y10844D01*
X21642Y10927D01*
X21610Y11004D01*
X21592Y11028D01*
X21617Y11078D01*
X21955D01*
X21979Y11028D01*
X21959Y11001D01*
X21924Y10916D01*
X21912Y10825D01*
X21924Y10734D01*
X21959Y10648D01*
X22015Y10575D01*
X22088Y10519D01*
X22174Y10484D01*
X22265Y10472D01*
X22356Y10484D01*
X22441Y10519D01*
X22515Y10575D01*
X22571Y10648D01*
X22606Y10734D01*
X22618Y10825D01*
X22606Y10916D01*
X22571Y11001D01*
X22551Y11028D01*
X22575Y11078D01*
X23100D01*
X23113Y11028D01*
X23053Y10987D01*
X23005Y10915D01*
X22998Y10880D01*
X23422D01*
X23415Y10915D01*
X23367Y10987D01*
X23307Y11028D01*
X23320Y11078D01*
X25481D01*
X25503Y11028D01*
X25498Y11000D01*
X25922D01*
X25917Y11028D01*
X25939Y11078D01*
X28491D01*
X28527Y11042D01*
X28526Y10924D01*
X28482Y10902D01*
X28460Y10918D01*
X28383Y10950D01*
X28300Y10961D01*
X28217Y10950D01*
X28140Y10918D01*
X28073Y10867D01*
X28022Y10800D01*
X27990Y10723D01*
X27979Y10640D01*
X27990Y10557D01*
X28022Y10480D01*
X28073Y10413D01*
X28140Y10362D01*
X28217Y10330D01*
X28300Y10319D01*
X28383Y10330D01*
X28460Y10362D01*
X28481Y10378D01*
X28526Y10356D01*
X28524Y8720D01*
X30950D01*
Y11078D01*
X31657D01*
X31688Y11028D01*
X31679Y10960D01*
X31690Y10877D01*
X31722Y10800D01*
X31773Y10733D01*
X31840Y10682D01*
X31917Y10650D01*
X32000Y10639D01*
X32083Y10650D01*
X32137Y10672D01*
X32154Y10667D01*
X32185Y10645D01*
X32187Y10642D01*
X32196Y10573D01*
X32228Y10496D01*
X32279Y10429D01*
X32346Y10378D01*
X32423Y10346D01*
X32506Y10335D01*
X32589Y10346D01*
X32667Y10378D01*
X32733Y10429D01*
X32784Y10496D01*
X32799Y10533D01*
X32860Y10549D01*
X32870Y10542D01*
X32947Y10510D01*
X33030Y10499D01*
X33113Y10510D01*
X33190Y10542D01*
X33257Y10593D01*
X33308Y10660D01*
X33340Y10737D01*
X33351Y10820D01*
X33340Y10903D01*
X33308Y10980D01*
X33272Y11028D01*
X33296Y11078D01*
X37283D01*
X37298Y11028D01*
X37253Y10997D01*
X37205Y10925D01*
X37198Y10890D01*
X37622D01*
X37615Y10925D01*
X37567Y10997D01*
X37522Y11028D01*
X37537Y11078D01*
X39078D01*
Y6342D01*
D02*
G37*
G36*
Y292D02*
X34560D01*
X34532Y334D01*
X34548Y373D01*
X34564Y490D01*
X34548Y607D01*
X34503Y717D01*
X34431Y811D01*
X34337Y883D01*
X34227Y928D01*
X34110Y944D01*
X33993Y928D01*
X33883Y883D01*
X33789Y811D01*
X33717Y717D01*
X33672Y607D01*
X33656Y490D01*
X33672Y373D01*
X33688Y334D01*
X33660Y292D01*
X31785D01*
X31760Y342D01*
X31795Y395D01*
X31802Y430D01*
X31590D01*
Y480D01*
X31540D01*
Y692D01*
X31505Y685D01*
X31433Y637D01*
X31414Y609D01*
X31352Y607D01*
X31337Y627D01*
X31270Y678D01*
X31193Y710D01*
X31110Y721D01*
X31027Y710D01*
X30950Y678D01*
X30883Y627D01*
X30832Y560D01*
X30800Y483D01*
X30789Y400D01*
X30797Y342D01*
X30761Y292D01*
X30119D01*
X30094Y342D01*
X30126Y383D01*
X30161Y469D01*
X30173Y560D01*
X30161Y651D01*
X30126Y737D01*
X30070Y810D01*
X29997Y866D01*
X29911Y901D01*
X29820Y913D01*
X29729Y901D01*
X29643Y866D01*
X29570Y810D01*
X29514Y737D01*
X29479Y651D01*
X29467Y560D01*
X29479Y469D01*
X29514Y383D01*
X29546Y342D01*
X29521Y292D01*
X28825D01*
X28792Y330D01*
X28793Y342D01*
X28782Y426D01*
X28750Y503D01*
X28699Y569D01*
X28633Y620D01*
X28556Y652D01*
X28472Y663D01*
X28389Y652D01*
X28312Y620D01*
X28246Y569D01*
X28195Y503D01*
X28163Y426D01*
X28152Y342D01*
X28153Y330D01*
X28120Y292D01*
X28059D01*
X28026Y342D01*
X28040Y377D01*
X28051Y460D01*
X28040Y543D01*
X28008Y620D01*
X27957Y687D01*
X27890Y738D01*
X27813Y770D01*
X27730Y781D01*
X27647Y770D01*
X27570Y738D01*
X27503Y687D01*
X27452Y620D01*
X27438Y587D01*
X27384Y577D01*
X27381Y579D01*
X27317Y628D01*
X27239Y660D01*
X27156Y671D01*
X27073Y660D01*
X26996Y628D01*
X26929Y577D01*
X26878Y510D01*
X26846Y433D01*
X26835Y350D01*
X26838Y330D01*
X26805Y292D01*
X26338D01*
X26323Y310D01*
X26311Y401D01*
X26276Y487D01*
X26220Y560D01*
X26147Y616D01*
X26061Y651D01*
X25970Y663D01*
X25879Y651D01*
X25793Y616D01*
X25767Y596D01*
X25741Y616D01*
X25656Y651D01*
X25565Y663D01*
X25473Y651D01*
X25388Y616D01*
X25322Y565D01*
X25257Y616D01*
X25171Y651D01*
X25080Y663D01*
X24989Y651D01*
X24903Y616D01*
X24865Y586D01*
X24827Y616D01*
X24741Y651D01*
X24650Y663D01*
X24559Y651D01*
X24473Y616D01*
X24455Y602D01*
X24437Y616D01*
X24351Y651D01*
X24260Y663D01*
X24169Y651D01*
X24083Y616D01*
X24010Y560D01*
X23954Y487D01*
X23919Y401D01*
X23907Y310D01*
X23892Y292D01*
X22677D01*
X22650Y342D01*
X22665Y365D01*
X22672Y400D01*
X22248D01*
X22255Y365D01*
X22270Y342D01*
X22243Y292D01*
X21480D01*
X21458Y337D01*
X21470Y353D01*
X21502Y431D01*
X21513Y514D01*
X21502Y597D01*
X21470Y674D01*
X21419Y741D01*
X21353Y792D01*
X21275Y824D01*
X21192Y835D01*
X21109Y824D01*
X21038Y794D01*
X20968Y824D01*
X20885Y835D01*
X20802Y824D01*
X20724Y792D01*
X20658Y741D01*
X20607Y674D01*
X20575Y597D01*
X20564Y514D01*
X20575Y431D01*
X20607Y353D01*
X20619Y337D01*
X20597Y292D01*
X19029D01*
X19007Y337D01*
X19023Y358D01*
X19055Y436D01*
X19066Y519D01*
X19055Y602D01*
X19023Y679D01*
X18972Y746D01*
X18905Y797D01*
X18828Y829D01*
X18745Y840D01*
X18662Y829D01*
X18586Y797D01*
X18510Y829D01*
X18427Y840D01*
X18344Y829D01*
X18267Y797D01*
X18200Y746D01*
X18149Y679D01*
X18117Y602D01*
X18106Y519D01*
X18117Y436D01*
X18149Y358D01*
X18166Y337D01*
X18143Y292D01*
X10643D01*
X10622Y338D01*
X10718Y454D01*
X10861Y665D01*
X10911Y665D01*
X10933Y633D01*
X11005Y585D01*
X11040Y578D01*
Y790D01*
X11090D01*
Y840D01*
X11302D01*
X11295Y875D01*
X11247Y947D01*
X11175Y995D01*
X11105Y1009D01*
X11070Y1056D01*
X11160Y1268D01*
X11252Y1563D01*
X11314Y1867D01*
X11346Y2174D01*
X11347Y2329D01*
X11347Y2329D01*
X11349Y2484D01*
X11321Y2794D01*
X11276Y3033D01*
X11314Y3058D01*
X11321Y3061D01*
X11397Y3030D01*
X11480Y3019D01*
X11563Y3030D01*
X11640Y3062D01*
X11707Y3113D01*
X11758Y3180D01*
X11790Y3257D01*
X11801Y3340D01*
X11790Y3423D01*
X11771Y3469D01*
X11777Y3473D01*
X11828Y3540D01*
X11860Y3617D01*
X11871Y3700D01*
X11860Y3783D01*
X11828Y3860D01*
X11777Y3927D01*
X11710Y3978D01*
X11633Y4010D01*
X11550Y4021D01*
X11467Y4010D01*
X11390Y3978D01*
X11323Y3927D01*
X11316Y3918D01*
X11266Y3914D01*
X10199Y4981D01*
X10218Y5028D01*
X10765D01*
X10790Y4978D01*
X10755Y4925D01*
X10748Y4890D01*
X11172D01*
X11165Y4925D01*
X11130Y4978D01*
X11155Y5028D01*
X14044D01*
X14049Y4978D01*
X14035Y4975D01*
X13963Y4927D01*
X13915Y4854D01*
X13908Y4819D01*
X14332D01*
X14325Y4854D01*
X14277Y4927D01*
X14205Y4975D01*
X14191Y4978D01*
X14196Y5028D01*
X15697D01*
X15712Y4978D01*
X15690Y4963D01*
X15642Y4891D01*
X15635Y4855D01*
X16060D01*
X16053Y4891D01*
X16004Y4963D01*
X15982Y4978D01*
X15997Y5028D01*
X18279D01*
X18303Y4978D01*
X18289Y4959D01*
X18257Y4882D01*
X18246Y4799D01*
X18257Y4716D01*
X18289Y4638D01*
X18340Y4572D01*
X18407Y4521D01*
X18484Y4489D01*
X18567Y4478D01*
X18650Y4489D01*
X18726Y4520D01*
X18802Y4489D01*
X18885Y4478D01*
X18968Y4489D01*
X19045Y4521D01*
X19112Y4572D01*
X19163Y4638D01*
X19195Y4716D01*
X19206Y4799D01*
X19195Y4882D01*
X19163Y4959D01*
X19149Y4978D01*
X19173Y5028D01*
X20740Y5028D01*
X20765Y4978D01*
X20747Y4954D01*
X20715Y4877D01*
X20704Y4794D01*
X20715Y4711D01*
X20747Y4633D01*
X20798Y4567D01*
X20864Y4516D01*
X20942Y4484D01*
X21025Y4473D01*
X21108Y4484D01*
X21178Y4513D01*
X21249Y4484D01*
X21332Y4473D01*
X21415Y4484D01*
X21493Y4516D01*
X21559Y4567D01*
X21610Y4633D01*
X21642Y4711D01*
X21653Y4794D01*
X21642Y4877D01*
X21610Y4954D01*
X21592Y4978D01*
X21617Y5028D01*
X21955D01*
X21979Y4978D01*
X21959Y4951D01*
X21924Y4866D01*
X21912Y4775D01*
X21924Y4684D01*
X21959Y4598D01*
X22015Y4525D01*
X22088Y4469D01*
X22174Y4434D01*
X22265Y4422D01*
X22356Y4434D01*
X22441Y4469D01*
X22515Y4525D01*
X22571Y4598D01*
X22606Y4684D01*
X22618Y4775D01*
X22606Y4866D01*
X22571Y4951D01*
X22551Y4978D01*
X22575Y5028D01*
X23100D01*
X23113Y4978D01*
X23053Y4937D01*
X23005Y4865D01*
X22998Y4830D01*
X23422D01*
X23415Y4865D01*
X23367Y4937D01*
X23307Y4978D01*
X23320Y5028D01*
X25477D01*
X25500Y4983D01*
X25495Y4975D01*
X25488Y4940D01*
X25912D01*
X25905Y4975D01*
X25900Y4983D01*
X25923Y5028D01*
X28491D01*
X28527Y4992D01*
X28526Y4874D01*
X28482Y4852D01*
X28460Y4868D01*
X28383Y4900D01*
X28300Y4911D01*
X28217Y4900D01*
X28140Y4868D01*
X28073Y4817D01*
X28022Y4750D01*
X27990Y4673D01*
X27979Y4590D01*
X27990Y4507D01*
X28022Y4430D01*
X28073Y4363D01*
X28140Y4312D01*
X28217Y4280D01*
X28300Y4269D01*
X28383Y4280D01*
X28460Y4312D01*
X28481Y4328D01*
X28526Y4306D01*
X28524Y2670D01*
X30950D01*
Y5028D01*
X31657D01*
X31688Y4978D01*
X31679Y4910D01*
X31690Y4827D01*
X31722Y4750D01*
X31773Y4683D01*
X31840Y4632D01*
X31917Y4600D01*
X32000Y4589D01*
X32083Y4600D01*
X32137Y4622D01*
X32154Y4617D01*
X32185Y4595D01*
X32187Y4592D01*
X32196Y4523D01*
X32228Y4446D01*
X32279Y4379D01*
X32346Y4328D01*
X32423Y4296D01*
X32506Y4285D01*
X32589Y4296D01*
X32667Y4328D01*
X32733Y4379D01*
X32784Y4446D01*
X32799Y4483D01*
X32860Y4499D01*
X32870Y4492D01*
X32947Y4460D01*
X33030Y4449D01*
X33113Y4460D01*
X33190Y4492D01*
X33257Y4543D01*
X33308Y4610D01*
X33340Y4687D01*
X33351Y4770D01*
X33340Y4853D01*
X33308Y4930D01*
X33272Y4978D01*
X33296Y5028D01*
X37283D01*
X37298Y4978D01*
X37253Y4947D01*
X37205Y4875D01*
X37198Y4840D01*
X37622D01*
X37615Y4875D01*
X37567Y4947D01*
X37522Y4978D01*
X37537Y5028D01*
X39078D01*
Y292D01*
D02*
G37*
%LPC*%
G36*
X10390Y10932D02*
Y10770D01*
X10552D01*
X10545Y10805D01*
X10497Y10877D01*
X10425Y10925D01*
X10390Y10932D01*
D02*
G37*
G36*
X25922Y10900D02*
X25760D01*
Y10738D01*
X25795Y10745D01*
X25867Y10793D01*
X25915Y10865D01*
X25922Y10900D01*
D02*
G37*
G36*
X25660D02*
X25498D01*
X25505Y10865D01*
X25553Y10793D01*
X25625Y10745D01*
X25660Y10738D01*
Y10900D01*
D02*
G37*
G36*
X16060Y10805D02*
X15897D01*
Y10643D01*
X15932Y10650D01*
X16004Y10698D01*
X16053Y10770D01*
X16060Y10805D01*
D02*
G37*
G36*
X15797D02*
X15635D01*
X15642Y10770D01*
X15690Y10698D01*
X15762Y10650D01*
X15797Y10643D01*
Y10805D01*
D02*
G37*
G36*
X37622Y10790D02*
X37460D01*
Y10628D01*
X37495Y10635D01*
X37567Y10683D01*
X37615Y10755D01*
X37622Y10790D01*
D02*
G37*
G36*
X37360D02*
X37198D01*
X37205Y10755D01*
X37253Y10683D01*
X37325Y10635D01*
X37360Y10628D01*
Y10790D01*
D02*
G37*
G36*
X23422Y10780D02*
X23260D01*
Y10618D01*
X23295Y10625D01*
X23367Y10673D01*
X23415Y10745D01*
X23422Y10780D01*
D02*
G37*
G36*
X23160D02*
X22998D01*
X23005Y10745D01*
X23053Y10673D01*
X23125Y10625D01*
X23160Y10618D01*
Y10780D01*
D02*
G37*
G36*
X31290Y10772D02*
Y10610D01*
X31452D01*
X31445Y10645D01*
X31397Y10717D01*
X31325Y10765D01*
X31290Y10772D01*
D02*
G37*
G36*
X31190D02*
X31155Y10765D01*
X31083Y10717D01*
X31035Y10645D01*
X31028Y10610D01*
X31190D01*
Y10772D01*
D02*
G37*
G36*
X14332Y10769D02*
X14170D01*
Y10607D01*
X14205Y10614D01*
X14277Y10662D01*
X14325Y10734D01*
X14332Y10769D01*
D02*
G37*
G36*
X14070D02*
X13908D01*
X13915Y10734D01*
X13963Y10662D01*
X14035Y10614D01*
X14070Y10607D01*
Y10769D01*
D02*
G37*
G36*
X10552Y10670D02*
X10390D01*
Y10508D01*
X10425Y10515D01*
X10497Y10563D01*
X10545Y10635D01*
X10552Y10670D01*
D02*
G37*
G36*
X37090Y10627D02*
Y10465D01*
X37252D01*
X37245Y10500D01*
X37197Y10572D01*
X37125Y10620D01*
X37090Y10627D01*
D02*
G37*
G36*
X36990D02*
X36955Y10620D01*
X36883Y10572D01*
X36835Y10500D01*
X36828Y10465D01*
X36990D01*
Y10627D01*
D02*
G37*
G36*
X35600Y10472D02*
Y10310D01*
X35762D01*
X35755Y10345D01*
X35707Y10417D01*
X35635Y10465D01*
X35600Y10472D01*
D02*
G37*
G36*
X35500D02*
X35465Y10465D01*
X35393Y10417D01*
X35345Y10345D01*
X35338Y10310D01*
X35500D01*
Y10472D01*
D02*
G37*
G36*
X23270Y10382D02*
Y10220D01*
X23432D01*
X23425Y10255D01*
X23377Y10327D01*
X23305Y10375D01*
X23270Y10382D01*
D02*
G37*
G36*
X23170D02*
X23135Y10375D01*
X23063Y10327D01*
X23015Y10255D01*
X23008Y10220D01*
X23170D01*
Y10382D01*
D02*
G37*
G36*
X37252Y10365D02*
X37090D01*
Y10203D01*
X37125Y10210D01*
X37197Y10258D01*
X37245Y10330D01*
X37252Y10365D01*
D02*
G37*
G36*
X36990D02*
X36828D01*
X36835Y10330D01*
X36883Y10258D01*
X36955Y10210D01*
X36990Y10203D01*
Y10365D01*
D02*
G37*
G36*
X31452Y10510D02*
X31028D01*
X31035Y10475D01*
X31083Y10403D01*
X31122Y10377D01*
Y10317D01*
X31093Y10297D01*
X31045Y10225D01*
X31038Y10190D01*
X31462D01*
X31455Y10225D01*
X31407Y10297D01*
X31368Y10323D01*
Y10383D01*
X31397Y10403D01*
X31445Y10475D01*
X31452Y10510D01*
D02*
G37*
G36*
X24780Y10761D02*
X24697Y10750D01*
X24620Y10718D01*
X24553Y10667D01*
X24502Y10600D01*
X24470Y10523D01*
X24459Y10440D01*
X24470Y10357D01*
X24502Y10280D01*
X24553Y10213D01*
X24620Y10162D01*
X24697Y10130D01*
X24780Y10119D01*
X24863Y10130D01*
X24940Y10162D01*
X25007Y10213D01*
X25058Y10280D01*
X25090Y10357D01*
X25101Y10440D01*
X25090Y10523D01*
X25058Y10600D01*
X25007Y10667D01*
X24940Y10718D01*
X24863Y10750D01*
X24780Y10761D01*
D02*
G37*
G36*
X25640Y10242D02*
Y10080D01*
X25802D01*
X25795Y10115D01*
X25747Y10187D01*
X25675Y10235D01*
X25640Y10242D01*
D02*
G37*
G36*
X25540D02*
X25505Y10235D01*
X25433Y10187D01*
X25385Y10115D01*
X25378Y10080D01*
X25540D01*
Y10242D01*
D02*
G37*
G36*
X35762Y10210D02*
X35600D01*
Y10048D01*
X35635Y10055D01*
X35707Y10103D01*
X35755Y10175D01*
X35762Y10210D01*
D02*
G37*
G36*
X35500D02*
X35338D01*
X35345Y10175D01*
X35393Y10103D01*
X35465Y10055D01*
X35500Y10048D01*
Y10210D01*
D02*
G37*
G36*
X23432Y10120D02*
X23270D01*
Y9958D01*
X23305Y9965D01*
X23377Y10013D01*
X23425Y10085D01*
X23432Y10120D01*
D02*
G37*
G36*
X23170D02*
X23008D01*
X23015Y10085D01*
X23063Y10013D01*
X23135Y9965D01*
X23170Y9958D01*
Y10120D01*
D02*
G37*
G36*
X31462Y10090D02*
X31300D01*
Y9928D01*
X31335Y9935D01*
X31407Y9983D01*
X31455Y10055D01*
X31462Y10090D01*
D02*
G37*
G36*
X31200D02*
X31038D01*
X31045Y10055D01*
X31093Y9983D01*
X31165Y9935D01*
X31200Y9928D01*
Y10090D01*
D02*
G37*
G36*
X25802Y9980D02*
X25378D01*
X25385Y9945D01*
X25433Y9873D01*
X25455Y9858D01*
X25437Y9810D01*
X25430Y9811D01*
X25347Y9800D01*
X25270Y9768D01*
X25203Y9717D01*
X25152Y9650D01*
X25120Y9573D01*
X25109Y9490D01*
X25120Y9407D01*
X25152Y9330D01*
X25203Y9263D01*
X25270Y9212D01*
X25347Y9180D01*
X25430Y9169D01*
X25513Y9180D01*
X25590Y9212D01*
X25657Y9263D01*
X25688Y9304D01*
X25747Y9264D01*
X25774Y9259D01*
Y9451D01*
Y9644D01*
X25747Y9638D01*
X25708Y9650D01*
X25708Y9650D01*
X25657Y9717D01*
X25602Y9759D01*
X25606Y9801D01*
X25612Y9812D01*
X25675Y9825D01*
X25747Y9873D01*
X25795Y9945D01*
X25802Y9980D01*
D02*
G37*
G36*
X33950Y10564D02*
X33833Y10548D01*
X33723Y10503D01*
X33629Y10431D01*
X33557Y10337D01*
X33512Y10227D01*
X33496Y10110D01*
X33512Y9993D01*
X33557Y9883D01*
X33607Y9818D01*
X33600Y9805D01*
X33575Y9777D01*
X33550Y9782D01*
Y9570D01*
Y9358D01*
X33585Y9365D01*
X33619Y9387D01*
X33675Y9364D01*
X33680Y9340D01*
X33728Y9267D01*
X33800Y9219D01*
X33835Y9212D01*
Y9425D01*
X33885D01*
Y9475D01*
X34098D01*
X34091Y9510D01*
X34043Y9582D01*
X33998Y9612D01*
X34010Y9664D01*
X34067Y9672D01*
X34177Y9717D01*
X34271Y9789D01*
X34343Y9883D01*
X34388Y9993D01*
X34404Y10110D01*
X34388Y10227D01*
X34343Y10337D01*
X34271Y10431D01*
X34177Y10503D01*
X34067Y10548D01*
X33950Y10564D01*
D02*
G37*
G36*
X27852Y10283D02*
X27769Y10272D01*
X27692Y10240D01*
X27626Y10189D01*
X27575Y10123D01*
X27543Y10046D01*
X27532Y9962D01*
X27543Y9879D01*
X27575Y9802D01*
X27626Y9736D01*
X27692Y9685D01*
X27769Y9653D01*
X27852Y9642D01*
X27936Y9653D01*
X28013Y9685D01*
X28079Y9736D01*
X28130Y9802D01*
X28162Y9879D01*
X28173Y9962D01*
X28162Y10046D01*
X28130Y10123D01*
X28079Y10189D01*
X28013Y10240D01*
X27936Y10272D01*
X27852Y10283D01*
D02*
G37*
G36*
X19961Y9801D02*
Y9639D01*
X20124D01*
X20117Y9674D01*
X20068Y9746D01*
X19996Y9794D01*
X19961Y9801D01*
D02*
G37*
G36*
X19861D02*
X19826Y9794D01*
X19754Y9746D01*
X19706Y9674D01*
X19699Y9639D01*
X19861D01*
Y9801D01*
D02*
G37*
G36*
X33450Y9782D02*
X33415Y9775D01*
X33343Y9727D01*
X33295Y9655D01*
X33288Y9620D01*
X33450D01*
Y9782D01*
D02*
G37*
G36*
X18227Y9691D02*
Y9529D01*
X18390D01*
X18383Y9564D01*
X18334Y9636D01*
X18262Y9684D01*
X18227Y9691D01*
D02*
G37*
G36*
X18127D02*
X18092Y9684D01*
X18020Y9636D01*
X17972Y9564D01*
X17965Y9529D01*
X18127D01*
Y9691D01*
D02*
G37*
G36*
X27350Y9644D02*
Y9501D01*
X27493D01*
X27487Y9529D01*
X27444Y9594D01*
X27378Y9638D01*
X27350Y9644D01*
D02*
G37*
G36*
X27250D02*
X27223Y9638D01*
X27157Y9594D01*
X27114Y9529D01*
X27108Y9501D01*
X27250D01*
Y9644D01*
D02*
G37*
G36*
X26460Y10231D02*
X26377Y10220D01*
X26300Y10188D01*
X26233Y10137D01*
X26182Y10070D01*
X26150Y9993D01*
X26139Y9910D01*
X26150Y9827D01*
X26182Y9750D01*
X26233Y9683D01*
X26300Y9632D01*
X26366Y9605D01*
X26383Y9571D01*
X26388Y9548D01*
X26375Y9529D01*
X26370Y9501D01*
X26755D01*
X26749Y9529D01*
X26705Y9594D01*
X26677Y9613D01*
X26675Y9674D01*
X26687Y9683D01*
X26738Y9750D01*
X26770Y9827D01*
X26781Y9910D01*
X26770Y9993D01*
X26738Y10070D01*
X26687Y10137D01*
X26620Y10188D01*
X26543Y10220D01*
X26460Y10231D01*
D02*
G37*
G36*
X25874Y9644D02*
Y9501D01*
X26016D01*
X26011Y9529D01*
X25967Y9594D01*
X25902Y9638D01*
X25874Y9644D01*
D02*
G37*
G36*
X21850Y10071D02*
X21767Y10060D01*
X21690Y10028D01*
X21623Y9977D01*
X21572Y9910D01*
X21540Y9833D01*
X21529Y9750D01*
X21540Y9667D01*
X21572Y9590D01*
X21623Y9523D01*
X21690Y9472D01*
X21767Y9440D01*
X21850Y9429D01*
X21933Y9440D01*
X22010Y9472D01*
X22077Y9523D01*
X22128Y9590D01*
X22160Y9667D01*
X22171Y9750D01*
X22160Y9833D01*
X22128Y9910D01*
X22077Y9977D01*
X22010Y10028D01*
X21933Y10060D01*
X21850Y10071D01*
D02*
G37*
G36*
X16807Y10606D02*
X16724Y10595D01*
X16647Y10563D01*
X16580Y10512D01*
X16529Y10446D01*
X16497Y10368D01*
X16486Y10285D01*
X16497Y10202D01*
X16529Y10125D01*
X16580Y10059D01*
X16620Y10028D01*
X16630Y9975D01*
X16624Y9965D01*
X16579Y9906D01*
X16547Y9828D01*
X16536Y9745D01*
X16547Y9662D01*
X16579Y9585D01*
X16630Y9519D01*
X16697Y9468D01*
X16774Y9436D01*
X16857Y9425D01*
X16940Y9436D01*
X17018Y9468D01*
X17084Y9519D01*
X17135Y9585D01*
X17167Y9662D01*
X17178Y9745D01*
X17167Y9828D01*
X17135Y9906D01*
X17084Y9972D01*
X17044Y10003D01*
X17035Y10056D01*
X17040Y10066D01*
X17085Y10125D01*
X17117Y10202D01*
X17128Y10285D01*
X17117Y10368D01*
X17085Y10446D01*
X17034Y10512D01*
X16968Y10563D01*
X16890Y10595D01*
X16807Y10606D01*
D02*
G37*
G36*
X34742Y10043D02*
X34659Y10032D01*
X34582Y10000D01*
X34515Y9949D01*
X34464Y9883D01*
X34432Y9805D01*
X34421Y9722D01*
X34432Y9639D01*
X34464Y9562D01*
X34515Y9495D01*
X34582Y9444D01*
X34659Y9412D01*
X34742Y9402D01*
X34825Y9412D01*
X34903Y9444D01*
X34969Y9495D01*
X35020Y9562D01*
X35052Y9639D01*
X35063Y9722D01*
X35052Y9805D01*
X35020Y9883D01*
X34969Y9949D01*
X34903Y10000D01*
X34825Y10032D01*
X34742Y10043D01*
D02*
G37*
G36*
X20124Y9539D02*
X19961D01*
Y9376D01*
X19996Y9383D01*
X20068Y9432D01*
X20117Y9504D01*
X20124Y9539D01*
D02*
G37*
G36*
X19861D02*
X19699D01*
X19706Y9504D01*
X19754Y9432D01*
X19826Y9383D01*
X19861Y9376D01*
Y9539D01*
D02*
G37*
G36*
X33450Y9520D02*
X33288D01*
X33295Y9485D01*
X33343Y9413D01*
X33415Y9365D01*
X33450Y9358D01*
Y9520D01*
D02*
G37*
G36*
X27493Y9401D02*
X27350D01*
Y9259D01*
X27378Y9264D01*
X27444Y9308D01*
X27487Y9374D01*
X27493Y9401D01*
D02*
G37*
G36*
X27250D02*
X27108D01*
X27114Y9374D01*
X27157Y9308D01*
X27223Y9264D01*
X27250Y9259D01*
Y9401D01*
D02*
G37*
G36*
X26016D02*
X25874D01*
Y9259D01*
X25902Y9264D01*
X25967Y9308D01*
X26011Y9374D01*
X26016Y9401D01*
D02*
G37*
G36*
X18390Y9429D02*
X17965D01*
X17972Y9394D01*
X18019Y9323D01*
X17974Y9255D01*
X17967Y9220D01*
X18392D01*
X18385Y9255D01*
X18337Y9326D01*
X18383Y9394D01*
X18390Y9429D01*
D02*
G37*
G36*
X34098Y9375D02*
X33935D01*
Y9212D01*
X33970Y9219D01*
X34043Y9267D01*
X34091Y9340D01*
X34098Y9375D01*
D02*
G37*
G36*
X31700Y9851D02*
X31617Y9840D01*
X31540Y9808D01*
X31473Y9757D01*
X31422Y9690D01*
X31390Y9613D01*
X31379Y9530D01*
X31390Y9447D01*
X31422Y9370D01*
X31473Y9303D01*
X31540Y9252D01*
X31617Y9220D01*
X31700Y9209D01*
X31783Y9220D01*
X31860Y9252D01*
X31927Y9303D01*
X31978Y9370D01*
X32010Y9447D01*
X32021Y9530D01*
X32010Y9613D01*
X31978Y9690D01*
X31927Y9757D01*
X31860Y9808D01*
X31783Y9840D01*
X31700Y9851D01*
D02*
G37*
G36*
X22860Y9342D02*
Y9180D01*
X23022D01*
X23015Y9215D01*
X22967Y9287D01*
X22895Y9335D01*
X22860Y9342D01*
D02*
G37*
G36*
X22760D02*
X22725Y9335D01*
X22653Y9287D01*
X22605Y9215D01*
X22598Y9180D01*
X22760D01*
Y9342D01*
D02*
G37*
G36*
X12830D02*
Y9180D01*
X12992D01*
X12985Y9215D01*
X12937Y9287D01*
X12865Y9335D01*
X12830Y9342D01*
D02*
G37*
G36*
X12730D02*
X12695Y9335D01*
X12623Y9287D01*
X12575Y9215D01*
X12568Y9180D01*
X12730D01*
Y9342D01*
D02*
G37*
G36*
X26755Y9401D02*
X26370D01*
X26375Y9374D01*
X26419Y9308D01*
X26444Y9292D01*
Y9242D01*
X26419Y9225D01*
X26375Y9159D01*
X26370Y9132D01*
X26755D01*
X26749Y9159D01*
X26705Y9225D01*
X26681Y9242D01*
Y9292D01*
X26705Y9308D01*
X26749Y9374D01*
X26755Y9401D01*
D02*
G37*
G36*
X11480Y9222D02*
Y9060D01*
X11642D01*
X11635Y9095D01*
X11587Y9167D01*
X11515Y9215D01*
X11480Y9222D01*
D02*
G37*
G36*
X11380D02*
X11345Y9215D01*
X11273Y9167D01*
X11225Y9095D01*
X11218Y9060D01*
X11380D01*
Y9222D01*
D02*
G37*
G36*
X18392Y9120D02*
X18229D01*
Y8957D01*
X18264Y8964D01*
X18336Y9013D01*
X18385Y9085D01*
X18392Y9120D01*
D02*
G37*
G36*
X18129D02*
X17967D01*
X17974Y9085D01*
X18022Y9013D01*
X18094Y8964D01*
X18129Y8957D01*
Y9120D01*
D02*
G37*
G36*
X23022Y9080D02*
X22860D01*
Y8918D01*
X22895Y8925D01*
X22967Y8973D01*
X23015Y9045D01*
X23022Y9080D01*
D02*
G37*
G36*
X22760D02*
X22598D01*
X22605Y9045D01*
X22653Y8973D01*
X22725Y8925D01*
X22760Y8918D01*
Y9080D01*
D02*
G37*
G36*
X12992D02*
X12830D01*
Y8918D01*
X12865Y8925D01*
X12937Y8973D01*
X12985Y9045D01*
X12992Y9080D01*
D02*
G37*
G36*
X12730D02*
X12568D01*
X12575Y9045D01*
X12623Y8973D01*
X12695Y8925D01*
X12730Y8918D01*
Y9080D01*
D02*
G37*
G36*
X27918Y9529D02*
X27835Y9518D01*
X27757Y9486D01*
X27691Y9435D01*
X27640Y9368D01*
X27608Y9291D01*
X27597Y9208D01*
X27608Y9125D01*
X27640Y9047D01*
X27691Y8981D01*
X27757Y8930D01*
X27835Y8898D01*
X27918Y8887D01*
X28001Y8898D01*
X28078Y8930D01*
X28145Y8981D01*
X28196Y9047D01*
X28228Y9125D01*
X28239Y9208D01*
X28228Y9291D01*
X28196Y9368D01*
X28145Y9435D01*
X28078Y9486D01*
X28001Y9518D01*
X27918Y9529D01*
D02*
G37*
G36*
X26755Y9032D02*
X26370D01*
X26375Y9005D01*
X26419Y8939D01*
X26444Y8923D01*
Y8873D01*
X26419Y8856D01*
X26403Y8831D01*
X26353D01*
X26336Y8856D01*
X26271Y8900D01*
X26243Y8905D01*
Y8713D01*
Y8521D01*
X26271Y8526D01*
X26336Y8570D01*
X26353Y8595D01*
X26403D01*
X26419Y8570D01*
X26444Y8553D01*
Y8503D01*
X26419Y8487D01*
X26375Y8421D01*
X26370Y8394D01*
X26755D01*
X26749Y8421D01*
X26705Y8487D01*
X26681Y8503D01*
Y8553D01*
X26705Y8570D01*
X26722Y8595D01*
X26772D01*
X26788Y8570D01*
X26854Y8526D01*
X26881Y8521D01*
Y8713D01*
Y8905D01*
X26854Y8900D01*
X26788Y8856D01*
X26772Y8831D01*
X26722D01*
X26705Y8856D01*
X26681Y8873D01*
Y8923D01*
X26705Y8939D01*
X26749Y9005D01*
X26755Y9032D01*
D02*
G37*
G36*
X27250Y8905D02*
X27223Y8900D01*
X27157Y8856D01*
X27141Y8831D01*
X27091D01*
X27074Y8856D01*
X27009Y8900D01*
X26981Y8905D01*
Y8713D01*
Y8521D01*
X27009Y8526D01*
X27074Y8570D01*
X27091Y8595D01*
X27141D01*
X27157Y8570D01*
X27223Y8526D01*
X27250Y8521D01*
Y8713D01*
Y8905D01*
D02*
G37*
G36*
X26143D02*
X26116Y8900D01*
X26050Y8856D01*
X26034Y8831D01*
X25984D01*
X25967Y8856D01*
X25902Y8900D01*
X25874Y8905D01*
Y8713D01*
Y8521D01*
X25902Y8526D01*
X25967Y8570D01*
X25984Y8595D01*
X26034D01*
X26050Y8570D01*
X26116Y8526D01*
X26143Y8521D01*
Y8713D01*
Y8905D01*
D02*
G37*
G36*
X11642Y8960D02*
X11480D01*
Y8798D01*
X11515Y8805D01*
X11587Y8853D01*
X11635Y8925D01*
X11642Y8960D01*
D02*
G37*
G36*
X11380D02*
X11218D01*
X11225Y8925D01*
X11273Y8853D01*
X11345Y8805D01*
X11380Y8798D01*
Y8960D01*
D02*
G37*
G36*
X27350Y8905D02*
Y8763D01*
X27493D01*
X27487Y8790D01*
X27444Y8856D01*
X27378Y8900D01*
X27350Y8905D01*
D02*
G37*
G36*
X25774D02*
X25747Y8900D01*
X25681Y8856D01*
X25637Y8790D01*
X25632Y8763D01*
X25774D01*
Y8905D01*
D02*
G37*
G36*
X16297Y8811D02*
Y8669D01*
X16440D01*
X16434Y8696D01*
X16390Y8762D01*
X16325Y8806D01*
X16297Y8811D01*
D02*
G37*
G36*
X16197D02*
X16170Y8806D01*
X16104Y8762D01*
X16060Y8696D01*
X16055Y8669D01*
X16197D01*
Y8811D01*
D02*
G37*
G36*
X27493Y8663D02*
X27350D01*
Y8521D01*
X27378Y8526D01*
X27444Y8570D01*
X27487Y8636D01*
X27493Y8663D01*
D02*
G37*
G36*
X25774D02*
X25632D01*
X25637Y8636D01*
X25681Y8570D01*
X25747Y8526D01*
X25774Y8521D01*
Y8663D01*
D02*
G37*
G36*
X22050Y9151D02*
X21967Y9140D01*
X21890Y9108D01*
X21823Y9057D01*
X21772Y8990D01*
X21740Y8913D01*
X21729Y8830D01*
X21740Y8747D01*
X21772Y8670D01*
X21823Y8603D01*
X21890Y8552D01*
X21967Y8520D01*
X22050Y8509D01*
X22133Y8520D01*
X22210Y8552D01*
X22277Y8603D01*
X22328Y8670D01*
X22360Y8747D01*
X22371Y8830D01*
X22360Y8913D01*
X22328Y8990D01*
X22277Y9057D01*
X22210Y9108D01*
X22133Y9140D01*
X22050Y9151D01*
D02*
G37*
G36*
X20207Y8561D02*
Y8399D01*
X20370D01*
X20363Y8434D01*
X20314Y8506D01*
X20242Y8554D01*
X20207Y8561D01*
D02*
G37*
G36*
X20107D02*
X20072Y8554D01*
X20000Y8506D01*
X19952Y8434D01*
X19945Y8399D01*
X20107D01*
Y8561D01*
D02*
G37*
G36*
X32060Y8522D02*
Y8360D01*
X32222D01*
X32215Y8395D01*
X32167Y8467D01*
X32095Y8515D01*
X32060Y8522D01*
D02*
G37*
G36*
X31960D02*
X31925Y8515D01*
X31853Y8467D01*
X31805Y8395D01*
X31798Y8360D01*
X31960D01*
Y8522D01*
D02*
G37*
G36*
X16440Y8569D02*
X16055D01*
X16060Y8541D01*
X16104Y8476D01*
X16158Y8440D01*
X16161Y8427D01*
Y8397D01*
X16158Y8384D01*
X16104Y8348D01*
X16068Y8295D01*
X16055Y8292D01*
X16026D01*
X16013Y8295D01*
X15977Y8348D01*
X15911Y8392D01*
X15884Y8398D01*
Y8205D01*
Y8013D01*
X15911Y8019D01*
X15977Y8062D01*
X16013Y8116D01*
X16026Y8119D01*
X16055D01*
X16068Y8116D01*
X16104Y8062D01*
X16158Y8027D01*
X16161Y8013D01*
Y7984D01*
X16158Y7971D01*
X16104Y7935D01*
X16060Y7869D01*
X16055Y7842D01*
X16440D01*
X16434Y7869D01*
X16390Y7935D01*
X16337Y7971D01*
X16333Y7984D01*
Y8013D01*
X16337Y8027D01*
X16390Y8062D01*
X16426Y8116D01*
X16439Y8119D01*
X16469D01*
X16482Y8116D01*
X16518Y8062D01*
X16583Y8019D01*
X16611Y8013D01*
Y8205D01*
Y8398D01*
X16583Y8392D01*
X16518Y8348D01*
X16482Y8295D01*
X16469Y8292D01*
X16439D01*
X16426Y8295D01*
X16390Y8348D01*
X16337Y8384D01*
X16333Y8397D01*
Y8427D01*
X16337Y8440D01*
X16390Y8476D01*
X16434Y8541D01*
X16440Y8569D01*
D02*
G37*
G36*
X12850Y8422D02*
Y8260D01*
X13012D01*
X13005Y8295D01*
X12957Y8367D01*
X12885Y8415D01*
X12850Y8422D01*
D02*
G37*
G36*
X12750D02*
X12715Y8415D01*
X12643Y8367D01*
X12595Y8295D01*
X12588Y8260D01*
X12750D01*
Y8422D01*
D02*
G37*
G36*
X16711Y8398D02*
Y8255D01*
X16853D01*
X16848Y8283D01*
X16804Y8348D01*
X16738Y8392D01*
X16711Y8398D01*
D02*
G37*
G36*
X15784D02*
X15756Y8392D01*
X15691Y8348D01*
X15647Y8283D01*
X15641Y8255D01*
X15784D01*
Y8398D01*
D02*
G37*
G36*
X19357Y8650D02*
X19274Y8639D01*
X19197Y8607D01*
X19130Y8556D01*
X19079Y8489D01*
X19047Y8412D01*
X19036Y8329D01*
X19043Y8281D01*
X18997Y8248D01*
X18943Y8270D01*
X18860Y8281D01*
X18777Y8270D01*
X18700Y8238D01*
X18633Y8187D01*
X18582Y8120D01*
X18550Y8043D01*
X18539Y7960D01*
X18550Y7877D01*
X18582Y7800D01*
X18633Y7733D01*
X18700Y7682D01*
X18777Y7650D01*
X18860Y7639D01*
X18943Y7650D01*
X19020Y7682D01*
X19087Y7733D01*
X19138Y7800D01*
X19170Y7877D01*
X19181Y7960D01*
X19175Y8008D01*
X19221Y8041D01*
X19274Y8019D01*
X19357Y8008D01*
X19440Y8019D01*
X19518Y8051D01*
X19584Y8102D01*
X19635Y8168D01*
X19667Y8246D01*
X19678Y8329D01*
X19667Y8412D01*
X19635Y8489D01*
X19584Y8556D01*
X19518Y8607D01*
X19440Y8639D01*
X19357Y8650D01*
D02*
G37*
G36*
X11520Y8402D02*
Y8240D01*
X11682D01*
X11675Y8275D01*
X11627Y8347D01*
X11555Y8395D01*
X11520Y8402D01*
D02*
G37*
G36*
X11420D02*
X11385Y8395D01*
X11313Y8347D01*
X11265Y8275D01*
X11258Y8240D01*
X11420D01*
Y8402D01*
D02*
G37*
G36*
X37118Y8400D02*
Y8238D01*
X37280D01*
X37273Y8273D01*
X37225Y8345D01*
X37153Y8393D01*
X37118Y8400D01*
D02*
G37*
G36*
X30120Y8309D02*
X30085Y8303D01*
X30013Y8254D01*
X29965Y8182D01*
X29958Y8147D01*
X30120D01*
Y8309D01*
D02*
G37*
G36*
X30528Y8306D02*
Y8143D01*
X30690D01*
X30683Y8178D01*
X30635Y8250D01*
X30563Y8299D01*
X30528Y8306D01*
D02*
G37*
G36*
X37018Y8400D02*
X36983Y8393D01*
X36910Y8345D01*
X36862Y8273D01*
X36845Y8188D01*
X36848Y8175D01*
X36812Y8140D01*
X36800Y8142D01*
X36715Y8125D01*
X36643Y8077D01*
X36595Y8005D01*
X36588Y7970D01*
X36800D01*
Y7920D01*
X36850D01*
Y7708D01*
X36885Y7715D01*
X36957Y7763D01*
X37005Y7835D01*
X37022Y7920D01*
X37020Y7932D01*
X37055Y7968D01*
X37068Y7965D01*
X37153Y7982D01*
X37225Y8030D01*
X37273Y8103D01*
X37280Y8138D01*
X37068D01*
Y8188D01*
X37018D01*
Y8400D01*
D02*
G37*
G36*
X32222Y8260D02*
X32060D01*
Y8098D01*
X32095Y8105D01*
X32167Y8153D01*
X32215Y8225D01*
X32222Y8260D01*
D02*
G37*
G36*
X31960D02*
X31798D01*
X31805Y8225D01*
X31853Y8153D01*
X31925Y8105D01*
X31960Y8098D01*
Y8260D01*
D02*
G37*
G36*
X20370Y8299D02*
X19945D01*
X19952Y8264D01*
X19995Y8198D01*
X20000Y8176D01*
Y8157D01*
X19995Y8135D01*
X19952Y8069D01*
X19945Y8034D01*
X20370D01*
X20363Y8069D01*
X20319Y8135D01*
X20314Y8157D01*
Y8176D01*
X20319Y8198D01*
X20363Y8264D01*
X20370Y8299D01*
D02*
G37*
G36*
X27350Y8167D02*
Y8025D01*
X27493D01*
X27487Y8052D01*
X27444Y8118D01*
X27378Y8162D01*
X27350Y8167D01*
D02*
G37*
G36*
X27250D02*
X27223Y8162D01*
X27157Y8118D01*
X27114Y8052D01*
X27108Y8025D01*
X27250D01*
Y8167D01*
D02*
G37*
G36*
X25874D02*
Y8025D01*
X26016D01*
X26011Y8052D01*
X25967Y8118D01*
X25902Y8162D01*
X25874Y8167D01*
D02*
G37*
G36*
X25774D02*
X25747Y8162D01*
X25681Y8118D01*
X25637Y8052D01*
X25632Y8025D01*
X25774D01*
Y8167D01*
D02*
G37*
G36*
X16853Y8155D02*
X16711D01*
Y8013D01*
X16738Y8019D01*
X16804Y8062D01*
X16848Y8128D01*
X16853Y8155D01*
D02*
G37*
G36*
X15784D02*
X15641D01*
X15647Y8128D01*
X15691Y8062D01*
X15756Y8019D01*
X15784Y8013D01*
Y8155D01*
D02*
G37*
G36*
X13012Y8160D02*
X12850D01*
Y7998D01*
X12885Y8005D01*
X12957Y8053D01*
X13005Y8125D01*
X13012Y8160D01*
D02*
G37*
G36*
X12750D02*
X12588D01*
X12595Y8125D01*
X12643Y8053D01*
X12715Y8005D01*
X12750Y7998D01*
Y8160D01*
D02*
G37*
G36*
X11682Y8140D02*
X11520D01*
Y7978D01*
X11555Y7985D01*
X11627Y8033D01*
X11675Y8105D01*
X11682Y8140D01*
D02*
G37*
G36*
X11420D02*
X11258D01*
X11265Y8105D01*
X11313Y8033D01*
X11385Y7985D01*
X11420Y7978D01*
Y8140D01*
D02*
G37*
G36*
X27910Y8611D02*
X27827Y8600D01*
X27750Y8568D01*
X27683Y8517D01*
X27632Y8450D01*
X27600Y8373D01*
X27589Y8290D01*
X27600Y8207D01*
X27632Y8130D01*
X27683Y8063D01*
X27750Y8012D01*
X27827Y7980D01*
X27910Y7969D01*
X27993Y7980D01*
X28070Y8012D01*
X28137Y8063D01*
X28188Y8130D01*
X28220Y8207D01*
X28231Y8290D01*
X28220Y8373D01*
X28188Y8450D01*
X28137Y8517D01*
X28070Y8568D01*
X27993Y8600D01*
X27910Y8611D01*
D02*
G37*
G36*
X35250Y8011D02*
X35167Y8000D01*
X35090Y7968D01*
X35046Y7935D01*
X35010Y7922D01*
X34974Y7935D01*
X34930Y7968D01*
X34853Y8000D01*
X34770Y8011D01*
X34687Y8000D01*
X34610Y7968D01*
X34543Y7917D01*
X34492Y7850D01*
X34466Y7788D01*
X34414D01*
X34388Y7850D01*
X34337Y7917D01*
X34270Y7968D01*
X34193Y8000D01*
X34110Y8011D01*
X34027Y8000D01*
X33950Y7968D01*
X33883Y7917D01*
X33832Y7850D01*
X33800Y7773D01*
X33789Y7690D01*
X33800Y7607D01*
X33824Y7550D01*
X33800Y7493D01*
X33789Y7410D01*
X33800Y7327D01*
X33832Y7250D01*
X33883Y7183D01*
X33950Y7132D01*
X34027Y7100D01*
X34110Y7089D01*
X34193Y7100D01*
X34270Y7132D01*
X34337Y7183D01*
X34388Y7250D01*
X34420Y7327D01*
X34431Y7410D01*
X34420Y7493D01*
X34397Y7550D01*
X34419Y7592D01*
X34466D01*
X34492Y7530D01*
X34543Y7463D01*
X34610Y7412D01*
X34687Y7380D01*
X34770Y7369D01*
X34853Y7380D01*
X34930Y7412D01*
X34974Y7445D01*
X35010Y7458D01*
X35046Y7445D01*
X35090Y7412D01*
X35167Y7380D01*
X35250Y7369D01*
X35333Y7380D01*
X35410Y7412D01*
X35477Y7463D01*
X35528Y7530D01*
X35560Y7607D01*
X35571Y7690D01*
X35560Y7773D01*
X35528Y7850D01*
X35477Y7917D01*
X35410Y7968D01*
X35333Y8000D01*
X35250Y8011D01*
D02*
G37*
G36*
X30120Y8047D02*
X29958D01*
X29965Y8012D01*
X30013Y7940D01*
X30085Y7892D01*
X30120Y7885D01*
Y8047D01*
D02*
G37*
G36*
X30690Y8043D02*
X30528D01*
Y7881D01*
X30563Y7888D01*
X30635Y7936D01*
X30683Y8008D01*
X30690Y8043D01*
D02*
G37*
G36*
X30220Y8309D02*
Y8097D01*
Y7885D01*
X30255Y7892D01*
X30321Y7936D01*
X30393Y7888D01*
X30428Y7881D01*
Y8093D01*
Y8306D01*
X30393Y8299D01*
X30327Y8255D01*
X30255Y8303D01*
X30220Y8309D01*
D02*
G37*
G36*
X27493Y7925D02*
X27350D01*
Y7782D01*
X27378Y7788D01*
X27444Y7832D01*
X27487Y7897D01*
X27493Y7925D01*
D02*
G37*
G36*
X27250D02*
X27108D01*
X27114Y7897D01*
X27157Y7832D01*
X27223Y7788D01*
X27250Y7782D01*
Y7925D01*
D02*
G37*
G36*
X26016D02*
X25874D01*
Y7782D01*
X25902Y7788D01*
X25967Y7832D01*
X26011Y7897D01*
X26016Y7925D01*
D02*
G37*
G36*
X25774D02*
X25632D01*
X25637Y7897D01*
X25681Y7832D01*
X25747Y7788D01*
X25774Y7782D01*
Y7925D01*
D02*
G37*
G36*
X20370Y7934D02*
X20207D01*
Y7772D01*
X20242Y7779D01*
X20314Y7827D01*
X20363Y7899D01*
X20370Y7934D01*
D02*
G37*
G36*
X20107D02*
X19945D01*
X19952Y7899D01*
X20000Y7827D01*
X20072Y7779D01*
X20107Y7772D01*
Y7934D01*
D02*
G37*
G36*
X36750Y7870D02*
X36588D01*
X36595Y7835D01*
X36643Y7763D01*
X36715Y7715D01*
X36750Y7708D01*
Y7870D01*
D02*
G37*
G36*
X16440Y7742D02*
X16297D01*
Y7600D01*
X16325Y7605D01*
X16390Y7649D01*
X16434Y7715D01*
X16440Y7742D01*
D02*
G37*
G36*
X16197D02*
X16055D01*
X16060Y7715D01*
X16104Y7649D01*
X16170Y7605D01*
X16197Y7600D01*
Y7742D01*
D02*
G37*
G36*
X26755Y8294D02*
X26370D01*
X26375Y8266D01*
X26419Y8201D01*
X26444Y8184D01*
Y8134D01*
X26419Y8118D01*
X26375Y8052D01*
X26370Y8025D01*
X26562D01*
Y7925D01*
X26370D01*
X26375Y7897D01*
X26415Y7839D01*
X26414Y7838D01*
X26363Y7772D01*
X26331Y7694D01*
X26320Y7611D01*
X26331Y7528D01*
X26363Y7451D01*
X26414Y7384D01*
X26480Y7333D01*
X26557Y7301D01*
X26641Y7290D01*
X26724Y7301D01*
X26801Y7333D01*
X26867Y7384D01*
X26918Y7451D01*
X26950Y7528D01*
X26961Y7611D01*
X26950Y7694D01*
X26918Y7772D01*
X26867Y7838D01*
X26801Y7889D01*
X26752Y7909D01*
X26765Y7975D01*
X26749Y8052D01*
X26705Y8118D01*
X26681Y8134D01*
Y8184D01*
X26705Y8201D01*
X26749Y8266D01*
X26755Y8294D01*
D02*
G37*
G36*
X28950Y7981D02*
X28867Y7970D01*
X28790Y7938D01*
X28723Y7887D01*
X28672Y7820D01*
X28640Y7743D01*
X28629Y7660D01*
X28640Y7577D01*
X28672Y7500D01*
X28723Y7433D01*
X28785Y7386D01*
X28785Y7385D01*
X28786Y7363D01*
X28779Y7332D01*
X28720Y7307D01*
X28653Y7256D01*
X28602Y7190D01*
X28570Y7113D01*
X28559Y7029D01*
X28570Y6946D01*
X28602Y6869D01*
X28653Y6803D01*
X28720Y6752D01*
X28797Y6720D01*
X28880Y6709D01*
X28963Y6720D01*
X29040Y6752D01*
X29107Y6803D01*
X29158Y6869D01*
X29190Y6946D01*
X29201Y7029D01*
X29190Y7113D01*
X29189Y7114D01*
X29233Y7140D01*
X29253Y7113D01*
X29320Y7062D01*
X29397Y7030D01*
X29480Y7019D01*
X29563Y7030D01*
X29640Y7062D01*
X29707Y7113D01*
X29758Y7180D01*
X29790Y7257D01*
X29801Y7340D01*
X29790Y7423D01*
X29758Y7500D01*
X29707Y7567D01*
X29640Y7618D01*
X29563Y7650D01*
X29480Y7661D01*
X29397Y7650D01*
X29320Y7618D01*
X29315Y7615D01*
X29268Y7642D01*
X29271Y7660D01*
X29260Y7743D01*
X29228Y7820D01*
X29177Y7887D01*
X29110Y7938D01*
X29033Y7970D01*
X28950Y7981D01*
D02*
G37*
G36*
X13750Y6982D02*
Y6820D01*
X13912D01*
X13905Y6855D01*
X13857Y6927D01*
X13785Y6975D01*
X13750Y6982D01*
D02*
G37*
G36*
X13650D02*
X13615Y6975D01*
X13543Y6927D01*
X13495Y6855D01*
X13488Y6820D01*
X13650D01*
Y6982D01*
D02*
G37*
G36*
X33020Y6962D02*
Y6800D01*
X33182D01*
X33175Y6835D01*
X33127Y6907D01*
X33055Y6955D01*
X33020Y6962D01*
D02*
G37*
G36*
X32920D02*
X32885Y6955D01*
X32813Y6907D01*
X32765Y6835D01*
X32758Y6800D01*
X32920D01*
Y6962D01*
D02*
G37*
G36*
X22732Y8118D02*
X22649Y8107D01*
X22572Y8075D01*
X22506Y8024D01*
X22455Y7958D01*
X22423Y7881D01*
X22412Y7798D01*
X22423Y7714D01*
X22455Y7637D01*
X22506Y7571D01*
X22572Y7520D01*
X22649Y7488D01*
X22683Y7483D01*
X22706Y7480D01*
X22700Y7431D01*
X22679Y7428D01*
X22617Y7420D01*
X22540Y7388D01*
X22473Y7337D01*
X22422Y7270D01*
X22390Y7193D01*
X22379Y7110D01*
X22390Y7027D01*
X22422Y6950D01*
X22473Y6883D01*
X22540Y6832D01*
X22617Y6800D01*
X22700Y6789D01*
X22783Y6800D01*
X22860Y6832D01*
X22927Y6883D01*
X22978Y6950D01*
X23010Y7027D01*
X23021Y7110D01*
X23010Y7193D01*
X22978Y7270D01*
X22927Y7337D01*
X22860Y7388D01*
X22783Y7420D01*
X22749Y7424D01*
X22727Y7427D01*
X22732Y7477D01*
X22754Y7479D01*
X22816Y7488D01*
X22893Y7520D01*
X22959Y7571D01*
X23010Y7637D01*
X23042Y7714D01*
X23053Y7798D01*
X23042Y7881D01*
X23010Y7958D01*
X22959Y8024D01*
X22893Y8075D01*
X22816Y8107D01*
X22732Y8118D01*
D02*
G37*
G36*
X31640Y6742D02*
Y6580D01*
X31802D01*
X31795Y6615D01*
X31747Y6687D01*
X31675Y6735D01*
X31640Y6742D01*
D02*
G37*
G36*
X13912Y6720D02*
X13750D01*
Y6558D01*
X13785Y6565D01*
X13857Y6613D01*
X13905Y6685D01*
X13912Y6720D01*
D02*
G37*
G36*
X13650D02*
X13488D01*
X13495Y6685D01*
X13543Y6613D01*
X13615Y6565D01*
X13650Y6558D01*
Y6720D01*
D02*
G37*
G36*
X22510Y6712D02*
Y6550D01*
X22672D01*
X22665Y6585D01*
X22617Y6657D01*
X22545Y6705D01*
X22510Y6712D01*
D02*
G37*
G36*
X22410D02*
X22375Y6705D01*
X22303Y6657D01*
X22255Y6585D01*
X22248Y6550D01*
X22410D01*
Y6712D01*
D02*
G37*
G36*
X10450Y6702D02*
Y6540D01*
X10612D01*
X10605Y6575D01*
X10557Y6647D01*
X10485Y6695D01*
X10450Y6702D01*
D02*
G37*
G36*
X10350D02*
X10315Y6695D01*
X10243Y6647D01*
X10195Y6575D01*
X10188Y6540D01*
X10350D01*
Y6702D01*
D02*
G37*
G36*
X33182Y6700D02*
X33020D01*
Y6538D01*
X33055Y6545D01*
X33127Y6593D01*
X33175Y6665D01*
X33182Y6700D01*
D02*
G37*
G36*
X32920D02*
X32758D01*
X32765Y6665D01*
X32813Y6593D01*
X32885Y6545D01*
X32920Y6538D01*
Y6700D01*
D02*
G37*
G36*
X25912Y4840D02*
X25750D01*
Y4678D01*
X25785Y4685D01*
X25857Y4733D01*
X25905Y4805D01*
X25912Y4840D01*
D02*
G37*
G36*
X25650D02*
X25488D01*
X25495Y4805D01*
X25543Y4733D01*
X25615Y4685D01*
X25650Y4678D01*
Y4840D01*
D02*
G37*
G36*
X11172Y4790D02*
X11010D01*
Y4628D01*
X11045Y4635D01*
X11117Y4683D01*
X11165Y4755D01*
X11172Y4790D01*
D02*
G37*
G36*
X10910D02*
X10748D01*
X10755Y4755D01*
X10803Y4683D01*
X10875Y4635D01*
X10910Y4628D01*
Y4790D01*
D02*
G37*
G36*
X16060Y4755D02*
X15897D01*
Y4593D01*
X15932Y4600D01*
X16004Y4648D01*
X16053Y4720D01*
X16060Y4755D01*
D02*
G37*
G36*
X15797D02*
X15635D01*
X15642Y4720D01*
X15690Y4648D01*
X15762Y4600D01*
X15797Y4593D01*
Y4755D01*
D02*
G37*
G36*
X37622Y4740D02*
X37460D01*
Y4578D01*
X37495Y4585D01*
X37567Y4633D01*
X37615Y4705D01*
X37622Y4740D01*
D02*
G37*
G36*
X37360D02*
X37198D01*
X37205Y4705D01*
X37253Y4633D01*
X37325Y4585D01*
X37360Y4578D01*
Y4740D01*
D02*
G37*
G36*
X23422Y4730D02*
X23260D01*
Y4568D01*
X23295Y4575D01*
X23367Y4623D01*
X23415Y4695D01*
X23422Y4730D01*
D02*
G37*
G36*
X23160D02*
X22998D01*
X23005Y4695D01*
X23053Y4623D01*
X23125Y4575D01*
X23160Y4568D01*
Y4730D01*
D02*
G37*
G36*
X31290Y4722D02*
Y4560D01*
X31452D01*
X31445Y4595D01*
X31397Y4667D01*
X31325Y4715D01*
X31290Y4722D01*
D02*
G37*
G36*
X31190D02*
X31155Y4715D01*
X31083Y4667D01*
X31035Y4595D01*
X31028Y4560D01*
X31190D01*
Y4722D01*
D02*
G37*
G36*
X14332Y4719D02*
X14170D01*
Y4557D01*
X14205Y4564D01*
X14277Y4612D01*
X14325Y4684D01*
X14332Y4719D01*
D02*
G37*
G36*
X14070D02*
X13908D01*
X13915Y4684D01*
X13963Y4612D01*
X14035Y4564D01*
X14070Y4557D01*
Y4719D01*
D02*
G37*
G36*
X37090Y4577D02*
Y4415D01*
X37252D01*
X37245Y4450D01*
X37197Y4522D01*
X37125Y4570D01*
X37090Y4577D01*
D02*
G37*
G36*
X36990D02*
X36955Y4570D01*
X36883Y4522D01*
X36835Y4450D01*
X36828Y4415D01*
X36990D01*
Y4577D01*
D02*
G37*
G36*
X35600Y4422D02*
Y4260D01*
X35762D01*
X35755Y4295D01*
X35707Y4367D01*
X35635Y4415D01*
X35600Y4422D01*
D02*
G37*
G36*
X35500D02*
X35465Y4415D01*
X35393Y4367D01*
X35345Y4295D01*
X35338Y4260D01*
X35500D01*
Y4422D01*
D02*
G37*
G36*
X23270Y4332D02*
Y4170D01*
X23432D01*
X23425Y4205D01*
X23377Y4277D01*
X23305Y4325D01*
X23270Y4332D01*
D02*
G37*
G36*
X23170D02*
X23135Y4325D01*
X23063Y4277D01*
X23015Y4205D01*
X23008Y4170D01*
X23170D01*
Y4332D01*
D02*
G37*
G36*
X37252Y4315D02*
X37090D01*
Y4153D01*
X37125Y4160D01*
X37197Y4208D01*
X37245Y4280D01*
X37252Y4315D01*
D02*
G37*
G36*
X36990D02*
X36828D01*
X36835Y4280D01*
X36883Y4208D01*
X36955Y4160D01*
X36990Y4153D01*
Y4315D01*
D02*
G37*
G36*
X31452Y4460D02*
X31028D01*
X31035Y4425D01*
X31083Y4353D01*
X31122Y4327D01*
Y4267D01*
X31093Y4247D01*
X31045Y4175D01*
X31038Y4140D01*
X31462D01*
X31455Y4175D01*
X31407Y4247D01*
X31368Y4273D01*
Y4333D01*
X31397Y4353D01*
X31445Y4425D01*
X31452Y4460D01*
D02*
G37*
G36*
X24780Y4711D02*
X24697Y4700D01*
X24620Y4668D01*
X24553Y4617D01*
X24502Y4550D01*
X24470Y4473D01*
X24459Y4390D01*
X24470Y4307D01*
X24502Y4230D01*
X24553Y4163D01*
X24620Y4112D01*
X24697Y4080D01*
X24780Y4069D01*
X24863Y4080D01*
X24940Y4112D01*
X25007Y4163D01*
X25058Y4230D01*
X25090Y4307D01*
X25101Y4390D01*
X25090Y4473D01*
X25058Y4550D01*
X25007Y4617D01*
X24940Y4668D01*
X24863Y4700D01*
X24780Y4711D01*
D02*
G37*
G36*
X25640Y4192D02*
Y4030D01*
X25802D01*
X25795Y4065D01*
X25747Y4137D01*
X25675Y4185D01*
X25640Y4192D01*
D02*
G37*
G36*
X25540D02*
X25505Y4185D01*
X25433Y4137D01*
X25385Y4065D01*
X25378Y4030D01*
X25540D01*
Y4192D01*
D02*
G37*
G36*
X35762Y4160D02*
X35600D01*
Y3998D01*
X35635Y4005D01*
X35707Y4053D01*
X35755Y4125D01*
X35762Y4160D01*
D02*
G37*
G36*
X35500D02*
X35338D01*
X35345Y4125D01*
X35393Y4053D01*
X35465Y4005D01*
X35500Y3998D01*
Y4160D01*
D02*
G37*
G36*
X23432Y4070D02*
X23270D01*
Y3908D01*
X23305Y3915D01*
X23377Y3963D01*
X23425Y4035D01*
X23432Y4070D01*
D02*
G37*
G36*
X23170D02*
X23008D01*
X23015Y4035D01*
X23063Y3963D01*
X23135Y3915D01*
X23170Y3908D01*
Y4070D01*
D02*
G37*
G36*
X31462Y4040D02*
X31300D01*
Y3878D01*
X31335Y3885D01*
X31407Y3933D01*
X31455Y4005D01*
X31462Y4040D01*
D02*
G37*
G36*
X31200D02*
X31038D01*
X31045Y4005D01*
X31093Y3933D01*
X31165Y3885D01*
X31200Y3878D01*
Y4040D01*
D02*
G37*
G36*
X25802Y3930D02*
X25378D01*
X25385Y3895D01*
X25433Y3823D01*
X25455Y3808D01*
X25437Y3760D01*
X25430Y3761D01*
X25347Y3750D01*
X25270Y3718D01*
X25203Y3667D01*
X25152Y3600D01*
X25120Y3523D01*
X25109Y3440D01*
X25120Y3357D01*
X25152Y3280D01*
X25203Y3213D01*
X25270Y3162D01*
X25347Y3130D01*
X25430Y3119D01*
X25513Y3130D01*
X25590Y3162D01*
X25657Y3213D01*
X25688Y3254D01*
X25747Y3214D01*
X25774Y3209D01*
Y3401D01*
Y3594D01*
X25747Y3588D01*
X25708Y3600D01*
X25708Y3600D01*
X25657Y3667D01*
X25602Y3709D01*
X25606Y3751D01*
X25612Y3762D01*
X25675Y3775D01*
X25747Y3823D01*
X25795Y3895D01*
X25802Y3930D01*
D02*
G37*
G36*
X33950Y4514D02*
X33833Y4498D01*
X33723Y4453D01*
X33629Y4381D01*
X33557Y4287D01*
X33512Y4177D01*
X33496Y4060D01*
X33512Y3943D01*
X33557Y3833D01*
X33607Y3768D01*
X33600Y3755D01*
X33575Y3727D01*
X33550Y3732D01*
Y3520D01*
Y3308D01*
X33585Y3315D01*
X33619Y3337D01*
X33675Y3314D01*
X33680Y3290D01*
X33728Y3217D01*
X33800Y3169D01*
X33835Y3162D01*
Y3375D01*
X33885D01*
Y3425D01*
X34098D01*
X34091Y3460D01*
X34043Y3532D01*
X33998Y3562D01*
X34010Y3614D01*
X34067Y3622D01*
X34177Y3667D01*
X34271Y3739D01*
X34343Y3833D01*
X34388Y3943D01*
X34404Y4060D01*
X34388Y4177D01*
X34343Y4287D01*
X34271Y4381D01*
X34177Y4453D01*
X34067Y4498D01*
X33950Y4514D01*
D02*
G37*
G36*
X27852Y4233D02*
X27769Y4222D01*
X27692Y4190D01*
X27626Y4139D01*
X27575Y4073D01*
X27543Y3996D01*
X27532Y3913D01*
X27543Y3829D01*
X27575Y3752D01*
X27626Y3686D01*
X27692Y3635D01*
X27769Y3603D01*
X27852Y3592D01*
X27936Y3603D01*
X28013Y3635D01*
X28079Y3686D01*
X28130Y3752D01*
X28162Y3829D01*
X28173Y3913D01*
X28162Y3996D01*
X28130Y4073D01*
X28079Y4139D01*
X28013Y4190D01*
X27936Y4222D01*
X27852Y4233D01*
D02*
G37*
G36*
X19961Y3751D02*
Y3589D01*
X20124D01*
X20117Y3624D01*
X20068Y3696D01*
X19996Y3744D01*
X19961Y3751D01*
D02*
G37*
G36*
X19861D02*
X19826Y3744D01*
X19754Y3696D01*
X19706Y3624D01*
X19699Y3589D01*
X19861D01*
Y3751D01*
D02*
G37*
G36*
X33450Y3732D02*
X33415Y3725D01*
X33343Y3677D01*
X33295Y3605D01*
X33288Y3570D01*
X33450D01*
Y3732D01*
D02*
G37*
G36*
X18227Y3641D02*
Y3479D01*
X18390D01*
X18383Y3514D01*
X18334Y3586D01*
X18262Y3634D01*
X18227Y3641D01*
D02*
G37*
G36*
X18127D02*
X18092Y3634D01*
X18020Y3586D01*
X17972Y3514D01*
X17965Y3479D01*
X18127D01*
Y3641D01*
D02*
G37*
G36*
X27350Y3594D02*
Y3451D01*
X27493D01*
X27487Y3479D01*
X27444Y3544D01*
X27378Y3588D01*
X27350Y3594D01*
D02*
G37*
G36*
X27250D02*
X27223Y3588D01*
X27157Y3544D01*
X27114Y3479D01*
X27108Y3451D01*
X27250D01*
Y3594D01*
D02*
G37*
G36*
X26460Y4181D02*
X26377Y4170D01*
X26300Y4138D01*
X26233Y4087D01*
X26182Y4020D01*
X26150Y3943D01*
X26139Y3860D01*
X26150Y3777D01*
X26182Y3700D01*
X26233Y3633D01*
X26300Y3582D01*
X26366Y3555D01*
X26383Y3521D01*
X26388Y3498D01*
X26375Y3479D01*
X26370Y3451D01*
X26755D01*
X26749Y3479D01*
X26705Y3544D01*
X26677Y3563D01*
X26675Y3624D01*
X26687Y3633D01*
X26738Y3700D01*
X26770Y3777D01*
X26781Y3860D01*
X26770Y3943D01*
X26738Y4020D01*
X26687Y4087D01*
X26620Y4138D01*
X26543Y4170D01*
X26460Y4181D01*
D02*
G37*
G36*
X25874Y3594D02*
Y3451D01*
X26016D01*
X26011Y3479D01*
X25967Y3544D01*
X25902Y3588D01*
X25874Y3594D01*
D02*
G37*
G36*
X21850Y4021D02*
X21767Y4010D01*
X21690Y3978D01*
X21623Y3927D01*
X21572Y3860D01*
X21540Y3783D01*
X21529Y3700D01*
X21540Y3617D01*
X21572Y3540D01*
X21623Y3473D01*
X21690Y3422D01*
X21767Y3390D01*
X21850Y3379D01*
X21933Y3390D01*
X22010Y3422D01*
X22077Y3473D01*
X22128Y3540D01*
X22160Y3617D01*
X22171Y3700D01*
X22160Y3783D01*
X22128Y3860D01*
X22077Y3927D01*
X22010Y3978D01*
X21933Y4010D01*
X21850Y4021D01*
D02*
G37*
G36*
X16807Y4556D02*
X16724Y4545D01*
X16647Y4513D01*
X16580Y4462D01*
X16529Y4396D01*
X16497Y4318D01*
X16486Y4235D01*
X16497Y4152D01*
X16529Y4075D01*
X16580Y4009D01*
X16620Y3978D01*
X16630Y3925D01*
X16624Y3915D01*
X16579Y3856D01*
X16547Y3778D01*
X16536Y3695D01*
X16547Y3612D01*
X16579Y3535D01*
X16630Y3469D01*
X16697Y3418D01*
X16774Y3386D01*
X16857Y3375D01*
X16940Y3386D01*
X17018Y3418D01*
X17084Y3469D01*
X17135Y3535D01*
X17167Y3612D01*
X17178Y3695D01*
X17167Y3778D01*
X17135Y3856D01*
X17084Y3922D01*
X17044Y3953D01*
X17035Y4006D01*
X17040Y4016D01*
X17085Y4075D01*
X17117Y4152D01*
X17128Y4235D01*
X17117Y4318D01*
X17085Y4396D01*
X17034Y4462D01*
X16968Y4513D01*
X16890Y4545D01*
X16807Y4556D01*
D02*
G37*
G36*
X34742Y3993D02*
X34659Y3982D01*
X34582Y3950D01*
X34515Y3899D01*
X34464Y3833D01*
X34432Y3755D01*
X34421Y3672D01*
X34432Y3589D01*
X34464Y3512D01*
X34515Y3445D01*
X34582Y3394D01*
X34659Y3362D01*
X34742Y3352D01*
X34825Y3362D01*
X34903Y3394D01*
X34969Y3445D01*
X35020Y3512D01*
X35052Y3589D01*
X35063Y3672D01*
X35052Y3755D01*
X35020Y3833D01*
X34969Y3899D01*
X34903Y3950D01*
X34825Y3982D01*
X34742Y3993D01*
D02*
G37*
G36*
X20124Y3489D02*
X19961D01*
Y3326D01*
X19996Y3333D01*
X20068Y3382D01*
X20117Y3454D01*
X20124Y3489D01*
D02*
G37*
G36*
X19861D02*
X19699D01*
X19706Y3454D01*
X19754Y3382D01*
X19826Y3333D01*
X19861Y3326D01*
Y3489D01*
D02*
G37*
G36*
X33450Y3470D02*
X33288D01*
X33295Y3435D01*
X33343Y3363D01*
X33415Y3315D01*
X33450Y3308D01*
Y3470D01*
D02*
G37*
G36*
X27493Y3351D02*
X27350D01*
Y3209D01*
X27378Y3214D01*
X27444Y3258D01*
X27487Y3324D01*
X27493Y3351D01*
D02*
G37*
G36*
X27250D02*
X27108D01*
X27114Y3324D01*
X27157Y3258D01*
X27223Y3214D01*
X27250Y3209D01*
Y3351D01*
D02*
G37*
G36*
X26016D02*
X25874D01*
Y3209D01*
X25902Y3214D01*
X25967Y3258D01*
X26011Y3324D01*
X26016Y3351D01*
D02*
G37*
G36*
X18390Y3379D02*
X17965D01*
X17972Y3344D01*
X18019Y3273D01*
X17974Y3205D01*
X17967Y3170D01*
X18392D01*
X18385Y3205D01*
X18337Y3276D01*
X18383Y3344D01*
X18390Y3379D01*
D02*
G37*
G36*
X34098Y3325D02*
X33935D01*
Y3162D01*
X33970Y3169D01*
X34043Y3217D01*
X34091Y3290D01*
X34098Y3325D01*
D02*
G37*
G36*
X31700Y3801D02*
X31617Y3790D01*
X31540Y3758D01*
X31473Y3707D01*
X31422Y3640D01*
X31390Y3563D01*
X31379Y3480D01*
X31390Y3397D01*
X31422Y3320D01*
X31473Y3253D01*
X31540Y3202D01*
X31617Y3170D01*
X31700Y3159D01*
X31783Y3170D01*
X31860Y3202D01*
X31927Y3253D01*
X31978Y3320D01*
X32010Y3397D01*
X32021Y3480D01*
X32010Y3563D01*
X31978Y3640D01*
X31927Y3707D01*
X31860Y3758D01*
X31783Y3790D01*
X31700Y3801D01*
D02*
G37*
G36*
X22860Y3292D02*
Y3130D01*
X23022D01*
X23015Y3165D01*
X22967Y3237D01*
X22895Y3285D01*
X22860Y3292D01*
D02*
G37*
G36*
X22760D02*
X22725Y3285D01*
X22653Y3237D01*
X22605Y3165D01*
X22598Y3130D01*
X22760D01*
Y3292D01*
D02*
G37*
G36*
X26755Y3351D02*
X26370D01*
X26375Y3324D01*
X26419Y3258D01*
X26444Y3242D01*
Y3192D01*
X26419Y3175D01*
X26375Y3109D01*
X26370Y3082D01*
X26755D01*
X26749Y3109D01*
X26705Y3175D01*
X26681Y3192D01*
Y3242D01*
X26705Y3258D01*
X26749Y3324D01*
X26755Y3351D01*
D02*
G37*
G36*
X18392Y3070D02*
X18229D01*
Y2907D01*
X18264Y2914D01*
X18336Y2963D01*
X18385Y3035D01*
X18392Y3070D01*
D02*
G37*
G36*
X18129D02*
X17967D01*
X17974Y3035D01*
X18022Y2963D01*
X18094Y2914D01*
X18129Y2907D01*
Y3070D01*
D02*
G37*
G36*
X23022Y3030D02*
X22860D01*
Y2868D01*
X22895Y2875D01*
X22967Y2923D01*
X23015Y2995D01*
X23022Y3030D01*
D02*
G37*
G36*
X22760D02*
X22598D01*
X22605Y2995D01*
X22653Y2923D01*
X22725Y2875D01*
X22760Y2868D01*
Y3030D01*
D02*
G37*
G36*
X27918Y3479D02*
X27835Y3468D01*
X27757Y3436D01*
X27691Y3385D01*
X27640Y3318D01*
X27608Y3241D01*
X27597Y3158D01*
X27608Y3075D01*
X27640Y2997D01*
X27691Y2931D01*
X27757Y2880D01*
X27835Y2848D01*
X27918Y2837D01*
X28001Y2848D01*
X28078Y2880D01*
X28145Y2931D01*
X28196Y2997D01*
X28228Y3075D01*
X28239Y3158D01*
X28228Y3241D01*
X28196Y3318D01*
X28145Y3385D01*
X28078Y3436D01*
X28001Y3468D01*
X27918Y3479D01*
D02*
G37*
G36*
X26755Y2982D02*
X26370D01*
X26375Y2955D01*
X26419Y2889D01*
X26444Y2873D01*
Y2822D01*
X26419Y2806D01*
X26403Y2781D01*
X26353D01*
X26336Y2806D01*
X26271Y2850D01*
X26243Y2855D01*
Y2663D01*
Y2471D01*
X26271Y2476D01*
X26336Y2520D01*
X26353Y2545D01*
X26403D01*
X26419Y2520D01*
X26444Y2503D01*
Y2453D01*
X26419Y2437D01*
X26375Y2371D01*
X26370Y2344D01*
X26755D01*
X26749Y2371D01*
X26705Y2437D01*
X26681Y2453D01*
Y2503D01*
X26705Y2520D01*
X26722Y2545D01*
X26772D01*
X26788Y2520D01*
X26854Y2476D01*
X26881Y2471D01*
Y2663D01*
Y2855D01*
X26854Y2850D01*
X26788Y2806D01*
X26772Y2781D01*
X26722D01*
X26705Y2806D01*
X26681Y2822D01*
Y2873D01*
X26705Y2889D01*
X26749Y2955D01*
X26755Y2982D01*
D02*
G37*
G36*
X27250Y2855D02*
X27223Y2850D01*
X27157Y2806D01*
X27141Y2781D01*
X27091D01*
X27074Y2806D01*
X27009Y2850D01*
X26981Y2855D01*
Y2663D01*
Y2471D01*
X27009Y2476D01*
X27074Y2520D01*
X27091Y2545D01*
X27141D01*
X27157Y2520D01*
X27223Y2476D01*
X27250Y2471D01*
Y2663D01*
Y2855D01*
D02*
G37*
G36*
X26143D02*
X26116Y2850D01*
X26050Y2806D01*
X26034Y2781D01*
X25984D01*
X25967Y2806D01*
X25902Y2850D01*
X25874Y2855D01*
Y2663D01*
Y2471D01*
X25902Y2476D01*
X25967Y2520D01*
X25984Y2545D01*
X26034D01*
X26050Y2520D01*
X26116Y2476D01*
X26143Y2471D01*
Y2663D01*
Y2855D01*
D02*
G37*
G36*
X27350D02*
Y2713D01*
X27493D01*
X27487Y2740D01*
X27444Y2806D01*
X27378Y2850D01*
X27350Y2855D01*
D02*
G37*
G36*
X25774D02*
X25747Y2850D01*
X25681Y2806D01*
X25637Y2740D01*
X25632Y2713D01*
X25774D01*
Y2855D01*
D02*
G37*
G36*
X12610Y2872D02*
Y2710D01*
X12772D01*
X12765Y2745D01*
X12717Y2817D01*
X12645Y2865D01*
X12610Y2872D01*
D02*
G37*
G36*
X12510D02*
X12475Y2865D01*
X12403Y2817D01*
X12355Y2745D01*
X12348Y2710D01*
X12510D01*
Y2872D01*
D02*
G37*
G36*
X16297Y2761D02*
Y2619D01*
X16440D01*
X16434Y2646D01*
X16390Y2712D01*
X16325Y2756D01*
X16297Y2761D01*
D02*
G37*
G36*
X16197D02*
X16170Y2756D01*
X16104Y2712D01*
X16060Y2646D01*
X16055Y2619D01*
X16197D01*
Y2761D01*
D02*
G37*
G36*
X27493Y2613D02*
X27350D01*
Y2471D01*
X27378Y2476D01*
X27444Y2520D01*
X27487Y2586D01*
X27493Y2613D01*
D02*
G37*
G36*
X25774D02*
X25632D01*
X25637Y2586D01*
X25681Y2520D01*
X25747Y2476D01*
X25774Y2471D01*
Y2613D01*
D02*
G37*
G36*
X22050Y3101D02*
X21967Y3090D01*
X21890Y3058D01*
X21823Y3007D01*
X21772Y2940D01*
X21740Y2863D01*
X21729Y2780D01*
X21740Y2697D01*
X21772Y2620D01*
X21823Y2553D01*
X21890Y2502D01*
X21967Y2470D01*
X22050Y2459D01*
X22133Y2470D01*
X22210Y2502D01*
X22277Y2553D01*
X22328Y2620D01*
X22360Y2697D01*
X22371Y2780D01*
X22360Y2863D01*
X22328Y2940D01*
X22277Y3007D01*
X22210Y3058D01*
X22133Y3090D01*
X22050Y3101D01*
D02*
G37*
G36*
X12772Y2610D02*
X12610D01*
Y2448D01*
X12645Y2455D01*
X12717Y2503D01*
X12765Y2575D01*
X12772Y2610D01*
D02*
G37*
G36*
X12510D02*
X12348D01*
X12355Y2575D01*
X12403Y2503D01*
X12475Y2455D01*
X12510Y2448D01*
Y2610D01*
D02*
G37*
G36*
X20207Y2511D02*
Y2349D01*
X20370D01*
X20363Y2384D01*
X20314Y2456D01*
X20242Y2504D01*
X20207Y2511D01*
D02*
G37*
G36*
X20107D02*
X20072Y2504D01*
X20000Y2456D01*
X19952Y2384D01*
X19945Y2349D01*
X20107D01*
Y2511D01*
D02*
G37*
G36*
X32060Y2472D02*
Y2310D01*
X32222D01*
X32215Y2345D01*
X32167Y2417D01*
X32095Y2465D01*
X32060Y2472D01*
D02*
G37*
G36*
X31960D02*
X31925Y2465D01*
X31853Y2417D01*
X31805Y2345D01*
X31798Y2310D01*
X31960D01*
Y2472D01*
D02*
G37*
G36*
X16440Y2519D02*
X16055D01*
X16060Y2491D01*
X16104Y2426D01*
X16158Y2390D01*
X16161Y2377D01*
Y2347D01*
X16158Y2334D01*
X16104Y2298D01*
X16068Y2245D01*
X16055Y2242D01*
X16026D01*
X16013Y2245D01*
X15977Y2298D01*
X15911Y2342D01*
X15884Y2348D01*
Y2155D01*
Y1963D01*
X15911Y1969D01*
X15977Y2012D01*
X16013Y2066D01*
X16026Y2069D01*
X16055D01*
X16068Y2066D01*
X16104Y2012D01*
X16158Y1977D01*
X16161Y1963D01*
Y1934D01*
X16158Y1921D01*
X16104Y1885D01*
X16060Y1819D01*
X16055Y1792D01*
X16440D01*
X16434Y1819D01*
X16390Y1885D01*
X16337Y1921D01*
X16333Y1934D01*
Y1963D01*
X16337Y1977D01*
X16390Y2012D01*
X16426Y2066D01*
X16439Y2069D01*
X16469D01*
X16482Y2066D01*
X16518Y2012D01*
X16583Y1969D01*
X16611Y1963D01*
Y2155D01*
Y2348D01*
X16583Y2342D01*
X16518Y2298D01*
X16482Y2245D01*
X16469Y2242D01*
X16439D01*
X16426Y2245D01*
X16390Y2298D01*
X16337Y2334D01*
X16333Y2347D01*
Y2377D01*
X16337Y2390D01*
X16390Y2426D01*
X16434Y2491D01*
X16440Y2519D01*
D02*
G37*
G36*
X16711Y2348D02*
Y2205D01*
X16853D01*
X16848Y2233D01*
X16804Y2298D01*
X16738Y2342D01*
X16711Y2348D01*
D02*
G37*
G36*
X15784D02*
X15756Y2342D01*
X15691Y2298D01*
X15647Y2233D01*
X15641Y2205D01*
X15784D01*
Y2348D01*
D02*
G37*
G36*
X19357Y2600D02*
X19274Y2589D01*
X19197Y2557D01*
X19130Y2506D01*
X19079Y2439D01*
X19047Y2362D01*
X19036Y2279D01*
X19043Y2231D01*
X18997Y2198D01*
X18943Y2220D01*
X18860Y2231D01*
X18777Y2220D01*
X18700Y2188D01*
X18633Y2137D01*
X18582Y2070D01*
X18550Y1993D01*
X18539Y1910D01*
X18550Y1827D01*
X18582Y1750D01*
X18633Y1683D01*
X18700Y1632D01*
X18777Y1600D01*
X18860Y1589D01*
X18943Y1600D01*
X19020Y1632D01*
X19087Y1683D01*
X19138Y1750D01*
X19170Y1827D01*
X19181Y1910D01*
X19175Y1958D01*
X19221Y1991D01*
X19274Y1969D01*
X19357Y1958D01*
X19440Y1969D01*
X19518Y2001D01*
X19584Y2052D01*
X19635Y2118D01*
X19667Y2196D01*
X19678Y2279D01*
X19667Y2362D01*
X19635Y2439D01*
X19584Y2506D01*
X19518Y2557D01*
X19440Y2589D01*
X19357Y2600D01*
D02*
G37*
G36*
X37118Y2350D02*
Y2188D01*
X37280D01*
X37273Y2223D01*
X37225Y2295D01*
X37153Y2343D01*
X37118Y2350D01*
D02*
G37*
G36*
X13280Y2282D02*
Y2120D01*
X13442D01*
X13435Y2155D01*
X13387Y2227D01*
X13315Y2275D01*
X13280Y2282D01*
D02*
G37*
G36*
X13180D02*
X13145Y2275D01*
X13073Y2227D01*
X13025Y2155D01*
X13018Y2120D01*
X13180D01*
Y2282D01*
D02*
G37*
G36*
X30120Y2259D02*
X30085Y2253D01*
X30013Y2204D01*
X29965Y2132D01*
X29958Y2097D01*
X30120D01*
Y2259D01*
D02*
G37*
G36*
X30528Y2256D02*
Y2093D01*
X30690D01*
X30683Y2128D01*
X30635Y2200D01*
X30563Y2249D01*
X30528Y2256D01*
D02*
G37*
G36*
X37018Y2350D02*
X36983Y2343D01*
X36910Y2295D01*
X36862Y2223D01*
X36845Y2138D01*
X36848Y2125D01*
X36812Y2090D01*
X36800Y2092D01*
X36715Y2075D01*
X36643Y2027D01*
X36595Y1955D01*
X36588Y1920D01*
X36800D01*
Y1870D01*
X36850D01*
Y1658D01*
X36885Y1665D01*
X36957Y1713D01*
X37005Y1785D01*
X37022Y1870D01*
X37020Y1882D01*
X37055Y1918D01*
X37068Y1915D01*
X37153Y1932D01*
X37225Y1980D01*
X37273Y2053D01*
X37280Y2088D01*
X37068D01*
Y2138D01*
X37018D01*
Y2350D01*
D02*
G37*
G36*
X32222Y2210D02*
X32060D01*
Y2048D01*
X32095Y2055D01*
X32167Y2103D01*
X32215Y2175D01*
X32222Y2210D01*
D02*
G37*
G36*
X31960D02*
X31798D01*
X31805Y2175D01*
X31853Y2103D01*
X31925Y2055D01*
X31960Y2048D01*
Y2210D01*
D02*
G37*
G36*
X20370Y2249D02*
X19945D01*
X19952Y2214D01*
X20000Y2142D01*
X20000Y2141D01*
Y2091D01*
X20000Y2091D01*
X19952Y2019D01*
X19945Y1984D01*
X20370D01*
X20363Y2019D01*
X20314Y2091D01*
X20314Y2091D01*
Y2141D01*
X20314Y2142D01*
X20363Y2214D01*
X20370Y2249D01*
D02*
G37*
G36*
X27350Y2117D02*
Y1975D01*
X27493D01*
X27487Y2002D01*
X27444Y2068D01*
X27378Y2112D01*
X27350Y2117D01*
D02*
G37*
G36*
X27250D02*
X27223Y2112D01*
X27157Y2068D01*
X27114Y2002D01*
X27108Y1975D01*
X27250D01*
Y2117D01*
D02*
G37*
G36*
X25874D02*
Y1975D01*
X26016D01*
X26011Y2002D01*
X25967Y2068D01*
X25902Y2112D01*
X25874Y2117D01*
D02*
G37*
G36*
X25774D02*
X25747Y2112D01*
X25681Y2068D01*
X25637Y2002D01*
X25632Y1975D01*
X25774D01*
Y2117D01*
D02*
G37*
G36*
X16853Y2105D02*
X16711D01*
Y1963D01*
X16738Y1969D01*
X16804Y2012D01*
X16848Y2078D01*
X16853Y2105D01*
D02*
G37*
G36*
X15784D02*
X15641D01*
X15647Y2078D01*
X15691Y2012D01*
X15756Y1969D01*
X15784Y1963D01*
Y2105D01*
D02*
G37*
G36*
X27910Y2561D02*
X27827Y2550D01*
X27750Y2518D01*
X27683Y2467D01*
X27632Y2400D01*
X27600Y2323D01*
X27589Y2240D01*
X27600Y2157D01*
X27632Y2080D01*
X27683Y2013D01*
X27750Y1962D01*
X27827Y1930D01*
X27910Y1919D01*
X27993Y1930D01*
X28070Y1962D01*
X28137Y2013D01*
X28188Y2080D01*
X28220Y2157D01*
X28231Y2240D01*
X28220Y2323D01*
X28188Y2400D01*
X28137Y2467D01*
X28070Y2518D01*
X27993Y2550D01*
X27910Y2561D01*
D02*
G37*
G36*
X35250Y1961D02*
X35167Y1950D01*
X35090Y1918D01*
X35046Y1885D01*
X35010Y1872D01*
X34974Y1885D01*
X34930Y1918D01*
X34853Y1950D01*
X34770Y1961D01*
X34687Y1950D01*
X34610Y1918D01*
X34543Y1867D01*
X34492Y1800D01*
X34466Y1738D01*
X34414D01*
X34388Y1800D01*
X34337Y1867D01*
X34270Y1918D01*
X34193Y1950D01*
X34110Y1961D01*
X34027Y1950D01*
X33950Y1918D01*
X33883Y1867D01*
X33832Y1800D01*
X33800Y1723D01*
X33789Y1640D01*
X33800Y1557D01*
X33824Y1500D01*
X33800Y1443D01*
X33789Y1360D01*
X33800Y1277D01*
X33832Y1200D01*
X33883Y1133D01*
X33950Y1082D01*
X34027Y1050D01*
X34110Y1039D01*
X34193Y1050D01*
X34270Y1082D01*
X34337Y1133D01*
X34388Y1200D01*
X34420Y1277D01*
X34431Y1360D01*
X34420Y1443D01*
X34397Y1500D01*
X34419Y1542D01*
X34466D01*
X34492Y1480D01*
X34543Y1413D01*
X34610Y1362D01*
X34687Y1330D01*
X34770Y1319D01*
X34853Y1330D01*
X34930Y1362D01*
X34974Y1395D01*
X35010Y1408D01*
X35046Y1395D01*
X35090Y1362D01*
X35167Y1330D01*
X35250Y1319D01*
X35333Y1330D01*
X35410Y1362D01*
X35477Y1413D01*
X35528Y1480D01*
X35560Y1557D01*
X35571Y1640D01*
X35560Y1723D01*
X35528Y1800D01*
X35477Y1867D01*
X35410Y1918D01*
X35333Y1950D01*
X35250Y1961D01*
D02*
G37*
G36*
X13442Y2020D02*
X13280D01*
Y1858D01*
X13315Y1865D01*
X13387Y1913D01*
X13435Y1985D01*
X13442Y2020D01*
D02*
G37*
G36*
X13180D02*
X13018D01*
X13025Y1985D01*
X13073Y1913D01*
X13145Y1865D01*
X13180Y1858D01*
Y2020D01*
D02*
G37*
G36*
X30120Y1997D02*
X29958D01*
X29965Y1962D01*
X30013Y1890D01*
X30085Y1842D01*
X30120Y1835D01*
Y1997D01*
D02*
G37*
G36*
X30690Y1993D02*
X30528D01*
Y1831D01*
X30563Y1838D01*
X30635Y1886D01*
X30683Y1958D01*
X30690Y1993D01*
D02*
G37*
G36*
X30220Y2259D02*
Y2047D01*
Y1835D01*
X30255Y1842D01*
X30321Y1886D01*
X30393Y1838D01*
X30428Y1831D01*
Y2043D01*
Y2256D01*
X30393Y2249D01*
X30327Y2205D01*
X30255Y2253D01*
X30220Y2259D01*
D02*
G37*
G36*
X27493Y1875D02*
X27350D01*
Y1732D01*
X27378Y1738D01*
X27444Y1782D01*
X27487Y1847D01*
X27493Y1875D01*
D02*
G37*
G36*
X27250D02*
X27108D01*
X27114Y1847D01*
X27157Y1782D01*
X27223Y1738D01*
X27250Y1732D01*
Y1875D01*
D02*
G37*
G36*
X26016D02*
X25874D01*
Y1732D01*
X25902Y1738D01*
X25967Y1782D01*
X26011Y1847D01*
X26016Y1875D01*
D02*
G37*
G36*
X25774D02*
X25632D01*
X25637Y1847D01*
X25681Y1782D01*
X25747Y1738D01*
X25774Y1732D01*
Y1875D01*
D02*
G37*
G36*
X20370Y1884D02*
X20207D01*
Y1722D01*
X20242Y1729D01*
X20314Y1777D01*
X20363Y1849D01*
X20370Y1884D01*
D02*
G37*
G36*
X20107D02*
X19945D01*
X19952Y1849D01*
X20000Y1777D01*
X20072Y1729D01*
X20107Y1722D01*
Y1884D01*
D02*
G37*
G36*
X36750Y1820D02*
X36588D01*
X36595Y1785D01*
X36643Y1713D01*
X36715Y1665D01*
X36750Y1658D01*
Y1820D01*
D02*
G37*
G36*
X16440Y1692D02*
X16297D01*
Y1550D01*
X16325Y1555D01*
X16390Y1599D01*
X16434Y1665D01*
X16440Y1692D01*
D02*
G37*
G36*
X16197D02*
X16055D01*
X16060Y1665D01*
X16104Y1599D01*
X16170Y1555D01*
X16197Y1550D01*
Y1692D01*
D02*
G37*
G36*
X26755Y2244D02*
X26370D01*
X26375Y2216D01*
X26419Y2151D01*
X26444Y2134D01*
Y2084D01*
X26419Y2068D01*
X26375Y2002D01*
X26370Y1975D01*
X26562D01*
Y1875D01*
X26370D01*
X26375Y1847D01*
X26415Y1789D01*
X26414Y1788D01*
X26363Y1722D01*
X26331Y1644D01*
X26320Y1561D01*
X26331Y1478D01*
X26363Y1401D01*
X26414Y1334D01*
X26480Y1283D01*
X26557Y1251D01*
X26641Y1240D01*
X26724Y1251D01*
X26801Y1283D01*
X26867Y1334D01*
X26918Y1401D01*
X26950Y1478D01*
X26961Y1561D01*
X26950Y1644D01*
X26918Y1722D01*
X26867Y1788D01*
X26801Y1839D01*
X26752Y1859D01*
X26765Y1925D01*
X26749Y2002D01*
X26705Y2068D01*
X26681Y2084D01*
Y2134D01*
X26705Y2151D01*
X26749Y2216D01*
X26755Y2244D01*
D02*
G37*
G36*
X28950Y1931D02*
X28867Y1920D01*
X28790Y1888D01*
X28723Y1837D01*
X28672Y1770D01*
X28640Y1693D01*
X28629Y1610D01*
X28640Y1527D01*
X28672Y1450D01*
X28723Y1383D01*
X28785Y1336D01*
X28785Y1335D01*
X28786Y1313D01*
X28779Y1282D01*
X28720Y1257D01*
X28653Y1206D01*
X28602Y1140D01*
X28570Y1063D01*
X28559Y979D01*
X28570Y896D01*
X28602Y819D01*
X28653Y753D01*
X28720Y702D01*
X28797Y670D01*
X28880Y659D01*
X28963Y670D01*
X29040Y702D01*
X29107Y753D01*
X29158Y819D01*
X29190Y896D01*
X29201Y979D01*
X29190Y1063D01*
X29189Y1064D01*
X29233Y1090D01*
X29253Y1063D01*
X29320Y1012D01*
X29397Y980D01*
X29480Y969D01*
X29563Y980D01*
X29640Y1012D01*
X29707Y1063D01*
X29758Y1130D01*
X29790Y1207D01*
X29801Y1290D01*
X29790Y1373D01*
X29758Y1450D01*
X29707Y1517D01*
X29640Y1568D01*
X29563Y1600D01*
X29480Y1611D01*
X29397Y1600D01*
X29320Y1568D01*
X29315Y1565D01*
X29268Y1592D01*
X29271Y1610D01*
X29260Y1693D01*
X29228Y1770D01*
X29177Y1837D01*
X29110Y1888D01*
X29033Y1920D01*
X28950Y1931D01*
D02*
G37*
G36*
X13730Y1032D02*
Y870D01*
X13892D01*
X13885Y905D01*
X13837Y977D01*
X13765Y1025D01*
X13730Y1032D01*
D02*
G37*
G36*
X13630D02*
X13595Y1025D01*
X13523Y977D01*
X13475Y905D01*
X13468Y870D01*
X13630D01*
Y1032D01*
D02*
G37*
G36*
X22732Y2068D02*
X22649Y2057D01*
X22572Y2025D01*
X22506Y1974D01*
X22455Y1908D01*
X22423Y1831D01*
X22412Y1748D01*
X22423Y1664D01*
X22455Y1587D01*
X22506Y1521D01*
X22572Y1470D01*
X22649Y1438D01*
X22683Y1433D01*
X22706Y1430D01*
X22700Y1381D01*
X22679Y1378D01*
X22617Y1370D01*
X22540Y1338D01*
X22473Y1287D01*
X22422Y1220D01*
X22390Y1143D01*
X22379Y1060D01*
X22390Y977D01*
X22422Y900D01*
X22473Y833D01*
X22540Y782D01*
X22617Y750D01*
X22700Y739D01*
X22783Y750D01*
X22860Y782D01*
X22927Y833D01*
X22978Y900D01*
X23010Y977D01*
X23021Y1060D01*
X23010Y1143D01*
X22978Y1220D01*
X22927Y1287D01*
X22860Y1338D01*
X22783Y1370D01*
X22749Y1374D01*
X22727Y1377D01*
X22732Y1427D01*
X22754Y1429D01*
X22816Y1438D01*
X22893Y1470D01*
X22959Y1521D01*
X23010Y1587D01*
X23042Y1664D01*
X23053Y1748D01*
X23042Y1831D01*
X23010Y1908D01*
X22959Y1974D01*
X22893Y2025D01*
X22816Y2057D01*
X22732Y2068D01*
D02*
G37*
G36*
X33040Y882D02*
Y720D01*
X33202D01*
X33195Y755D01*
X33147Y827D01*
X33075Y875D01*
X33040Y882D01*
D02*
G37*
G36*
X32940D02*
X32905Y875D01*
X32833Y827D01*
X32785Y755D01*
X32778Y720D01*
X32940D01*
Y882D01*
D02*
G37*
G36*
X13892Y770D02*
X13730D01*
Y608D01*
X13765Y615D01*
X13837Y663D01*
X13885Y735D01*
X13892Y770D01*
D02*
G37*
G36*
X13630D02*
X13468D01*
X13475Y735D01*
X13523Y663D01*
X13595Y615D01*
X13630Y608D01*
Y770D01*
D02*
G37*
G36*
X11302Y740D02*
X11140D01*
Y578D01*
X11175Y585D01*
X11247Y633D01*
X11295Y705D01*
X11302Y740D01*
D02*
G37*
G36*
X31640Y692D02*
Y530D01*
X31802D01*
X31795Y565D01*
X31747Y637D01*
X31675Y685D01*
X31640Y692D01*
D02*
G37*
G36*
X22510Y662D02*
Y500D01*
X22672D01*
X22665Y535D01*
X22617Y607D01*
X22545Y655D01*
X22510Y662D01*
D02*
G37*
G36*
X22410D02*
X22375Y655D01*
X22303Y607D01*
X22255Y535D01*
X22248Y500D01*
X22410D01*
Y662D01*
D02*
G37*
G36*
X33202Y620D02*
X33040D01*
Y458D01*
X33075Y465D01*
X33147Y513D01*
X33195Y585D01*
X33202Y620D01*
D02*
G37*
G36*
X32940D02*
X32778D01*
X32785Y585D01*
X32833Y513D01*
X32905Y465D01*
X32940Y458D01*
Y620D01*
D02*
G37*
%LPD*%
D10*
X8268Y7792D02*
G03*
X8268Y9592I0J900D01*
G01*
Y7952D02*
G03*
X8268Y9432I0J740D01*
G01*
Y7872D02*
G03*
X8268Y9512I0J820D01*
G01*
X8268Y8352D02*
G03*
X8268Y9032I-0J340D01*
G01*
Y8272D02*
G03*
X8268Y9112I0J420D01*
G01*
Y8112D02*
G03*
X8268Y9272I0J580D01*
G01*
Y8192D02*
G03*
X8268Y9192I0J500D01*
G01*
Y8032D02*
G03*
X8268Y9352I0J660D01*
G01*
Y9192D02*
G03*
X8268Y8112I0J-540D01*
G01*
Y9272D02*
G03*
X8268Y8032I0J-620D01*
G01*
X8058Y8672D02*
G03*
X8268Y8352I265J-55D01*
G01*
Y9032D02*
G03*
X8268Y8272I0J-380D01*
G01*
Y9112D02*
G03*
X8268Y8192I0J-460D01*
G01*
Y7712D02*
G03*
X8268Y9672I0J980D01*
G01*
X8288Y7552D02*
G03*
X8228Y7633I-70J10D01*
G01*
X8268Y9352D02*
G03*
X8268Y7952I0J-700D01*
G01*
Y9432D02*
G03*
X8268Y7872I0J-780D01*
G01*
Y9592D02*
G03*
X8268Y7712I0J-940D01*
G01*
Y9512D02*
G03*
X8268Y7792I0J-860D01*
G01*
Y9672D02*
G03*
X8228Y7633I0J-1020D01*
G01*
X1811Y7712D02*
G03*
X1811Y9592I0J940D01*
G01*
Y7632D02*
G03*
X1851Y9671I0J1020D01*
G01*
X1811Y7872D02*
G03*
X1811Y9432I0J780D01*
G01*
Y7792D02*
G03*
X1811Y9512I0J860D01*
G01*
Y8032D02*
G03*
X1811Y9272I0J620D01*
G01*
Y7952D02*
G03*
X1811Y9352I0J700D01*
G01*
X2021Y8632D02*
G03*
X1811Y8952I-265J55D01*
G01*
Y8192D02*
G03*
X1811Y9112I0J460D01*
G01*
X1791Y9752D02*
G03*
X1851Y9671I70J-10D01*
G01*
X1811Y8272D02*
G03*
X1811Y9032I0J380D01*
G01*
X1811Y8952D02*
G03*
X1811Y8272I0J-340D01*
G01*
Y9032D02*
G03*
X1811Y8192I0J-420D01*
G01*
Y9272D02*
G03*
X1811Y7952I0J-660D01*
G01*
Y8112D02*
G03*
X1811Y9192I0J540D01*
G01*
Y9112D02*
G03*
X1811Y8112I0J-500D01*
G01*
Y9192D02*
G03*
X1811Y8032I0J-580D01*
G01*
Y9592D02*
G03*
X1811Y7632I0J-980D01*
G01*
Y9352D02*
G03*
X1811Y7872I0J-740D01*
G01*
Y9432D02*
G03*
X1811Y7792I0J-820D01*
G01*
Y9512D02*
G03*
X1811Y7712I0J-900D01*
G01*
X1876Y4054D02*
G03*
X1970Y3957I190J90D01*
G01*
X2220Y2550D02*
G03*
X1870Y3080I-440J90D01*
G01*
Y1120D02*
G03*
X1870Y3800I0J1340D01*
G01*
Y1040D02*
G03*
X1870Y3880I0J1420D01*
G01*
Y1280D02*
G03*
X1870Y3640I0J1180D01*
G01*
Y1200D02*
G03*
X1870Y3720I0J1260D01*
G01*
Y1440D02*
G03*
X1870Y3480I0J1020D01*
G01*
Y1360D02*
G03*
X1870Y3560I0J1100D01*
G01*
Y1760D02*
G03*
X1870Y3160I0J700D01*
G01*
Y1520D02*
G03*
X1870Y3400I0J940D01*
G01*
Y1600D02*
G03*
X1870Y3320I0J860D01*
G01*
Y3240D02*
G03*
X1870Y1600I0J-820D01*
G01*
Y1680D02*
G03*
X1870Y3240I0J780D01*
G01*
X1870Y3080D02*
G03*
X1870Y1760I0J-660D01*
G01*
Y3160D02*
G03*
X1870Y1680I0J-740D01*
G01*
Y3480D02*
G03*
X1870Y1360I0J-1060D01*
G01*
Y960D02*
G03*
X1970Y3957I0J1500D01*
G01*
X1870Y3320D02*
G03*
X1870Y1520I0J-900D01*
G01*
Y3400D02*
G03*
X1870Y1440I0J-980D01*
G01*
Y3800D02*
G03*
X1870Y1040I0J-1380D01*
G01*
Y3880D02*
G03*
X1870Y960I0J-1460D01*
G01*
Y3640D02*
G03*
X1870Y1200I0J-1220D01*
G01*
Y3560D02*
G03*
X1870Y1280I0J-1140D01*
G01*
Y3720D02*
G03*
X1870Y1120I0J-1300D01*
G01*
X9030Y2460D02*
G03*
X7390Y2460I-820J0D01*
G01*
X9844Y2454D02*
G03*
X9747Y2360I90J-190D01*
G01*
X8870Y2460D02*
G03*
X7550Y2460I-660J-0D01*
G01*
X8950D02*
G03*
X7470Y2460I-740J0D01*
G01*
X8340Y2110D02*
G03*
X8870Y2460I90J440D01*
G01*
X7550D02*
G03*
X8950Y2460I700J0D01*
G01*
X7470D02*
G03*
X9030Y2460I780J0D01*
G01*
X7390D02*
G03*
X9110Y2460I860J0D01*
G01*
X9590D02*
G03*
X6830Y2460I-1380J0D01*
G01*
X9670D02*
G03*
X6750Y2460I-1460J0D01*
G01*
X9430D02*
G03*
X6990Y2460I-1220J0D01*
G01*
X9510D02*
G03*
X6910Y2460I-1300J0D01*
G01*
X9270D02*
G03*
X7150Y2460I-1060J0D01*
G01*
X9350D02*
G03*
X7070Y2460I-1140J0D01*
G01*
X9110D02*
G03*
X7310Y2460I-900J0D01*
G01*
X9190D02*
G03*
X7230Y2460I-980J0D01*
G01*
X7070D02*
G03*
X9430Y2460I1180J0D01*
G01*
X6990D02*
G03*
X9510Y2460I1260J0D01*
G01*
X6910D02*
G03*
X9590Y2460I1340J0D01*
G01*
X6830D02*
G03*
X9670Y2460I1420J0D01*
G01*
X6750D02*
G03*
X9747Y2360I1500J0D01*
G01*
X7310Y2460D02*
G03*
X9190Y2460I940J0D01*
G01*
X7230D02*
G03*
X9270Y2460I1020J0D01*
G01*
X7150D02*
G03*
X9350Y2460I1100J0D01*
G01*
D12*
X8268Y8832D02*
G03*
X8058Y8672I-25J-185D01*
G01*
X1811Y8472D02*
G03*
X2021Y8632I25J185D01*
G01*
X8288Y7552D02*
Y7552D01*
X8070Y2460D02*
G03*
X8340Y2110I310J-40D01*
G01*
X1870Y2280D02*
G03*
X2220Y2550I40J310D01*
G01*
X1876Y4054D02*
Y4054D01*
X9844Y2454D02*
X9844D01*
D38*
X8288Y7332D02*
Y7552D01*
X1791Y9752D02*
Y9972D01*
Y9752D02*
Y9752D01*
X9580Y10620D02*
X9610Y10590D01*
X9580Y10620D02*
Y10870D01*
X9300Y11150D02*
X9580Y10870D01*
X2819Y11150D02*
X9300D01*
X2579Y10910D02*
X2819Y11150D01*
X1876Y4054D02*
Y4236D01*
X2819Y5100D02*
X9720D01*
X9844Y2454D02*
X10026D01*
X9720Y5100D02*
X11480Y3340D01*
X2579Y4860D02*
X2819Y5100D01*
D51*
X25710Y10950D02*
D03*
X9610Y10590D02*
D03*
X2579Y10910D02*
D03*
X10400Y6490D02*
D03*
X30170Y8097D02*
D03*
X30478Y8093D02*
D03*
X33885Y9425D02*
D03*
X35550Y10260D02*
D03*
X23210Y10830D02*
D03*
X23220Y10170D02*
D03*
X32970Y6750D02*
D03*
X22460Y6500D02*
D03*
X20157Y7984D02*
D03*
X32010Y8310D02*
D03*
X31250Y10140D02*
D03*
X31240Y10560D02*
D03*
X12780Y9130D02*
D03*
X14120Y10819D02*
D03*
X10340Y10720D02*
D03*
X11430Y9010D02*
D03*
X25590Y10030D02*
D03*
X37068Y8188D02*
D03*
X33500Y9570D02*
D03*
X37410Y10840D02*
D03*
X37040Y10415D02*
D03*
X12800Y8210D02*
D03*
X19911Y9589D02*
D03*
X13700Y6770D02*
D03*
X11470Y8190D02*
D03*
X8268Y8832D02*
D03*
X8288Y7332D02*
D03*
X1791Y9972D02*
D03*
X1811Y8472D02*
D03*
X18179Y9170D02*
D03*
X36800Y7920D02*
D03*
X31590Y6530D02*
D03*
X22810Y9130D02*
D03*
X20157Y8349D02*
D03*
X18177Y9479D02*
D03*
X15847Y10855D02*
D03*
X25700Y4890D02*
D03*
X13230Y2070D02*
D03*
X13680Y820D02*
D03*
X11480Y3340D02*
D03*
X12560Y2660D02*
D03*
X2579Y4860D02*
D03*
X11090Y790D02*
D03*
X30170Y2047D02*
D03*
X30478Y2043D02*
D03*
X33885Y3375D02*
D03*
X35550Y4210D02*
D03*
X23210Y4780D02*
D03*
X23220Y4120D02*
D03*
X32990Y670D02*
D03*
X22460Y450D02*
D03*
X20157Y1934D02*
D03*
X32010Y2260D02*
D03*
X31250Y4090D02*
D03*
X31240Y4510D02*
D03*
X14120Y4769D02*
D03*
X10960Y4840D02*
D03*
X25590Y3980D02*
D03*
X37068Y2138D02*
D03*
X33500Y3520D02*
D03*
X37410Y4790D02*
D03*
X37040Y4365D02*
D03*
X19911Y3539D02*
D03*
X18179Y3120D02*
D03*
X36800Y1870D02*
D03*
X31590Y480D02*
D03*
X22810Y3080D02*
D03*
X20157Y2299D02*
D03*
X18177Y3429D02*
D03*
X15847Y4805D02*
D03*
D54*
X15834Y8205D02*
D03*
X16661D02*
D03*
X16247Y7792D02*
D03*
Y8619D02*
D03*
X27300Y9451D02*
D03*
Y8713D02*
D03*
Y7975D02*
D03*
X26931Y8713D02*
D03*
X26562Y9451D02*
D03*
Y9082D02*
D03*
Y8344D02*
D03*
Y7975D02*
D03*
X26193Y8713D02*
D03*
X25824Y9451D02*
D03*
Y8713D02*
D03*
Y7975D02*
D03*
X15834Y2155D02*
D03*
X16661D02*
D03*
X16247Y1742D02*
D03*
Y2569D02*
D03*
X27300Y3401D02*
D03*
Y2663D02*
D03*
Y1925D02*
D03*
X26931Y2663D02*
D03*
X26562Y3401D02*
D03*
Y3032D02*
D03*
Y2294D02*
D03*
Y1925D02*
D03*
X26193Y2663D02*
D03*
X25824Y3401D02*
D03*
Y2663D02*
D03*
Y1925D02*
D03*
D55*
X8070Y2460D02*
D03*
X10026Y2454D02*
D03*
X1870Y2280D02*
D03*
X1876Y4236D02*
D03*
M02*
