M48
;Layer_Color=9474304
;FILE_FORMAT=2:4
INCH,LZ
;TYPE=PLATED
T1F00S00C0.0079
T2F00S00C0.0080
T3F00S00C0.0118
T4F00S00C0.0150
T5F00S00C0.0250
%
T01
X015834Y002155
X016247
Y001742
Y002569
Y007792
Y008205
X015834
X016247Y008619
X016661Y008205
Y002155
X025824Y001925
X026562
Y002294
Y002663
X026931
X0273
Y003401
X026562
Y003032
X026193Y002663
X025824
Y003401
X0273Y001925
Y007975
Y008713
X026931
X026562
Y009082
Y008344
Y007975
X025824
Y008713
X026193
X026562Y009451
X0273
X025824
T02
X00187Y00228
Y00256
X001876Y004236
X00222Y00423
X00807Y00246
X00835
X010026Y002454
X01002Y00211
T03
X001656Y005006
X002579Y00486
X001811Y008472
Y008752
X008268Y008832
Y008552
X008288Y007332
X007988Y007207
X0104Y00649
X01096Y00484
X01155Y0037
X01148Y00334
X01256Y00266
X01323Y00207
X01368Y00082
X01109Y00079
X01412Y004769
X015847Y004805
X0137Y00677
X0128Y00821
X01278Y00913
X01143Y00901
X01147Y00819
X01886Y00796
X019357Y008329
X020157Y008349
Y007984
X020885Y006564
X021192
X02246Y0065
X0227Y00711
X022732Y007798
X02281Y00913
X02205Y00883
X018179Y00917
X018427Y006569
X018745
X018885Y004799
X018567
X018177Y003429
X018179Y00312
X01886Y00191
X019357Y002279
X020157Y002299
Y001934
X019911Y003539
X02185Y0037
X02205Y00278
X02281Y00308
X022732Y001748
X0227Y00106
X02246Y00045
X021192Y000514
X020885
X018745Y000519
X018427
X016857Y003695
X016807Y004235
X021025Y004794
X021332
X02321Y00478
X02322Y00412
X02478Y00439
X02559Y00398
X02543Y00344
X02646Y00386
X027852Y003913
X027918Y003158
X02791Y00224
X02895Y00161
X02888Y000979
X02948Y00129
X03017Y002047
X030478Y002043
X03111Y0004
X03159Y00048
X0317Y00348
X03125Y00409
X03124Y00451
X03111Y00645
X03159Y00653
X030478Y008093
X03017Y008097
X02948Y00734
X02895Y00766
X02888Y007029
X028472Y006392
X02773Y00651
X027156Y0064
X026641Y007611
X02791Y00829
X027918Y009208
X0283Y00459
X0257Y00489
X026641Y001561
X027156Y00035
X02773Y00046
X028472Y000342
X03299Y00067
X03411Y00136
Y00164
X03477
X03525
X0368Y00187
X037068Y002138
X03704Y004365
X03741Y00479
X03555Y00421
X034742Y003672
X033885Y003375
X0335Y00352
X03303Y00477
X032506Y004606
X032Y00491
X03201Y00226
X03297Y00675
X03411Y00741
Y00769
X03477
X03525
X0368Y00792
X037068Y008188
X03201Y00831
X032Y01096
X032506Y010656
X03303Y01082
X0335Y00957
X033885Y009425
X034742Y009722
X03555Y01026
X03704Y010415
X03741Y01084
X03124Y01056
X03125Y01014
X0317Y00953
X027852Y009962
X0283Y01064
X02646Y00991
X02559Y01003
X02543Y00949
X02478Y01044
X02571Y01095
X02321Y01083
X02322Y01017
X02185Y00975
X021332Y010844
X021025
X018885Y010849
X018567
X018177Y009479
X016857Y009745
X016807Y010285
X019911Y009589
X015847Y010855
X01412Y010819
X01034Y01072
X00991Y01087
X00961Y01059
X002579Y01091
X001656Y011056
X001791Y009972
X002091Y010136
T04
X02426Y00031
X02465
X02508
X025565
X02597
X02982Y00056
Y00661
X02597Y00636
X025565
X02508
X02465
X02426
X022265Y004775
Y010825
T05
X03411Y00049
X03395Y00406
X03411Y00654
X03395Y01011
M30
