G04*
G04 #@! TF.GenerationSoftware,Altium Limited,Altium Designer,19.1.9 (167)*
G04*
G04 Layer_Color=16711935*
%FSLAX24Y24*%
%MOIN*%
G70*
G01*
G75*
%ADD51C,0.0236*%
%ADD92C,0.0339*%
%ADD93C,0.0539*%
D51*
X16247Y8205D02*
D03*
X15834D02*
D03*
X16661D02*
D03*
X16247Y7792D02*
D03*
Y8619D02*
D03*
X27300Y9451D02*
D03*
Y8713D02*
D03*
Y7975D02*
D03*
X26931Y8713D02*
D03*
X26562Y9451D02*
D03*
Y9082D02*
D03*
Y8713D02*
D03*
Y8344D02*
D03*
Y7975D02*
D03*
X26193Y8713D02*
D03*
X25824Y9451D02*
D03*
Y8713D02*
D03*
Y7975D02*
D03*
X16247Y2155D02*
D03*
X15834D02*
D03*
X16661D02*
D03*
X16247Y1742D02*
D03*
Y2569D02*
D03*
X27300Y3401D02*
D03*
Y2663D02*
D03*
Y1925D02*
D03*
X26931Y2663D02*
D03*
X26562Y3401D02*
D03*
Y3032D02*
D03*
Y2663D02*
D03*
Y2294D02*
D03*
Y1925D02*
D03*
X26193Y2663D02*
D03*
X25824Y3401D02*
D03*
Y2663D02*
D03*
Y1925D02*
D03*
D92*
X25080Y6360D02*
D03*
X25970D02*
D03*
X24260D02*
D03*
X24650D02*
D03*
X29820Y6610D02*
D03*
X25565Y6360D02*
D03*
X22265Y10825D02*
D03*
X25080Y310D02*
D03*
X25970D02*
D03*
X24260D02*
D03*
X24650D02*
D03*
X29820Y560D02*
D03*
X25565Y310D02*
D03*
X22265Y4775D02*
D03*
D93*
X34110Y6540D02*
D03*
X33950Y10110D02*
D03*
X34110Y490D02*
D03*
X33950Y4060D02*
D03*
M02*
