G04*
G04 #@! TF.GenerationSoftware,Altium Limited,Altium Designer,19.1.9 (167)*
G04*
G04 Layer_Physical_Order=3*
G04 Layer_Color=16440176*
%FSLAX24Y24*%
%MOIN*%
G70*
G01*
G75*
%ADD10C,0.0040*%
%ADD12C,0.0060*%
%ADD38C,0.0100*%
%ADD51C,0.0236*%
%ADD53C,0.0500*%
%ADD55C,0.0200*%
G36*
X39078Y6342D02*
X34460D01*
X34428Y6392D01*
X34451Y6449D01*
X34456Y6490D01*
X33764D01*
X33769Y6449D01*
X33792Y6392D01*
X33760Y6342D01*
X31906D01*
X31877Y6392D01*
X31900Y6447D01*
X31911Y6530D01*
X31900Y6613D01*
X31868Y6690D01*
X31817Y6757D01*
X31750Y6808D01*
X31673Y6840D01*
X31590Y6851D01*
X31507Y6840D01*
X31430Y6808D01*
X31363Y6757D01*
X31312Y6690D01*
X31295Y6649D01*
X31234Y6630D01*
X31195Y6655D01*
X31160Y6662D01*
Y6450D01*
X31110D01*
Y6400D01*
X30898D01*
X30899Y6392D01*
X30864Y6342D01*
X30119D01*
X30094Y6392D01*
X30126Y6433D01*
X30161Y6519D01*
X30173Y6610D01*
X30161Y6701D01*
X30126Y6787D01*
X30070Y6860D01*
X29997Y6916D01*
X29911Y6951D01*
X29820Y6963D01*
X29729Y6951D01*
X29643Y6916D01*
X29570Y6860D01*
X29514Y6787D01*
X29479Y6701D01*
X29467Y6610D01*
X29479Y6519D01*
X29514Y6433D01*
X29546Y6392D01*
X29521Y6342D01*
X28825D01*
X28792Y6380D01*
X28793Y6392D01*
X28782Y6476D01*
X28750Y6553D01*
X28699Y6619D01*
X28633Y6670D01*
X28556Y6702D01*
X28472Y6713D01*
X28389Y6702D01*
X28312Y6670D01*
X28246Y6619D01*
X28195Y6553D01*
X28163Y6476D01*
X28152Y6392D01*
X28153Y6380D01*
X28120Y6342D01*
X28059D01*
X28026Y6392D01*
X28040Y6427D01*
X28051Y6510D01*
X28040Y6593D01*
X28008Y6670D01*
X27957Y6737D01*
X27890Y6788D01*
X27813Y6820D01*
X27730Y6831D01*
X27647Y6820D01*
X27570Y6788D01*
X27503Y6737D01*
X27452Y6670D01*
X27420Y6593D01*
X27409Y6510D01*
X27412Y6489D01*
X27363Y6480D01*
X27362Y6485D01*
X27313Y6557D01*
X27241Y6605D01*
X27206Y6612D01*
Y6400D01*
X27156D01*
Y6350D01*
X26912D01*
X26906Y6342D01*
X26338D01*
X26323Y6360D01*
X26311Y6451D01*
X26276Y6537D01*
X26220Y6610D01*
X26147Y6666D01*
X26061Y6701D01*
X25970Y6713D01*
X25879Y6701D01*
X25793Y6666D01*
X25767Y6646D01*
X25741Y6666D01*
X25656Y6701D01*
X25565Y6713D01*
X25473Y6701D01*
X25388Y6666D01*
X25322Y6615D01*
X25257Y6666D01*
X25171Y6701D01*
X25080Y6713D01*
X24989Y6701D01*
X24903Y6666D01*
X24865Y6636D01*
X24827Y6666D01*
X24741Y6701D01*
X24650Y6713D01*
X24559Y6701D01*
X24473Y6666D01*
X24455Y6652D01*
X24437Y6666D01*
X24351Y6701D01*
X24260Y6713D01*
X24169Y6701D01*
X24083Y6666D01*
X24010Y6610D01*
X23954Y6537D01*
X23919Y6451D01*
X23907Y6360D01*
X23892Y6342D01*
X22784D01*
X22756Y6384D01*
X22770Y6417D01*
X22781Y6500D01*
X22770Y6583D01*
X22738Y6660D01*
X22687Y6727D01*
X22666Y6743D01*
X22685Y6791D01*
X22700Y6789D01*
X22783Y6800D01*
X22860Y6832D01*
X22927Y6883D01*
X22978Y6950D01*
X23010Y7027D01*
X23021Y7110D01*
X23010Y7193D01*
X22978Y7270D01*
X22927Y7337D01*
X22860Y7388D01*
X22783Y7420D01*
X22749Y7424D01*
X22727Y7427D01*
X22732Y7477D01*
X22754Y7479D01*
X22816Y7488D01*
X22893Y7520D01*
X22959Y7571D01*
X23010Y7637D01*
X23042Y7714D01*
X23053Y7798D01*
X23042Y7881D01*
X23010Y7958D01*
X22959Y8024D01*
X22893Y8075D01*
X22816Y8107D01*
X22732Y8118D01*
X22649Y8107D01*
X22572Y8075D01*
X22506Y8024D01*
X22455Y7958D01*
X22423Y7881D01*
X22412Y7798D01*
X22423Y7714D01*
X22455Y7637D01*
X22506Y7571D01*
X22572Y7520D01*
X22649Y7488D01*
X22683Y7483D01*
X22706Y7480D01*
X22700Y7431D01*
X22679Y7428D01*
X22617Y7420D01*
X22540Y7388D01*
X22473Y7337D01*
X22422Y7270D01*
X22390Y7193D01*
X22379Y7110D01*
X22390Y7027D01*
X22422Y6950D01*
X22473Y6883D01*
X22494Y6867D01*
X22475Y6819D01*
X22460Y6821D01*
X22377Y6810D01*
X22300Y6778D01*
X22233Y6727D01*
X22182Y6660D01*
X22150Y6583D01*
X22139Y6500D01*
X22150Y6417D01*
X22164Y6384D01*
X22136Y6342D01*
X21344D01*
X21328Y6392D01*
X21349Y6407D01*
X21398Y6479D01*
X21405Y6514D01*
X21192D01*
Y6564D01*
X21142D01*
Y6776D01*
X21107Y6769D01*
X21038Y6723D01*
X20970Y6769D01*
X20935Y6776D01*
Y6564D01*
X20835D01*
Y6794D01*
X20814Y6811D01*
Y8650D01*
Y10677D01*
X20864Y10692D01*
X20867Y10687D01*
X20940Y10638D01*
X20975Y10631D01*
Y10844D01*
X21075D01*
Y10631D01*
X21110Y10638D01*
X21178Y10684D01*
X21247Y10638D01*
X21282Y10631D01*
Y10844D01*
X21332D01*
Y10894D01*
X21545D01*
X21538Y10929D01*
X21489Y11001D01*
X21450Y11028D01*
X21465Y11078D01*
X21955D01*
X21979Y11028D01*
X21959Y11001D01*
X21924Y10916D01*
X21912Y10825D01*
X21924Y10734D01*
X21959Y10648D01*
X22015Y10575D01*
X22088Y10519D01*
X22174Y10484D01*
X22265Y10472D01*
X22356Y10484D01*
X22441Y10519D01*
X22515Y10575D01*
X22571Y10648D01*
X22606Y10734D01*
X22618Y10825D01*
X22606Y10916D01*
X22571Y11001D01*
X22551Y11028D01*
X22575Y11078D01*
X22936D01*
X22961Y11028D01*
X22932Y10990D01*
X22900Y10913D01*
X22889Y10830D01*
X22900Y10747D01*
X22932Y10670D01*
X22983Y10603D01*
X23050Y10552D01*
X23115Y10525D01*
X23121Y10486D01*
X23118Y10472D01*
X23060Y10448D01*
X22993Y10397D01*
X22942Y10330D01*
X22910Y10253D01*
X22899Y10170D01*
X22910Y10087D01*
X22942Y10010D01*
X22993Y9943D01*
X23060Y9892D01*
X23137Y9860D01*
X23220Y9849D01*
X23303Y9860D01*
X23380Y9892D01*
X23447Y9943D01*
X23498Y10010D01*
X23530Y10087D01*
X23541Y10170D01*
X23530Y10253D01*
X23498Y10330D01*
X23447Y10397D01*
X23380Y10448D01*
X23315Y10475D01*
X23309Y10514D01*
X23312Y10528D01*
X23370Y10552D01*
X23437Y10603D01*
X23488Y10670D01*
X23520Y10747D01*
X23531Y10830D01*
X23520Y10913D01*
X23488Y10990D01*
X23459Y11028D01*
X23484Y11078D01*
X25374D01*
X25395Y11045D01*
X25399Y11028D01*
X25389Y10950D01*
X25400Y10867D01*
X25432Y10790D01*
X25483Y10723D01*
X25550Y10672D01*
X25627Y10640D01*
X25710Y10629D01*
X25793Y10640D01*
X25870Y10672D01*
X25937Y10723D01*
X25988Y10790D01*
X26020Y10867D01*
X26031Y10950D01*
X26021Y11028D01*
X26025Y11045D01*
X26046Y11078D01*
X31657D01*
X31688Y11028D01*
X31679Y10960D01*
X31690Y10877D01*
X31722Y10800D01*
X31773Y10733D01*
X31840Y10682D01*
X31917Y10650D01*
X32000Y10639D01*
X32083Y10650D01*
X32137Y10672D01*
X32154Y10667D01*
X32185Y10645D01*
X32187Y10642D01*
X32196Y10573D01*
X32228Y10496D01*
X32279Y10429D01*
X32346Y10378D01*
X32423Y10346D01*
X32506Y10335D01*
X32589Y10346D01*
X32667Y10378D01*
X32733Y10429D01*
X32784Y10496D01*
X32799Y10533D01*
X32860Y10549D01*
X32870Y10542D01*
X32947Y10510D01*
X33030Y10499D01*
X33113Y10510D01*
X33190Y10542D01*
X33257Y10593D01*
X33308Y10660D01*
X33340Y10737D01*
X33351Y10820D01*
X33340Y10903D01*
X33308Y10980D01*
X33272Y11028D01*
X33296Y11078D01*
X37128D01*
X37153Y11028D01*
X37132Y11000D01*
X37100Y10923D01*
X37089Y10840D01*
X37097Y10779D01*
X37060Y10733D01*
X37040Y10736D01*
X36957Y10725D01*
X36880Y10693D01*
X36813Y10642D01*
X36762Y10575D01*
X36730Y10498D01*
X36719Y10415D01*
X36730Y10332D01*
X36762Y10255D01*
X36813Y10188D01*
X36880Y10137D01*
X36957Y10105D01*
X37040Y10094D01*
X37123Y10105D01*
X37200Y10137D01*
X37267Y10188D01*
X37318Y10255D01*
X37350Y10332D01*
X37361Y10415D01*
X37353Y10476D01*
X37390Y10522D01*
X37410Y10519D01*
X37493Y10530D01*
X37570Y10562D01*
X37637Y10613D01*
X37688Y10680D01*
X37720Y10757D01*
X37731Y10840D01*
X37720Y10923D01*
X37688Y11000D01*
X37667Y11028D01*
X37692Y11078D01*
X39078D01*
Y6342D01*
D02*
G37*
G36*
X20610Y8650D02*
Y6728D01*
X20607Y6724D01*
X20575Y6647D01*
X20564Y6564D01*
X20575Y6481D01*
X20607Y6403D01*
X20610Y6399D01*
Y6342D01*
X18889D01*
X18874Y6392D01*
X18902Y6412D01*
X18950Y6484D01*
X18957Y6519D01*
X18745D01*
Y6569D01*
X18695D01*
Y6781D01*
X18660Y6774D01*
X18588Y6726D01*
X18584D01*
X18512Y6774D01*
X18477Y6781D01*
Y6569D01*
X18427D01*
Y6519D01*
X18215D01*
X18222Y6484D01*
X18270Y6412D01*
X18299Y6392D01*
X18283Y6342D01*
X14500D01*
Y11078D01*
X15560D01*
X15582Y11033D01*
X15569Y11016D01*
X15537Y10938D01*
X15526Y10855D01*
X15537Y10772D01*
X15569Y10695D01*
X15620Y10629D01*
X15687Y10578D01*
X15764Y10546D01*
X15847Y10535D01*
X15930Y10546D01*
X16008Y10578D01*
X16074Y10629D01*
X16125Y10695D01*
X16157Y10772D01*
X16168Y10855D01*
X16157Y10938D01*
X16125Y11016D01*
X16112Y11033D01*
X16134Y11078D01*
X18427D01*
X18442Y11028D01*
X18410Y11006D01*
X18362Y10934D01*
X18355Y10899D01*
X18567D01*
Y10849D01*
X18617D01*
Y10636D01*
X18652Y10643D01*
X18685Y10665D01*
X18726Y10691D01*
X18767Y10665D01*
X18800Y10643D01*
X18835Y10636D01*
Y10849D01*
X18885D01*
Y10899D01*
X19097D01*
X19090Y10934D01*
X19042Y11006D01*
X19010Y11028D01*
X19025Y11078D01*
X20610Y11078D01*
Y8650D01*
D02*
G37*
G36*
X39078Y292D02*
X34460D01*
X34428Y342D01*
X34451Y399D01*
X34456Y440D01*
X33764D01*
X33769Y399D01*
X33792Y342D01*
X33760Y292D01*
X31906D01*
X31877Y342D01*
X31900Y397D01*
X31911Y480D01*
X31900Y563D01*
X31868Y640D01*
X31817Y707D01*
X31750Y758D01*
X31673Y790D01*
X31590Y801D01*
X31507Y790D01*
X31430Y758D01*
X31363Y707D01*
X31312Y640D01*
X31295Y599D01*
X31234Y580D01*
X31195Y605D01*
X31160Y612D01*
Y400D01*
X31110D01*
Y350D01*
X30898D01*
X30899Y342D01*
X30864Y292D01*
X30119D01*
X30094Y342D01*
X30126Y383D01*
X30161Y469D01*
X30173Y560D01*
X30161Y651D01*
X30126Y737D01*
X30070Y810D01*
X29997Y866D01*
X29911Y901D01*
X29820Y913D01*
X29729Y901D01*
X29643Y866D01*
X29570Y810D01*
X29514Y737D01*
X29479Y651D01*
X29467Y560D01*
X29479Y469D01*
X29514Y383D01*
X29546Y342D01*
X29521Y292D01*
X28825D01*
X28792Y330D01*
X28793Y342D01*
X28782Y426D01*
X28750Y503D01*
X28699Y569D01*
X28633Y620D01*
X28556Y652D01*
X28472Y663D01*
X28389Y652D01*
X28312Y620D01*
X28246Y569D01*
X28195Y503D01*
X28163Y426D01*
X28152Y342D01*
X28153Y330D01*
X28120Y292D01*
X28059D01*
X28026Y342D01*
X28040Y377D01*
X28051Y460D01*
X28040Y543D01*
X28008Y620D01*
X27957Y687D01*
X27890Y738D01*
X27813Y770D01*
X27730Y781D01*
X27647Y770D01*
X27570Y738D01*
X27503Y687D01*
X27452Y620D01*
X27420Y543D01*
X27409Y460D01*
X27412Y439D01*
X27363Y430D01*
X27362Y435D01*
X27313Y507D01*
X27241Y555D01*
X27206Y562D01*
Y350D01*
X27156D01*
Y300D01*
X26912D01*
X26906Y292D01*
X26338D01*
X26323Y310D01*
X26311Y401D01*
X26276Y487D01*
X26220Y560D01*
X26147Y616D01*
X26061Y651D01*
X25970Y663D01*
X25879Y651D01*
X25793Y616D01*
X25767Y596D01*
X25741Y616D01*
X25656Y651D01*
X25565Y663D01*
X25473Y651D01*
X25388Y616D01*
X25322Y565D01*
X25257Y616D01*
X25171Y651D01*
X25080Y663D01*
X24989Y651D01*
X24903Y616D01*
X24865Y586D01*
X24827Y616D01*
X24741Y651D01*
X24650Y663D01*
X24559Y651D01*
X24473Y616D01*
X24455Y602D01*
X24437Y616D01*
X24351Y651D01*
X24260Y663D01*
X24169Y651D01*
X24083Y616D01*
X24010Y560D01*
X23954Y487D01*
X23919Y401D01*
X23907Y310D01*
X23892Y292D01*
X22784D01*
X22756Y334D01*
X22770Y367D01*
X22781Y450D01*
X22770Y533D01*
X22738Y610D01*
X22687Y677D01*
X22666Y693D01*
X22685Y741D01*
X22700Y739D01*
X22783Y750D01*
X22860Y782D01*
X22927Y833D01*
X22978Y900D01*
X23010Y977D01*
X23021Y1060D01*
X23010Y1143D01*
X22978Y1220D01*
X22927Y1287D01*
X22860Y1338D01*
X22783Y1370D01*
X22749Y1374D01*
X22727Y1377D01*
X22732Y1427D01*
X22754Y1429D01*
X22816Y1438D01*
X22893Y1470D01*
X22959Y1521D01*
X23010Y1587D01*
X23042Y1664D01*
X23053Y1748D01*
X23042Y1831D01*
X23010Y1908D01*
X22959Y1974D01*
X22893Y2025D01*
X22816Y2057D01*
X22732Y2068D01*
X22649Y2057D01*
X22572Y2025D01*
X22506Y1974D01*
X22455Y1908D01*
X22423Y1831D01*
X22412Y1748D01*
X22423Y1664D01*
X22455Y1587D01*
X22506Y1521D01*
X22572Y1470D01*
X22649Y1438D01*
X22683Y1433D01*
X22706Y1430D01*
X22700Y1381D01*
X22679Y1378D01*
X22617Y1370D01*
X22540Y1338D01*
X22473Y1287D01*
X22422Y1220D01*
X22390Y1143D01*
X22379Y1060D01*
X22390Y977D01*
X22422Y900D01*
X22473Y833D01*
X22494Y817D01*
X22475Y769D01*
X22460Y771D01*
X22377Y760D01*
X22300Y728D01*
X22233Y677D01*
X22182Y610D01*
X22150Y533D01*
X22139Y450D01*
X22150Y367D01*
X22164Y334D01*
X22136Y292D01*
X21344D01*
X21328Y342D01*
X21349Y357D01*
X21398Y429D01*
X21405Y464D01*
X21192D01*
Y514D01*
X21142D01*
Y726D01*
X21107Y719D01*
X21038Y673D01*
X20970Y719D01*
X20935Y726D01*
Y514D01*
X20835D01*
Y744D01*
X20814Y761D01*
Y2600D01*
Y4627D01*
X20864Y4642D01*
X20867Y4637D01*
X20940Y4588D01*
X20975Y4581D01*
Y4794D01*
X21075D01*
Y4581D01*
X21110Y4588D01*
X21178Y4634D01*
X21247Y4588D01*
X21282Y4581D01*
Y4794D01*
X21332D01*
Y4844D01*
X21545D01*
X21538Y4879D01*
X21489Y4951D01*
X21450Y4978D01*
X21465Y5028D01*
X21955D01*
X21979Y4978D01*
X21959Y4951D01*
X21924Y4866D01*
X21912Y4775D01*
X21924Y4684D01*
X21959Y4598D01*
X22015Y4525D01*
X22088Y4469D01*
X22174Y4434D01*
X22265Y4422D01*
X22356Y4434D01*
X22441Y4469D01*
X22515Y4525D01*
X22571Y4598D01*
X22606Y4684D01*
X22618Y4775D01*
X22606Y4866D01*
X22571Y4951D01*
X22551Y4978D01*
X22575Y5028D01*
X22936D01*
X22961Y4978D01*
X22932Y4940D01*
X22900Y4863D01*
X22889Y4780D01*
X22900Y4697D01*
X22932Y4620D01*
X22983Y4553D01*
X23050Y4502D01*
X23115Y4475D01*
X23121Y4436D01*
X23118Y4422D01*
X23060Y4398D01*
X22993Y4347D01*
X22942Y4280D01*
X22910Y4203D01*
X22899Y4120D01*
X22910Y4037D01*
X22942Y3960D01*
X22993Y3893D01*
X23060Y3842D01*
X23137Y3810D01*
X23220Y3799D01*
X23303Y3810D01*
X23380Y3842D01*
X23447Y3893D01*
X23498Y3960D01*
X23530Y4037D01*
X23541Y4120D01*
X23530Y4203D01*
X23498Y4280D01*
X23447Y4347D01*
X23380Y4398D01*
X23315Y4425D01*
X23309Y4464D01*
X23312Y4478D01*
X23370Y4502D01*
X23437Y4553D01*
X23488Y4620D01*
X23520Y4697D01*
X23531Y4780D01*
X23520Y4863D01*
X23488Y4940D01*
X23459Y4978D01*
X23484Y5028D01*
X25368D01*
X25395Y4986D01*
X25390Y4973D01*
X25379Y4890D01*
X25390Y4807D01*
X25422Y4730D01*
X25473Y4663D01*
X25540Y4612D01*
X25617Y4580D01*
X25700Y4569D01*
X25783Y4580D01*
X25860Y4612D01*
X25927Y4663D01*
X25978Y4730D01*
X26010Y4807D01*
X26021Y4890D01*
X26010Y4973D01*
X26005Y4986D01*
X26032Y5028D01*
X31657D01*
X31688Y4978D01*
X31679Y4910D01*
X31690Y4827D01*
X31722Y4750D01*
X31773Y4683D01*
X31840Y4632D01*
X31917Y4600D01*
X32000Y4589D01*
X32083Y4600D01*
X32137Y4622D01*
X32154Y4617D01*
X32185Y4595D01*
X32187Y4592D01*
X32196Y4523D01*
X32228Y4446D01*
X32279Y4379D01*
X32346Y4328D01*
X32423Y4296D01*
X32506Y4285D01*
X32589Y4296D01*
X32667Y4328D01*
X32733Y4379D01*
X32784Y4446D01*
X32799Y4483D01*
X32860Y4499D01*
X32870Y4492D01*
X32947Y4460D01*
X33030Y4449D01*
X33113Y4460D01*
X33190Y4492D01*
X33257Y4543D01*
X33308Y4610D01*
X33340Y4687D01*
X33351Y4770D01*
X33340Y4853D01*
X33308Y4930D01*
X33272Y4978D01*
X33296Y5028D01*
X37128D01*
X37153Y4978D01*
X37132Y4950D01*
X37100Y4873D01*
X37089Y4790D01*
X37097Y4729D01*
X37060Y4683D01*
X37040Y4686D01*
X36957Y4675D01*
X36880Y4643D01*
X36813Y4592D01*
X36762Y4525D01*
X36730Y4448D01*
X36719Y4365D01*
X36730Y4282D01*
X36762Y4205D01*
X36813Y4138D01*
X36880Y4087D01*
X36957Y4055D01*
X37040Y4044D01*
X37123Y4055D01*
X37200Y4087D01*
X37267Y4138D01*
X37318Y4205D01*
X37350Y4282D01*
X37361Y4365D01*
X37353Y4426D01*
X37390Y4472D01*
X37410Y4469D01*
X37493Y4480D01*
X37570Y4512D01*
X37637Y4563D01*
X37688Y4630D01*
X37720Y4707D01*
X37731Y4790D01*
X37720Y4873D01*
X37688Y4950D01*
X37667Y4978D01*
X37692Y5028D01*
X39078D01*
Y292D01*
D02*
G37*
G36*
X20610Y2600D02*
Y678D01*
X20607Y674D01*
X20575Y597D01*
X20564Y514D01*
X20575Y431D01*
X20607Y353D01*
X20610Y349D01*
Y292D01*
X18889D01*
X18874Y342D01*
X18902Y362D01*
X18950Y434D01*
X18957Y469D01*
X18745D01*
Y519D01*
X18695D01*
Y731D01*
X18660Y724D01*
X18588Y676D01*
X18584D01*
X18512Y724D01*
X18477Y731D01*
Y519D01*
X18427D01*
Y469D01*
X18215D01*
X18222Y434D01*
X18270Y362D01*
X18299Y342D01*
X18283Y292D01*
X14500D01*
Y5028D01*
X15560D01*
X15582Y4983D01*
X15569Y4966D01*
X15537Y4888D01*
X15526Y4805D01*
X15537Y4722D01*
X15569Y4645D01*
X15620Y4579D01*
X15687Y4528D01*
X15764Y4496D01*
X15847Y4485D01*
X15930Y4496D01*
X16008Y4528D01*
X16074Y4579D01*
X16125Y4645D01*
X16157Y4722D01*
X16168Y4805D01*
X16157Y4888D01*
X16125Y4966D01*
X16112Y4983D01*
X16134Y5028D01*
X18427D01*
X18442Y4978D01*
X18410Y4956D01*
X18362Y4884D01*
X18355Y4849D01*
X18567D01*
Y4799D01*
X18617D01*
Y4586D01*
X18652Y4593D01*
X18685Y4615D01*
X18726Y4641D01*
X18767Y4615D01*
X18800Y4593D01*
X18835Y4586D01*
Y4799D01*
X18885D01*
Y4849D01*
X19097D01*
X19090Y4884D01*
X19042Y4956D01*
X19010Y4978D01*
X19025Y5028D01*
X20610Y5028D01*
Y2600D01*
D02*
G37*
%LPC*%
G36*
X21545Y10794D02*
X21382D01*
Y10631D01*
X21417Y10638D01*
X21489Y10687D01*
X21538Y10759D01*
X21545Y10794D01*
D02*
G37*
G36*
X24830Y10652D02*
Y10490D01*
X24992D01*
X24985Y10525D01*
X24937Y10597D01*
X24865Y10645D01*
X24830Y10652D01*
D02*
G37*
G36*
X24730D02*
X24695Y10645D01*
X24623Y10597D01*
X24575Y10525D01*
X24568Y10490D01*
X24730D01*
Y10652D01*
D02*
G37*
G36*
X24992Y10390D02*
X24830D01*
Y10228D01*
X24865Y10235D01*
X24937Y10283D01*
X24985Y10355D01*
X24992Y10390D01*
D02*
G37*
G36*
X24730D02*
X24568D01*
X24575Y10355D01*
X24623Y10283D01*
X24695Y10235D01*
X24730Y10228D01*
Y10390D01*
D02*
G37*
G36*
X35550Y10581D02*
X35467Y10570D01*
X35390Y10538D01*
X35323Y10487D01*
X35272Y10420D01*
X35240Y10343D01*
X35229Y10260D01*
X35240Y10177D01*
X35272Y10100D01*
X35323Y10033D01*
X35390Y9982D01*
X35467Y9950D01*
X35550Y9939D01*
X35633Y9950D01*
X35710Y9982D01*
X35777Y10033D01*
X35828Y10100D01*
X35860Y10177D01*
X35871Y10260D01*
X35860Y10343D01*
X35828Y10420D01*
X35777Y10487D01*
X35710Y10538D01*
X35633Y10570D01*
X35550Y10581D01*
D02*
G37*
G36*
X33950Y10564D02*
X33833Y10548D01*
X33723Y10503D01*
X33629Y10431D01*
X33557Y10337D01*
X33512Y10227D01*
X33496Y10110D01*
X33512Y9993D01*
X33538Y9930D01*
X33507Y9890D01*
X33500Y9891D01*
X33417Y9880D01*
X33340Y9848D01*
X33273Y9797D01*
X33222Y9730D01*
X33190Y9653D01*
X33179Y9570D01*
X33190Y9487D01*
X33222Y9410D01*
X33273Y9343D01*
X33340Y9292D01*
X33417Y9260D01*
X33500Y9249D01*
X33583Y9260D01*
X33605Y9269D01*
X33607Y9264D01*
X33658Y9198D01*
X33725Y9147D01*
X33802Y9115D01*
X33885Y9104D01*
X33968Y9115D01*
X34046Y9147D01*
X34112Y9198D01*
X34163Y9264D01*
X34195Y9342D01*
X34206Y9425D01*
X34195Y9508D01*
X34163Y9585D01*
X34121Y9640D01*
X34127Y9696D01*
X34177Y9717D01*
X34271Y9789D01*
X34343Y9883D01*
X34388Y9993D01*
X34404Y10110D01*
X34388Y10227D01*
X34343Y10337D01*
X34271Y10431D01*
X34177Y10503D01*
X34067Y10548D01*
X33950Y10564D01*
D02*
G37*
G36*
X28300Y10961D02*
X28217Y10950D01*
X28140Y10918D01*
X28073Y10867D01*
X28022Y10800D01*
X27990Y10723D01*
X27979Y10640D01*
X27990Y10557D01*
X28022Y10480D01*
X28073Y10413D01*
X28140Y10362D01*
X28217Y10330D01*
X28300Y10319D01*
X28383Y10330D01*
X28460Y10362D01*
X28481Y10378D01*
X28526Y10356D01*
X28524Y8720D01*
X30950D01*
Y9926D01*
X31000Y9943D01*
X31023Y9913D01*
X31090Y9862D01*
X31167Y9830D01*
X31250Y9819D01*
X31333Y9830D01*
X31410Y9862D01*
X31477Y9913D01*
X31528Y9980D01*
X31560Y10057D01*
X31571Y10140D01*
X31560Y10223D01*
X31528Y10300D01*
X31485Y10357D01*
X31518Y10400D01*
X31550Y10477D01*
X31561Y10560D01*
X31550Y10643D01*
X31518Y10720D01*
X31467Y10787D01*
X31400Y10838D01*
X31323Y10870D01*
X31240Y10881D01*
X31157Y10870D01*
X31080Y10838D01*
X31013Y10787D01*
X31000Y10770D01*
X30950Y10787D01*
Y10920D01*
X28526D01*
X28526Y10920D01*
Y10920D01*
X28485Y10899D01*
X28460Y10918D01*
X28383Y10950D01*
X28300Y10961D01*
D02*
G37*
G36*
X27852Y10283D02*
X27769Y10272D01*
X27692Y10240D01*
X27626Y10189D01*
X27575Y10123D01*
X27543Y10046D01*
X27532Y9962D01*
X27543Y9879D01*
X27575Y9802D01*
X27626Y9736D01*
X27692Y9685D01*
X27769Y9653D01*
X27852Y9642D01*
X27936Y9653D01*
X28013Y9685D01*
X28079Y9736D01*
X28130Y9802D01*
X28162Y9879D01*
X28173Y9962D01*
X28162Y10046D01*
X28130Y10123D01*
X28079Y10189D01*
X28013Y10240D01*
X27936Y10272D01*
X27852Y10283D01*
D02*
G37*
G36*
X21850Y10071D02*
X21767Y10060D01*
X21690Y10028D01*
X21623Y9977D01*
X21572Y9910D01*
X21540Y9833D01*
X21529Y9750D01*
X21540Y9667D01*
X21572Y9590D01*
X21623Y9523D01*
X21690Y9472D01*
X21767Y9440D01*
X21850Y9429D01*
X21933Y9440D01*
X22010Y9472D01*
X22077Y9523D01*
X22128Y9590D01*
X22160Y9667D01*
X22171Y9750D01*
X22160Y9833D01*
X22128Y9910D01*
X22077Y9977D01*
X22010Y10028D01*
X21933Y10060D01*
X21850Y10071D01*
D02*
G37*
G36*
X34742Y10043D02*
X34659Y10032D01*
X34582Y10000D01*
X34515Y9949D01*
X34464Y9883D01*
X34432Y9805D01*
X34421Y9722D01*
X34432Y9639D01*
X34464Y9562D01*
X34515Y9495D01*
X34582Y9444D01*
X34659Y9412D01*
X34742Y9402D01*
X34825Y9412D01*
X34903Y9444D01*
X34969Y9495D01*
X35020Y9562D01*
X35052Y9639D01*
X35063Y9722D01*
X35052Y9805D01*
X35020Y9883D01*
X34969Y9949D01*
X34903Y10000D01*
X34825Y10032D01*
X34742Y10043D01*
D02*
G37*
G36*
X31700Y9851D02*
X31617Y9840D01*
X31540Y9808D01*
X31473Y9757D01*
X31422Y9690D01*
X31390Y9613D01*
X31379Y9530D01*
X31390Y9447D01*
X31422Y9370D01*
X31473Y9303D01*
X31540Y9252D01*
X31617Y9220D01*
X31700Y9209D01*
X31783Y9220D01*
X31860Y9252D01*
X31927Y9303D01*
X31978Y9370D01*
X32010Y9447D01*
X32021Y9530D01*
X32010Y9613D01*
X31978Y9690D01*
X31927Y9757D01*
X31860Y9808D01*
X31783Y9840D01*
X31700Y9851D01*
D02*
G37*
G36*
X25590Y10351D02*
X25507Y10340D01*
X25430Y10308D01*
X25363Y10257D01*
X25312Y10190D01*
X25280Y10113D01*
X25269Y10030D01*
X25280Y9947D01*
X25312Y9870D01*
X25330Y9846D01*
X25313Y9786D01*
X25270Y9768D01*
X25203Y9717D01*
X25152Y9650D01*
X25120Y9573D01*
X25109Y9490D01*
X25120Y9407D01*
X25152Y9330D01*
X25203Y9263D01*
X25270Y9212D01*
X25347Y9180D01*
X25430Y9169D01*
X25513Y9180D01*
X25590Y9212D01*
X25618Y9233D01*
X25674Y9190D01*
X25746Y9160D01*
X25824Y9150D01*
X25902Y9160D01*
X25975Y9190D01*
X26037Y9238D01*
X26085Y9301D01*
X26115Y9373D01*
X26125Y9451D01*
X26115Y9529D01*
X26085Y9602D01*
X26037Y9664D01*
X25975Y9712D01*
X25902Y9742D01*
X25831Y9751D01*
X25821Y9771D01*
X25815Y9801D01*
X25817Y9803D01*
X25868Y9870D01*
X25900Y9947D01*
X25911Y10030D01*
X25900Y10113D01*
X25868Y10190D01*
X25817Y10257D01*
X25750Y10308D01*
X25673Y10340D01*
X25590Y10351D01*
D02*
G37*
G36*
X26460Y10231D02*
X26377Y10220D01*
X26300Y10188D01*
X26233Y10137D01*
X26182Y10070D01*
X26150Y9993D01*
X26139Y9910D01*
X26150Y9827D01*
X26182Y9750D01*
X26233Y9683D01*
X26276Y9650D01*
X26297Y9611D01*
X26293Y9581D01*
X26272Y9529D01*
X26261Y9451D01*
X26272Y9373D01*
X26302Y9301D01*
X26328Y9267D01*
X26302Y9233D01*
X26272Y9160D01*
X26261Y9082D01*
X26265Y9055D01*
X26220Y9010D01*
X26193Y9014D01*
X26115Y9004D01*
X26043Y8974D01*
X26009Y8947D01*
X25975Y8974D01*
X25902Y9004D01*
X25824Y9014D01*
X25746Y9004D01*
X25674Y8974D01*
X25611Y8926D01*
X25563Y8863D01*
X25533Y8791D01*
X25523Y8713D01*
X25533Y8635D01*
X25563Y8562D01*
X25611Y8500D01*
X25674Y8452D01*
X25746Y8422D01*
X25824Y8412D01*
X25902Y8422D01*
X25975Y8452D01*
X26009Y8478D01*
X26043Y8452D01*
X26115Y8422D01*
X26193Y8412D01*
X26220Y8416D01*
X26265Y8371D01*
X26261Y8344D01*
X26272Y8266D01*
X26302Y8193D01*
X26328Y8159D01*
X26302Y8125D01*
X26272Y8053D01*
X26261Y7975D01*
X26272Y7897D01*
X26302Y7824D01*
X26349Y7762D01*
X26356Y7757D01*
X26331Y7694D01*
X26320Y7611D01*
X26331Y7528D01*
X26363Y7451D01*
X26414Y7384D01*
X26480Y7333D01*
X26557Y7301D01*
X26641Y7290D01*
X26724Y7301D01*
X26801Y7333D01*
X26867Y7384D01*
X26918Y7451D01*
X26950Y7528D01*
X26961Y7611D01*
X26950Y7694D01*
X26918Y7772D01*
X26867Y7838D01*
X26838Y7861D01*
X26853Y7897D01*
X26863Y7975D01*
X26853Y8053D01*
X26823Y8125D01*
X26797Y8159D01*
X26823Y8193D01*
X26853Y8266D01*
X26863Y8344D01*
X26860Y8371D01*
X26904Y8416D01*
X26931Y8412D01*
X27009Y8422D01*
X27082Y8452D01*
X27116Y8478D01*
X27150Y8452D01*
X27223Y8422D01*
X27300Y8412D01*
X27378Y8422D01*
X27451Y8452D01*
X27513Y8500D01*
X27561Y8562D01*
X27591Y8635D01*
X27601Y8713D01*
X27591Y8791D01*
X27561Y8863D01*
X27513Y8926D01*
X27451Y8974D01*
X27378Y9004D01*
X27300Y9014D01*
X27223Y9004D01*
X27150Y8974D01*
X27116Y8947D01*
X27082Y8974D01*
X27009Y9004D01*
X26931Y9014D01*
X26904Y9010D01*
X26860Y9055D01*
X26863Y9082D01*
X26853Y9160D01*
X26823Y9233D01*
X26797Y9267D01*
X26823Y9301D01*
X26853Y9373D01*
X26863Y9451D01*
X26853Y9529D01*
X26823Y9602D01*
X26775Y9664D01*
X26713Y9712D01*
X26712Y9716D01*
X26738Y9750D01*
X26770Y9827D01*
X26781Y9910D01*
X26770Y9993D01*
X26738Y10070D01*
X26687Y10137D01*
X26620Y10188D01*
X26543Y10220D01*
X26460Y10231D01*
D02*
G37*
G36*
X27300Y9752D02*
X27223Y9742D01*
X27150Y9712D01*
X27088Y9664D01*
X27040Y9602D01*
X27010Y9529D01*
X26999Y9451D01*
X27010Y9373D01*
X27040Y9301D01*
X27088Y9238D01*
X27150Y9190D01*
X27223Y9160D01*
X27300Y9150D01*
X27378Y9160D01*
X27451Y9190D01*
X27513Y9238D01*
X27561Y9301D01*
X27606Y9281D01*
X27597Y9208D01*
X27608Y9125D01*
X27640Y9047D01*
X27691Y8981D01*
X27757Y8930D01*
X27835Y8898D01*
X27918Y8887D01*
X28001Y8898D01*
X28078Y8930D01*
X28145Y8981D01*
X28196Y9047D01*
X28228Y9125D01*
X28239Y9208D01*
X28228Y9291D01*
X28196Y9368D01*
X28145Y9435D01*
X28078Y9486D01*
X28001Y9518D01*
X27918Y9529D01*
X27835Y9518D01*
X27757Y9486D01*
X27691Y9435D01*
X27640Y9368D01*
X27593Y9385D01*
X27601Y9451D01*
X27591Y9529D01*
X27561Y9602D01*
X27513Y9664D01*
X27451Y9712D01*
X27378Y9742D01*
X27300Y9752D01*
D02*
G37*
G36*
X22100Y9042D02*
Y8880D01*
X22262D01*
X22255Y8915D01*
X22207Y8987D01*
X22135Y9035D01*
X22100Y9042D01*
D02*
G37*
G36*
X22000D02*
X21965Y9035D01*
X21893Y8987D01*
X21845Y8915D01*
X21838Y8880D01*
X22000D01*
Y9042D01*
D02*
G37*
G36*
X22810Y9451D02*
X22727Y9440D01*
X22650Y9408D01*
X22583Y9357D01*
X22532Y9290D01*
X22500Y9213D01*
X22489Y9130D01*
X22500Y9047D01*
X22532Y8970D01*
X22583Y8903D01*
X22650Y8852D01*
X22727Y8820D01*
X22810Y8809D01*
X22893Y8820D01*
X22970Y8852D01*
X23037Y8903D01*
X23088Y8970D01*
X23120Y9047D01*
X23131Y9130D01*
X23120Y9213D01*
X23088Y9290D01*
X23037Y9357D01*
X22970Y9408D01*
X22893Y9440D01*
X22810Y9451D01*
D02*
G37*
G36*
X22262Y8780D02*
X22100D01*
Y8618D01*
X22135Y8625D01*
X22207Y8673D01*
X22255Y8745D01*
X22262Y8780D01*
D02*
G37*
G36*
X22000D02*
X21838D01*
X21845Y8745D01*
X21893Y8673D01*
X21965Y8625D01*
X22000Y8618D01*
Y8780D01*
D02*
G37*
G36*
X32010Y8631D02*
X31927Y8620D01*
X31850Y8588D01*
X31783Y8537D01*
X31732Y8470D01*
X31700Y8393D01*
X31689Y8310D01*
X31700Y8227D01*
X31732Y8150D01*
X31783Y8083D01*
X31850Y8032D01*
X31927Y8000D01*
X32010Y7989D01*
X32093Y8000D01*
X32170Y8032D01*
X32237Y8083D01*
X32288Y8150D01*
X32320Y8227D01*
X32331Y8310D01*
X32320Y8393D01*
X32288Y8470D01*
X32237Y8537D01*
X32170Y8588D01*
X32093Y8620D01*
X32010Y8631D01*
D02*
G37*
G36*
X27910Y8611D02*
X27827Y8600D01*
X27750Y8568D01*
X27683Y8517D01*
X27632Y8450D01*
X27600Y8373D01*
X27589Y8290D01*
X27600Y8207D01*
X27632Y8130D01*
X27683Y8063D01*
X27750Y8012D01*
X27827Y7980D01*
X27910Y7969D01*
X27993Y7980D01*
X28070Y8012D01*
X28137Y8063D01*
X28188Y8130D01*
X28220Y8207D01*
X28231Y8290D01*
X28220Y8373D01*
X28188Y8450D01*
X28137Y8517D01*
X28070Y8568D01*
X27993Y8600D01*
X27910Y8611D01*
D02*
G37*
G36*
X35250Y8011D02*
X35167Y8000D01*
X35090Y7968D01*
X35046Y7935D01*
X35010Y7922D01*
X34974Y7935D01*
X34930Y7968D01*
X34853Y8000D01*
X34770Y8011D01*
X34687Y8000D01*
X34610Y7968D01*
X34543Y7917D01*
X34492Y7850D01*
X34460Y7773D01*
X34449Y7690D01*
X34460Y7607D01*
X34492Y7530D01*
X34543Y7463D01*
X34610Y7412D01*
X34687Y7380D01*
X34770Y7369D01*
X34853Y7380D01*
X34930Y7412D01*
X34974Y7445D01*
X35010Y7458D01*
X35046Y7445D01*
X35090Y7412D01*
X35167Y7380D01*
X35250Y7369D01*
X35333Y7380D01*
X35410Y7412D01*
X35477Y7463D01*
X35528Y7530D01*
X35560Y7607D01*
X35571Y7690D01*
X35560Y7773D01*
X35528Y7850D01*
X35477Y7917D01*
X35410Y7968D01*
X35333Y8000D01*
X35250Y8011D01*
D02*
G37*
G36*
X30170Y8418D02*
X30087Y8407D01*
X30010Y8375D01*
X29943Y8324D01*
X29892Y8257D01*
X29860Y8180D01*
X29849Y8097D01*
X29860Y8014D01*
X29892Y7937D01*
X29943Y7870D01*
X30010Y7819D01*
X30087Y7787D01*
X30170Y7776D01*
X30253Y7787D01*
X30319Y7814D01*
X30395Y7783D01*
X30478Y7772D01*
X30561Y7783D01*
X30638Y7815D01*
X30705Y7866D01*
X30756Y7933D01*
X30788Y8010D01*
X30799Y8093D01*
X30788Y8176D01*
X30756Y8254D01*
X30705Y8320D01*
X30638Y8371D01*
X30561Y8403D01*
X30478Y8414D01*
X30395Y8403D01*
X30329Y8376D01*
X30253Y8407D01*
X30170Y8418D01*
D02*
G37*
G36*
X34160Y7902D02*
Y7740D01*
X34322D01*
X34315Y7775D01*
X34267Y7847D01*
X34195Y7895D01*
X34160Y7902D01*
D02*
G37*
G36*
X34060D02*
X34025Y7895D01*
X33953Y7847D01*
X33905Y7775D01*
X33898Y7740D01*
X34060D01*
Y7902D01*
D02*
G37*
G36*
X27300Y8276D02*
X27223Y8266D01*
X27150Y8235D01*
X27088Y8188D01*
X27040Y8125D01*
X27010Y8053D01*
X26999Y7975D01*
X27010Y7897D01*
X27040Y7824D01*
X27088Y7762D01*
X27150Y7714D01*
X27223Y7684D01*
X27300Y7674D01*
X27378Y7684D01*
X27451Y7714D01*
X27513Y7762D01*
X27561Y7824D01*
X27591Y7897D01*
X27601Y7975D01*
X27591Y8053D01*
X27561Y8125D01*
X27513Y8188D01*
X27451Y8235D01*
X27378Y8266D01*
X27300Y8276D01*
D02*
G37*
G36*
X25824D02*
X25746Y8266D01*
X25674Y8235D01*
X25611Y8188D01*
X25563Y8125D01*
X25533Y8053D01*
X25523Y7975D01*
X25533Y7897D01*
X25563Y7824D01*
X25611Y7762D01*
X25674Y7714D01*
X25746Y7684D01*
X25824Y7674D01*
X25902Y7684D01*
X25975Y7714D01*
X26037Y7762D01*
X26085Y7824D01*
X26115Y7897D01*
X26125Y7975D01*
X26115Y8053D01*
X26085Y8125D01*
X26037Y8188D01*
X25975Y8235D01*
X25902Y8266D01*
X25824Y8276D01*
D02*
G37*
G36*
X37068Y8509D02*
X36985Y8498D01*
X36907Y8466D01*
X36841Y8415D01*
X36790Y8348D01*
X36758Y8271D01*
X36753Y8235D01*
X36717Y8230D01*
X36640Y8198D01*
X36573Y8147D01*
X36522Y8080D01*
X36490Y8003D01*
X36479Y7920D01*
X36490Y7837D01*
X36522Y7760D01*
X36573Y7693D01*
X36640Y7642D01*
X36717Y7610D01*
X36800Y7599D01*
X36883Y7610D01*
X36960Y7642D01*
X37027Y7693D01*
X37078Y7760D01*
X37110Y7837D01*
X37115Y7873D01*
X37151Y7878D01*
X37228Y7910D01*
X37295Y7961D01*
X37346Y8027D01*
X37378Y8105D01*
X37389Y8188D01*
X37378Y8271D01*
X37346Y8348D01*
X37295Y8415D01*
X37228Y8466D01*
X37151Y8498D01*
X37068Y8509D01*
D02*
G37*
G36*
X34322Y7640D02*
X33898D01*
X33905Y7605D01*
X33941Y7550D01*
X33905Y7495D01*
X33898Y7460D01*
X34322D01*
X34315Y7495D01*
X34279Y7550D01*
X34315Y7605D01*
X34322Y7640D01*
D02*
G37*
G36*
Y7360D02*
X34160D01*
Y7198D01*
X34195Y7205D01*
X34267Y7253D01*
X34315Y7325D01*
X34322Y7360D01*
D02*
G37*
G36*
X34060D02*
X33898D01*
X33905Y7325D01*
X33953Y7253D01*
X34025Y7205D01*
X34060Y7198D01*
Y7360D01*
D02*
G37*
G36*
X28950Y7981D02*
X28867Y7970D01*
X28790Y7938D01*
X28723Y7887D01*
X28672Y7820D01*
X28640Y7743D01*
X28629Y7660D01*
X28640Y7577D01*
X28672Y7500D01*
X28723Y7433D01*
X28785Y7386D01*
X28785Y7385D01*
X28786Y7363D01*
X28779Y7332D01*
X28720Y7307D01*
X28653Y7256D01*
X28602Y7190D01*
X28570Y7113D01*
X28559Y7029D01*
X28570Y6946D01*
X28602Y6869D01*
X28653Y6803D01*
X28720Y6752D01*
X28797Y6720D01*
X28880Y6709D01*
X28963Y6720D01*
X29040Y6752D01*
X29107Y6803D01*
X29158Y6869D01*
X29190Y6946D01*
X29201Y7029D01*
X29190Y7113D01*
X29189Y7114D01*
X29233Y7140D01*
X29253Y7113D01*
X29320Y7062D01*
X29397Y7030D01*
X29480Y7019D01*
X29563Y7030D01*
X29640Y7062D01*
X29707Y7113D01*
X29758Y7180D01*
X29790Y7257D01*
X29801Y7340D01*
X29790Y7423D01*
X29758Y7500D01*
X29707Y7567D01*
X29640Y7618D01*
X29563Y7650D01*
X29480Y7661D01*
X29397Y7650D01*
X29320Y7618D01*
X29315Y7615D01*
X29268Y7642D01*
X29271Y7660D01*
X29260Y7743D01*
X29228Y7820D01*
X29177Y7887D01*
X29110Y7938D01*
X29033Y7970D01*
X28950Y7981D01*
D02*
G37*
G36*
X21242Y6776D02*
Y6614D01*
X21405D01*
X21398Y6649D01*
X21349Y6721D01*
X21277Y6769D01*
X21242Y6776D01*
D02*
G37*
G36*
X34160Y6886D02*
Y6590D01*
X34456D01*
X34451Y6631D01*
X34416Y6717D01*
X34360Y6790D01*
X34287Y6846D01*
X34201Y6881D01*
X34160Y6886D01*
D02*
G37*
G36*
X34060D02*
X34019Y6881D01*
X33933Y6846D01*
X33860Y6790D01*
X33804Y6717D01*
X33769Y6631D01*
X33764Y6590D01*
X34060D01*
Y6886D01*
D02*
G37*
G36*
X31060Y6662D02*
X31025Y6655D01*
X30953Y6607D01*
X30905Y6535D01*
X30898Y6500D01*
X31060D01*
Y6662D01*
D02*
G37*
G36*
X27106Y6612D02*
X27071Y6605D01*
X26999Y6557D01*
X26951Y6485D01*
X26944Y6450D01*
X27106D01*
Y6612D01*
D02*
G37*
G36*
X32970Y7071D02*
X32887Y7060D01*
X32810Y7028D01*
X32743Y6977D01*
X32692Y6910D01*
X32660Y6833D01*
X32649Y6750D01*
X32660Y6667D01*
X32692Y6590D01*
X32743Y6523D01*
X32810Y6472D01*
X32887Y6440D01*
X32970Y6429D01*
X33053Y6440D01*
X33130Y6472D01*
X33197Y6523D01*
X33248Y6590D01*
X33280Y6667D01*
X33291Y6750D01*
X33280Y6833D01*
X33248Y6910D01*
X33197Y6977D01*
X33130Y7028D01*
X33053Y7060D01*
X32970Y7071D01*
D02*
G37*
G36*
X19097Y10799D02*
X18935D01*
Y10636D01*
X18970Y10643D01*
X19042Y10692D01*
X19090Y10764D01*
X19097Y10799D01*
D02*
G37*
G36*
X18517D02*
X18355D01*
X18362Y10764D01*
X18410Y10692D01*
X18482Y10643D01*
X18517Y10636D01*
Y10799D01*
D02*
G37*
G36*
X16857Y10498D02*
Y10335D01*
X17020D01*
X17013Y10371D01*
X16964Y10443D01*
X16892Y10491D01*
X16857Y10498D01*
D02*
G37*
G36*
X16757D02*
X16722Y10491D01*
X16650Y10443D01*
X16602Y10371D01*
X16595Y10335D01*
X16757D01*
Y10498D01*
D02*
G37*
G36*
X17020Y10235D02*
X16857D01*
Y10073D01*
X16892Y10080D01*
X16964Y10128D01*
X17013Y10200D01*
X17020Y10235D01*
D02*
G37*
G36*
X16757D02*
X16595D01*
X16602Y10200D01*
X16650Y10128D01*
X16722Y10080D01*
X16757Y10073D01*
Y10235D01*
D02*
G37*
G36*
X16907Y9958D02*
Y9795D01*
X17070D01*
X17063Y9831D01*
X17014Y9903D01*
X16942Y9951D01*
X16907Y9958D01*
D02*
G37*
G36*
X16807D02*
X16772Y9951D01*
X16700Y9903D01*
X16652Y9831D01*
X16645Y9795D01*
X16807D01*
Y9958D01*
D02*
G37*
G36*
X17070Y9695D02*
X16907D01*
Y9533D01*
X16942Y9540D01*
X17014Y9588D01*
X17063Y9660D01*
X17070Y9695D01*
D02*
G37*
G36*
X16807D02*
X16645D01*
X16652Y9660D01*
X16700Y9588D01*
X16772Y9540D01*
X16807Y9533D01*
Y9695D01*
D02*
G37*
G36*
X19911Y9910D02*
X19828Y9899D01*
X19751Y9867D01*
X19684Y9816D01*
X19633Y9749D01*
X19601Y9672D01*
X19590Y9589D01*
X19601Y9506D01*
X19633Y9428D01*
X19684Y9362D01*
X19751Y9311D01*
X19828Y9279D01*
X19911Y9268D01*
X19994Y9279D01*
X20072Y9311D01*
X20138Y9362D01*
X20189Y9428D01*
X20221Y9506D01*
X20232Y9589D01*
X20221Y9672D01*
X20189Y9749D01*
X20138Y9816D01*
X20072Y9867D01*
X19994Y9899D01*
X19911Y9910D01*
D02*
G37*
G36*
X18177Y9800D02*
X18094Y9789D01*
X18017Y9757D01*
X17950Y9706D01*
X17899Y9639D01*
X17867Y9562D01*
X17856Y9479D01*
X17867Y9396D01*
X17898Y9322D01*
X17869Y9253D01*
X17858Y9170D01*
X17869Y9087D01*
X17901Y9009D01*
X17952Y8943D01*
X18019Y8892D01*
X18096Y8860D01*
X18179Y8849D01*
X18262Y8860D01*
X18340Y8892D01*
X18406Y8943D01*
X18457Y9009D01*
X18489Y9087D01*
X18500Y9170D01*
X18489Y9253D01*
X18459Y9327D01*
X18487Y9396D01*
X18498Y9479D01*
X18487Y9562D01*
X18455Y9639D01*
X18404Y9706D01*
X18338Y9757D01*
X18260Y9789D01*
X18177Y9800D01*
D02*
G37*
G36*
X16247Y8920D02*
X16169Y8910D01*
X16097Y8879D01*
X16034Y8832D01*
X15987Y8769D01*
X15956Y8697D01*
X15946Y8619D01*
X15956Y8541D01*
X15961Y8530D01*
X15923Y8492D01*
X15912Y8496D01*
X15834Y8506D01*
X15756Y8496D01*
X15683Y8466D01*
X15621Y8418D01*
X15573Y8356D01*
X15543Y8283D01*
X15533Y8205D01*
X15543Y8128D01*
X15573Y8055D01*
X15621Y7993D01*
X15683Y7945D01*
X15756Y7915D01*
X15834Y7904D01*
X15912Y7915D01*
X15923Y7919D01*
X15961Y7881D01*
X15956Y7870D01*
X15946Y7792D01*
X15956Y7714D01*
X15987Y7642D01*
X16034Y7579D01*
X16097Y7531D01*
X16169Y7501D01*
X16247Y7491D01*
X16325Y7501D01*
X16398Y7531D01*
X16460Y7579D01*
X16508Y7642D01*
X16538Y7714D01*
X16548Y7792D01*
X16538Y7870D01*
X16533Y7881D01*
X16572Y7919D01*
X16583Y7915D01*
X16661Y7904D01*
X16739Y7915D01*
X16811Y7945D01*
X16873Y7993D01*
X16921Y8055D01*
X16951Y8128D01*
X16962Y8205D01*
X16951Y8283D01*
X16921Y8356D01*
X16873Y8418D01*
X16811Y8466D01*
X16739Y8496D01*
X16661Y8506D01*
X16583Y8496D01*
X16572Y8492D01*
X16533Y8530D01*
X16538Y8541D01*
X16548Y8619D01*
X16538Y8697D01*
X16508Y8769D01*
X16460Y8832D01*
X16398Y8879D01*
X16325Y8910D01*
X16247Y8920D01*
D02*
G37*
G36*
X19407Y8541D02*
Y8379D01*
X19570D01*
X19563Y8414D01*
X19514Y8486D01*
X19442Y8534D01*
X19407Y8541D01*
D02*
G37*
G36*
X19307D02*
X19272Y8534D01*
X19200Y8486D01*
X19152Y8414D01*
X19145Y8379D01*
X19307D01*
Y8541D01*
D02*
G37*
G36*
X19570Y8279D02*
X19407D01*
Y8116D01*
X19442Y8123D01*
X19514Y8172D01*
X19563Y8244D01*
X19570Y8279D01*
D02*
G37*
G36*
X19307D02*
X19145D01*
X19152Y8244D01*
X19200Y8172D01*
X19272Y8123D01*
X19307Y8116D01*
Y8279D01*
D02*
G37*
G36*
X18910Y8172D02*
Y8010D01*
X19072D01*
X19065Y8045D01*
X19017Y8117D01*
X18945Y8165D01*
X18910Y8172D01*
D02*
G37*
G36*
X18810D02*
X18775Y8165D01*
X18703Y8117D01*
X18655Y8045D01*
X18648Y8010D01*
X18810D01*
Y8172D01*
D02*
G37*
G36*
X19072Y7910D02*
X18910D01*
Y7748D01*
X18945Y7755D01*
X19017Y7803D01*
X19065Y7875D01*
X19072Y7910D01*
D02*
G37*
G36*
X18810D02*
X18648D01*
X18655Y7875D01*
X18703Y7803D01*
X18775Y7755D01*
X18810Y7748D01*
Y7910D01*
D02*
G37*
G36*
X20157Y8670D02*
X20074Y8659D01*
X19997Y8627D01*
X19930Y8576D01*
X19879Y8509D01*
X19847Y8432D01*
X19836Y8349D01*
X19847Y8266D01*
X19879Y8188D01*
X19896Y8166D01*
X19879Y8145D01*
X19847Y8067D01*
X19836Y7984D01*
X19847Y7901D01*
X19879Y7824D01*
X19930Y7757D01*
X19997Y7706D01*
X20074Y7674D01*
X20157Y7663D01*
X20240Y7674D01*
X20318Y7706D01*
X20384Y7757D01*
X20435Y7824D01*
X20467Y7901D01*
X20478Y7984D01*
X20467Y8067D01*
X20435Y8145D01*
X20418Y8166D01*
X20435Y8188D01*
X20467Y8266D01*
X20478Y8349D01*
X20467Y8432D01*
X20435Y8509D01*
X20384Y8576D01*
X20318Y8627D01*
X20240Y8659D01*
X20157Y8670D01*
D02*
G37*
G36*
X18795Y6781D02*
Y6619D01*
X18957D01*
X18950Y6654D01*
X18902Y6726D01*
X18830Y6774D01*
X18795Y6781D01*
D02*
G37*
G36*
X18377D02*
X18342Y6774D01*
X18270Y6726D01*
X18222Y6654D01*
X18215Y6619D01*
X18377D01*
Y6781D01*
D02*
G37*
G36*
X21545Y4744D02*
X21382D01*
Y4581D01*
X21417Y4588D01*
X21489Y4637D01*
X21538Y4709D01*
X21545Y4744D01*
D02*
G37*
G36*
X24830Y4602D02*
Y4440D01*
X24992D01*
X24985Y4475D01*
X24937Y4547D01*
X24865Y4595D01*
X24830Y4602D01*
D02*
G37*
G36*
X24730D02*
X24695Y4595D01*
X24623Y4547D01*
X24575Y4475D01*
X24568Y4440D01*
X24730D01*
Y4602D01*
D02*
G37*
G36*
X24992Y4340D02*
X24830D01*
Y4178D01*
X24865Y4185D01*
X24937Y4233D01*
X24985Y4305D01*
X24992Y4340D01*
D02*
G37*
G36*
X24730D02*
X24568D01*
X24575Y4305D01*
X24623Y4233D01*
X24695Y4185D01*
X24730Y4178D01*
Y4340D01*
D02*
G37*
G36*
X35550Y4531D02*
X35467Y4520D01*
X35390Y4488D01*
X35323Y4437D01*
X35272Y4370D01*
X35240Y4293D01*
X35229Y4210D01*
X35240Y4127D01*
X35272Y4050D01*
X35323Y3983D01*
X35390Y3932D01*
X35467Y3900D01*
X35550Y3889D01*
X35633Y3900D01*
X35710Y3932D01*
X35777Y3983D01*
X35828Y4050D01*
X35860Y4127D01*
X35871Y4210D01*
X35860Y4293D01*
X35828Y4370D01*
X35777Y4437D01*
X35710Y4488D01*
X35633Y4520D01*
X35550Y4531D01*
D02*
G37*
G36*
X33950Y4514D02*
X33833Y4498D01*
X33723Y4453D01*
X33629Y4381D01*
X33557Y4287D01*
X33512Y4177D01*
X33496Y4060D01*
X33512Y3943D01*
X33538Y3880D01*
X33507Y3840D01*
X33500Y3841D01*
X33417Y3830D01*
X33340Y3798D01*
X33273Y3747D01*
X33222Y3680D01*
X33190Y3603D01*
X33179Y3520D01*
X33190Y3437D01*
X33222Y3360D01*
X33273Y3293D01*
X33340Y3242D01*
X33417Y3210D01*
X33500Y3199D01*
X33583Y3210D01*
X33605Y3219D01*
X33607Y3214D01*
X33658Y3148D01*
X33725Y3097D01*
X33802Y3065D01*
X33885Y3054D01*
X33968Y3065D01*
X34046Y3097D01*
X34112Y3148D01*
X34163Y3214D01*
X34195Y3292D01*
X34206Y3375D01*
X34195Y3458D01*
X34163Y3535D01*
X34121Y3590D01*
X34127Y3646D01*
X34177Y3667D01*
X34271Y3739D01*
X34343Y3833D01*
X34388Y3943D01*
X34404Y4060D01*
X34388Y4177D01*
X34343Y4287D01*
X34271Y4381D01*
X34177Y4453D01*
X34067Y4498D01*
X33950Y4514D01*
D02*
G37*
G36*
X28300Y4911D02*
X28217Y4900D01*
X28140Y4868D01*
X28073Y4817D01*
X28022Y4750D01*
X27990Y4673D01*
X27979Y4590D01*
X27990Y4507D01*
X28022Y4430D01*
X28073Y4363D01*
X28140Y4312D01*
X28217Y4280D01*
X28300Y4269D01*
X28383Y4280D01*
X28460Y4312D01*
X28481Y4328D01*
X28526Y4306D01*
X28524Y2670D01*
X30950D01*
Y3876D01*
X31000Y3893D01*
X31023Y3863D01*
X31090Y3812D01*
X31167Y3780D01*
X31250Y3769D01*
X31333Y3780D01*
X31410Y3812D01*
X31477Y3863D01*
X31528Y3930D01*
X31560Y4007D01*
X31571Y4090D01*
X31560Y4173D01*
X31528Y4250D01*
X31485Y4307D01*
X31518Y4350D01*
X31550Y4427D01*
X31561Y4510D01*
X31550Y4593D01*
X31518Y4670D01*
X31467Y4737D01*
X31400Y4788D01*
X31323Y4820D01*
X31240Y4831D01*
X31157Y4820D01*
X31080Y4788D01*
X31013Y4737D01*
X31000Y4720D01*
X30950Y4737D01*
Y4870D01*
X28526D01*
X28526Y4870D01*
Y4870D01*
X28485Y4849D01*
X28460Y4868D01*
X28383Y4900D01*
X28300Y4911D01*
D02*
G37*
G36*
X27852Y4233D02*
X27769Y4222D01*
X27692Y4190D01*
X27626Y4139D01*
X27575Y4073D01*
X27543Y3996D01*
X27532Y3913D01*
X27543Y3829D01*
X27575Y3752D01*
X27626Y3686D01*
X27692Y3635D01*
X27769Y3603D01*
X27852Y3592D01*
X27936Y3603D01*
X28013Y3635D01*
X28079Y3686D01*
X28130Y3752D01*
X28162Y3829D01*
X28173Y3913D01*
X28162Y3996D01*
X28130Y4073D01*
X28079Y4139D01*
X28013Y4190D01*
X27936Y4222D01*
X27852Y4233D01*
D02*
G37*
G36*
X21850Y4021D02*
X21767Y4010D01*
X21690Y3978D01*
X21623Y3927D01*
X21572Y3860D01*
X21540Y3783D01*
X21529Y3700D01*
X21540Y3617D01*
X21572Y3540D01*
X21623Y3473D01*
X21690Y3422D01*
X21767Y3390D01*
X21850Y3379D01*
X21933Y3390D01*
X22010Y3422D01*
X22077Y3473D01*
X22128Y3540D01*
X22160Y3617D01*
X22171Y3700D01*
X22160Y3783D01*
X22128Y3860D01*
X22077Y3927D01*
X22010Y3978D01*
X21933Y4010D01*
X21850Y4021D01*
D02*
G37*
G36*
X34742Y3993D02*
X34659Y3982D01*
X34582Y3950D01*
X34515Y3899D01*
X34464Y3833D01*
X34432Y3755D01*
X34421Y3672D01*
X34432Y3589D01*
X34464Y3512D01*
X34515Y3445D01*
X34582Y3394D01*
X34659Y3362D01*
X34742Y3352D01*
X34825Y3362D01*
X34903Y3394D01*
X34969Y3445D01*
X35020Y3512D01*
X35052Y3589D01*
X35063Y3672D01*
X35052Y3755D01*
X35020Y3833D01*
X34969Y3899D01*
X34903Y3950D01*
X34825Y3982D01*
X34742Y3993D01*
D02*
G37*
G36*
X31700Y3801D02*
X31617Y3790D01*
X31540Y3758D01*
X31473Y3707D01*
X31422Y3640D01*
X31390Y3563D01*
X31379Y3480D01*
X31390Y3397D01*
X31422Y3320D01*
X31473Y3253D01*
X31540Y3202D01*
X31617Y3170D01*
X31700Y3159D01*
X31783Y3170D01*
X31860Y3202D01*
X31927Y3253D01*
X31978Y3320D01*
X32010Y3397D01*
X32021Y3480D01*
X32010Y3563D01*
X31978Y3640D01*
X31927Y3707D01*
X31860Y3758D01*
X31783Y3790D01*
X31700Y3801D01*
D02*
G37*
G36*
X25590Y4301D02*
X25507Y4290D01*
X25430Y4258D01*
X25363Y4207D01*
X25312Y4140D01*
X25280Y4063D01*
X25269Y3980D01*
X25280Y3897D01*
X25312Y3820D01*
X25330Y3796D01*
X25313Y3736D01*
X25270Y3718D01*
X25203Y3667D01*
X25152Y3600D01*
X25120Y3523D01*
X25109Y3440D01*
X25120Y3357D01*
X25152Y3280D01*
X25203Y3213D01*
X25270Y3162D01*
X25347Y3130D01*
X25430Y3119D01*
X25513Y3130D01*
X25590Y3162D01*
X25618Y3183D01*
X25674Y3140D01*
X25746Y3110D01*
X25824Y3100D01*
X25902Y3110D01*
X25975Y3140D01*
X26037Y3188D01*
X26085Y3251D01*
X26115Y3323D01*
X26125Y3401D01*
X26115Y3479D01*
X26085Y3552D01*
X26037Y3614D01*
X25975Y3662D01*
X25902Y3692D01*
X25831Y3701D01*
X25821Y3721D01*
X25815Y3751D01*
X25817Y3753D01*
X25868Y3820D01*
X25900Y3897D01*
X25911Y3980D01*
X25900Y4063D01*
X25868Y4140D01*
X25817Y4207D01*
X25750Y4258D01*
X25673Y4290D01*
X25590Y4301D01*
D02*
G37*
G36*
X26460Y4181D02*
X26377Y4170D01*
X26300Y4138D01*
X26233Y4087D01*
X26182Y4020D01*
X26150Y3943D01*
X26139Y3860D01*
X26150Y3777D01*
X26182Y3700D01*
X26233Y3633D01*
X26276Y3600D01*
X26297Y3561D01*
X26293Y3531D01*
X26272Y3479D01*
X26261Y3401D01*
X26272Y3323D01*
X26302Y3251D01*
X26328Y3217D01*
X26302Y3183D01*
X26272Y3110D01*
X26261Y3032D01*
X26265Y3005D01*
X26220Y2960D01*
X26193Y2964D01*
X26115Y2954D01*
X26043Y2924D01*
X26009Y2898D01*
X25975Y2924D01*
X25902Y2954D01*
X25824Y2964D01*
X25746Y2954D01*
X25674Y2924D01*
X25611Y2876D01*
X25563Y2813D01*
X25533Y2741D01*
X25523Y2663D01*
X25533Y2585D01*
X25563Y2512D01*
X25611Y2450D01*
X25674Y2402D01*
X25746Y2372D01*
X25824Y2362D01*
X25902Y2372D01*
X25975Y2402D01*
X26009Y2428D01*
X26043Y2402D01*
X26115Y2372D01*
X26193Y2362D01*
X26220Y2366D01*
X26265Y2321D01*
X26261Y2294D01*
X26272Y2216D01*
X26302Y2143D01*
X26328Y2109D01*
X26302Y2075D01*
X26272Y2003D01*
X26261Y1925D01*
X26272Y1847D01*
X26302Y1774D01*
X26349Y1712D01*
X26356Y1707D01*
X26331Y1644D01*
X26320Y1561D01*
X26331Y1478D01*
X26363Y1401D01*
X26414Y1334D01*
X26480Y1283D01*
X26557Y1251D01*
X26641Y1240D01*
X26724Y1251D01*
X26801Y1283D01*
X26867Y1334D01*
X26918Y1401D01*
X26950Y1478D01*
X26961Y1561D01*
X26950Y1644D01*
X26918Y1722D01*
X26867Y1788D01*
X26838Y1811D01*
X26853Y1847D01*
X26863Y1925D01*
X26853Y2003D01*
X26823Y2075D01*
X26797Y2109D01*
X26823Y2143D01*
X26853Y2216D01*
X26863Y2294D01*
X26860Y2321D01*
X26904Y2366D01*
X26931Y2362D01*
X27009Y2372D01*
X27082Y2402D01*
X27116Y2428D01*
X27150Y2402D01*
X27223Y2372D01*
X27300Y2362D01*
X27378Y2372D01*
X27451Y2402D01*
X27513Y2450D01*
X27561Y2512D01*
X27591Y2585D01*
X27601Y2663D01*
X27591Y2741D01*
X27561Y2813D01*
X27513Y2876D01*
X27451Y2924D01*
X27378Y2954D01*
X27300Y2964D01*
X27223Y2954D01*
X27150Y2924D01*
X27116Y2898D01*
X27082Y2924D01*
X27009Y2954D01*
X26931Y2964D01*
X26904Y2960D01*
X26860Y3005D01*
X26863Y3032D01*
X26853Y3110D01*
X26823Y3183D01*
X26797Y3217D01*
X26823Y3251D01*
X26853Y3323D01*
X26863Y3401D01*
X26853Y3479D01*
X26823Y3552D01*
X26775Y3614D01*
X26713Y3662D01*
X26712Y3666D01*
X26738Y3700D01*
X26770Y3777D01*
X26781Y3860D01*
X26770Y3943D01*
X26738Y4020D01*
X26687Y4087D01*
X26620Y4138D01*
X26543Y4170D01*
X26460Y4181D01*
D02*
G37*
G36*
X27300Y3702D02*
X27223Y3692D01*
X27150Y3662D01*
X27088Y3614D01*
X27040Y3552D01*
X27010Y3479D01*
X26999Y3401D01*
X27010Y3323D01*
X27040Y3251D01*
X27088Y3188D01*
X27150Y3140D01*
X27223Y3110D01*
X27300Y3100D01*
X27378Y3110D01*
X27451Y3140D01*
X27513Y3188D01*
X27561Y3251D01*
X27606Y3231D01*
X27597Y3158D01*
X27608Y3075D01*
X27640Y2997D01*
X27691Y2931D01*
X27757Y2880D01*
X27835Y2848D01*
X27918Y2837D01*
X28001Y2848D01*
X28078Y2880D01*
X28145Y2931D01*
X28196Y2997D01*
X28228Y3075D01*
X28239Y3158D01*
X28228Y3241D01*
X28196Y3318D01*
X28145Y3385D01*
X28078Y3436D01*
X28001Y3468D01*
X27918Y3479D01*
X27835Y3468D01*
X27757Y3436D01*
X27691Y3385D01*
X27640Y3318D01*
X27593Y3335D01*
X27601Y3401D01*
X27591Y3479D01*
X27561Y3552D01*
X27513Y3614D01*
X27451Y3662D01*
X27378Y3692D01*
X27300Y3702D01*
D02*
G37*
G36*
X22100Y2992D02*
Y2830D01*
X22262D01*
X22255Y2865D01*
X22207Y2937D01*
X22135Y2985D01*
X22100Y2992D01*
D02*
G37*
G36*
X22000D02*
X21965Y2985D01*
X21893Y2937D01*
X21845Y2865D01*
X21838Y2830D01*
X22000D01*
Y2992D01*
D02*
G37*
G36*
X22810Y3401D02*
X22727Y3390D01*
X22650Y3358D01*
X22583Y3307D01*
X22532Y3240D01*
X22500Y3163D01*
X22489Y3080D01*
X22500Y2997D01*
X22532Y2920D01*
X22583Y2853D01*
X22650Y2802D01*
X22727Y2770D01*
X22810Y2759D01*
X22893Y2770D01*
X22970Y2802D01*
X23037Y2853D01*
X23088Y2920D01*
X23120Y2997D01*
X23131Y3080D01*
X23120Y3163D01*
X23088Y3240D01*
X23037Y3307D01*
X22970Y3358D01*
X22893Y3390D01*
X22810Y3401D01*
D02*
G37*
G36*
X22262Y2730D02*
X22100D01*
Y2568D01*
X22135Y2575D01*
X22207Y2623D01*
X22255Y2695D01*
X22262Y2730D01*
D02*
G37*
G36*
X22000D02*
X21838D01*
X21845Y2695D01*
X21893Y2623D01*
X21965Y2575D01*
X22000Y2568D01*
Y2730D01*
D02*
G37*
G36*
X32010Y2581D02*
X31927Y2570D01*
X31850Y2538D01*
X31783Y2487D01*
X31732Y2420D01*
X31700Y2343D01*
X31689Y2260D01*
X31700Y2177D01*
X31732Y2100D01*
X31783Y2033D01*
X31850Y1982D01*
X31927Y1950D01*
X32010Y1939D01*
X32093Y1950D01*
X32170Y1982D01*
X32237Y2033D01*
X32288Y2100D01*
X32320Y2177D01*
X32331Y2260D01*
X32320Y2343D01*
X32288Y2420D01*
X32237Y2487D01*
X32170Y2538D01*
X32093Y2570D01*
X32010Y2581D01*
D02*
G37*
G36*
X27910Y2561D02*
X27827Y2550D01*
X27750Y2518D01*
X27683Y2467D01*
X27632Y2400D01*
X27600Y2323D01*
X27589Y2240D01*
X27600Y2157D01*
X27632Y2080D01*
X27683Y2013D01*
X27750Y1962D01*
X27827Y1930D01*
X27910Y1919D01*
X27993Y1930D01*
X28070Y1962D01*
X28137Y2013D01*
X28188Y2080D01*
X28220Y2157D01*
X28231Y2240D01*
X28220Y2323D01*
X28188Y2400D01*
X28137Y2467D01*
X28070Y2518D01*
X27993Y2550D01*
X27910Y2561D01*
D02*
G37*
G36*
X35250Y1961D02*
X35167Y1950D01*
X35090Y1918D01*
X35046Y1885D01*
X35010Y1872D01*
X34974Y1885D01*
X34930Y1918D01*
X34853Y1950D01*
X34770Y1961D01*
X34687Y1950D01*
X34610Y1918D01*
X34543Y1867D01*
X34492Y1800D01*
X34460Y1723D01*
X34449Y1640D01*
X34460Y1557D01*
X34492Y1480D01*
X34543Y1413D01*
X34610Y1362D01*
X34687Y1330D01*
X34770Y1319D01*
X34853Y1330D01*
X34930Y1362D01*
X34974Y1395D01*
X35010Y1408D01*
X35046Y1395D01*
X35090Y1362D01*
X35167Y1330D01*
X35250Y1319D01*
X35333Y1330D01*
X35410Y1362D01*
X35477Y1413D01*
X35528Y1480D01*
X35560Y1557D01*
X35571Y1640D01*
X35560Y1723D01*
X35528Y1800D01*
X35477Y1867D01*
X35410Y1918D01*
X35333Y1950D01*
X35250Y1961D01*
D02*
G37*
G36*
X30170Y2368D02*
X30087Y2357D01*
X30010Y2325D01*
X29943Y2274D01*
X29892Y2207D01*
X29860Y2130D01*
X29849Y2047D01*
X29860Y1964D01*
X29892Y1887D01*
X29943Y1820D01*
X30010Y1769D01*
X30087Y1737D01*
X30170Y1726D01*
X30253Y1737D01*
X30319Y1764D01*
X30395Y1733D01*
X30478Y1722D01*
X30561Y1733D01*
X30638Y1765D01*
X30705Y1816D01*
X30756Y1883D01*
X30788Y1960D01*
X30799Y2043D01*
X30788Y2126D01*
X30756Y2204D01*
X30705Y2270D01*
X30638Y2321D01*
X30561Y2353D01*
X30478Y2364D01*
X30395Y2353D01*
X30329Y2326D01*
X30253Y2357D01*
X30170Y2368D01*
D02*
G37*
G36*
X34160Y1852D02*
Y1690D01*
X34322D01*
X34315Y1725D01*
X34267Y1797D01*
X34195Y1845D01*
X34160Y1852D01*
D02*
G37*
G36*
X34060D02*
X34025Y1845D01*
X33953Y1797D01*
X33905Y1725D01*
X33898Y1690D01*
X34060D01*
Y1852D01*
D02*
G37*
G36*
X27300Y2226D02*
X27223Y2216D01*
X27150Y2185D01*
X27088Y2138D01*
X27040Y2075D01*
X27010Y2003D01*
X26999Y1925D01*
X27010Y1847D01*
X27040Y1774D01*
X27088Y1712D01*
X27150Y1664D01*
X27223Y1634D01*
X27300Y1624D01*
X27378Y1634D01*
X27451Y1664D01*
X27513Y1712D01*
X27561Y1774D01*
X27591Y1847D01*
X27601Y1925D01*
X27591Y2003D01*
X27561Y2075D01*
X27513Y2138D01*
X27451Y2185D01*
X27378Y2216D01*
X27300Y2226D01*
D02*
G37*
G36*
X25824D02*
X25746Y2216D01*
X25674Y2185D01*
X25611Y2138D01*
X25563Y2075D01*
X25533Y2003D01*
X25523Y1925D01*
X25533Y1847D01*
X25563Y1774D01*
X25611Y1712D01*
X25674Y1664D01*
X25746Y1634D01*
X25824Y1624D01*
X25902Y1634D01*
X25975Y1664D01*
X26037Y1712D01*
X26085Y1774D01*
X26115Y1847D01*
X26125Y1925D01*
X26115Y2003D01*
X26085Y2075D01*
X26037Y2138D01*
X25975Y2185D01*
X25902Y2216D01*
X25824Y2226D01*
D02*
G37*
G36*
X37068Y2459D02*
X36985Y2448D01*
X36907Y2416D01*
X36841Y2365D01*
X36790Y2298D01*
X36758Y2221D01*
X36753Y2185D01*
X36717Y2180D01*
X36640Y2148D01*
X36573Y2097D01*
X36522Y2030D01*
X36490Y1953D01*
X36479Y1870D01*
X36490Y1787D01*
X36522Y1710D01*
X36573Y1643D01*
X36640Y1592D01*
X36717Y1560D01*
X36800Y1549D01*
X36883Y1560D01*
X36960Y1592D01*
X37027Y1643D01*
X37078Y1710D01*
X37110Y1787D01*
X37115Y1823D01*
X37151Y1828D01*
X37228Y1860D01*
X37295Y1911D01*
X37346Y1977D01*
X37378Y2055D01*
X37389Y2138D01*
X37378Y2221D01*
X37346Y2298D01*
X37295Y2365D01*
X37228Y2416D01*
X37151Y2448D01*
X37068Y2459D01*
D02*
G37*
G36*
X34322Y1590D02*
X33898D01*
X33905Y1555D01*
X33941Y1500D01*
X33905Y1445D01*
X33898Y1410D01*
X34322D01*
X34315Y1445D01*
X34279Y1500D01*
X34315Y1555D01*
X34322Y1590D01*
D02*
G37*
G36*
Y1310D02*
X34160D01*
Y1148D01*
X34195Y1155D01*
X34267Y1203D01*
X34315Y1275D01*
X34322Y1310D01*
D02*
G37*
G36*
X34060D02*
X33898D01*
X33905Y1275D01*
X33953Y1203D01*
X34025Y1155D01*
X34060Y1148D01*
Y1310D01*
D02*
G37*
G36*
X28950Y1931D02*
X28867Y1920D01*
X28790Y1888D01*
X28723Y1837D01*
X28672Y1770D01*
X28640Y1693D01*
X28629Y1610D01*
X28640Y1527D01*
X28672Y1450D01*
X28723Y1383D01*
X28785Y1336D01*
X28785Y1335D01*
X28786Y1313D01*
X28779Y1282D01*
X28720Y1257D01*
X28653Y1206D01*
X28602Y1140D01*
X28570Y1063D01*
X28559Y979D01*
X28570Y896D01*
X28602Y819D01*
X28653Y753D01*
X28720Y702D01*
X28797Y670D01*
X28880Y659D01*
X28963Y670D01*
X29040Y702D01*
X29107Y753D01*
X29158Y819D01*
X29190Y896D01*
X29201Y979D01*
X29190Y1063D01*
X29189Y1064D01*
X29233Y1090D01*
X29253Y1063D01*
X29320Y1012D01*
X29397Y980D01*
X29480Y969D01*
X29563Y980D01*
X29640Y1012D01*
X29707Y1063D01*
X29758Y1130D01*
X29790Y1207D01*
X29801Y1290D01*
X29790Y1373D01*
X29758Y1450D01*
X29707Y1517D01*
X29640Y1568D01*
X29563Y1600D01*
X29480Y1611D01*
X29397Y1600D01*
X29320Y1568D01*
X29315Y1565D01*
X29268Y1592D01*
X29271Y1610D01*
X29260Y1693D01*
X29228Y1770D01*
X29177Y1837D01*
X29110Y1888D01*
X29033Y1920D01*
X28950Y1931D01*
D02*
G37*
G36*
X21242Y726D02*
Y564D01*
X21405D01*
X21398Y599D01*
X21349Y671D01*
X21277Y719D01*
X21242Y726D01*
D02*
G37*
G36*
X34160Y836D02*
Y540D01*
X34456D01*
X34451Y581D01*
X34416Y667D01*
X34360Y740D01*
X34287Y796D01*
X34201Y831D01*
X34160Y836D01*
D02*
G37*
G36*
X34060D02*
X34019Y831D01*
X33933Y796D01*
X33860Y740D01*
X33804Y667D01*
X33769Y581D01*
X33764Y540D01*
X34060D01*
Y836D01*
D02*
G37*
G36*
X31060Y612D02*
X31025Y605D01*
X30953Y557D01*
X30905Y485D01*
X30898Y450D01*
X31060D01*
Y612D01*
D02*
G37*
G36*
X27106Y562D02*
X27071Y555D01*
X26999Y507D01*
X26951Y435D01*
X26944Y400D01*
X27106D01*
Y562D01*
D02*
G37*
G36*
X32990Y991D02*
X32907Y980D01*
X32830Y948D01*
X32763Y897D01*
X32712Y830D01*
X32680Y753D01*
X32669Y670D01*
X32680Y587D01*
X32712Y510D01*
X32763Y443D01*
X32830Y392D01*
X32907Y360D01*
X32990Y349D01*
X33073Y360D01*
X33150Y392D01*
X33217Y443D01*
X33268Y510D01*
X33300Y587D01*
X33311Y670D01*
X33300Y753D01*
X33268Y830D01*
X33217Y897D01*
X33150Y948D01*
X33073Y980D01*
X32990Y991D01*
D02*
G37*
G36*
X19097Y4749D02*
X18935D01*
Y4586D01*
X18970Y4593D01*
X19042Y4642D01*
X19090Y4714D01*
X19097Y4749D01*
D02*
G37*
G36*
X18517D02*
X18355D01*
X18362Y4714D01*
X18410Y4642D01*
X18482Y4593D01*
X18517Y4586D01*
Y4749D01*
D02*
G37*
G36*
X16857Y4448D02*
Y4285D01*
X17020D01*
X17013Y4321D01*
X16964Y4393D01*
X16892Y4441D01*
X16857Y4448D01*
D02*
G37*
G36*
X16757D02*
X16722Y4441D01*
X16650Y4393D01*
X16602Y4321D01*
X16595Y4285D01*
X16757D01*
Y4448D01*
D02*
G37*
G36*
X17020Y4185D02*
X16857D01*
Y4023D01*
X16892Y4030D01*
X16964Y4078D01*
X17013Y4150D01*
X17020Y4185D01*
D02*
G37*
G36*
X16757D02*
X16595D01*
X16602Y4150D01*
X16650Y4078D01*
X16722Y4030D01*
X16757Y4023D01*
Y4185D01*
D02*
G37*
G36*
X16907Y3908D02*
Y3745D01*
X17070D01*
X17063Y3781D01*
X17014Y3853D01*
X16942Y3901D01*
X16907Y3908D01*
D02*
G37*
G36*
X16807D02*
X16772Y3901D01*
X16700Y3853D01*
X16652Y3781D01*
X16645Y3745D01*
X16807D01*
Y3908D01*
D02*
G37*
G36*
X17070Y3645D02*
X16907D01*
Y3483D01*
X16942Y3490D01*
X17014Y3538D01*
X17063Y3610D01*
X17070Y3645D01*
D02*
G37*
G36*
X16807D02*
X16645D01*
X16652Y3610D01*
X16700Y3538D01*
X16772Y3490D01*
X16807Y3483D01*
Y3645D01*
D02*
G37*
G36*
X19911Y3860D02*
X19828Y3849D01*
X19751Y3817D01*
X19684Y3766D01*
X19633Y3699D01*
X19601Y3622D01*
X19590Y3539D01*
X19601Y3456D01*
X19633Y3378D01*
X19684Y3312D01*
X19751Y3261D01*
X19828Y3229D01*
X19911Y3218D01*
X19994Y3229D01*
X20072Y3261D01*
X20138Y3312D01*
X20189Y3378D01*
X20221Y3456D01*
X20232Y3539D01*
X20221Y3622D01*
X20189Y3699D01*
X20138Y3766D01*
X20072Y3817D01*
X19994Y3849D01*
X19911Y3860D01*
D02*
G37*
G36*
X18177Y3750D02*
X18094Y3739D01*
X18017Y3707D01*
X17950Y3656D01*
X17899Y3589D01*
X17867Y3512D01*
X17856Y3429D01*
X17867Y3346D01*
X17898Y3272D01*
X17869Y3203D01*
X17858Y3120D01*
X17869Y3037D01*
X17901Y2959D01*
X17952Y2893D01*
X18019Y2842D01*
X18096Y2810D01*
X18179Y2799D01*
X18262Y2810D01*
X18340Y2842D01*
X18406Y2893D01*
X18457Y2959D01*
X18489Y3037D01*
X18500Y3120D01*
X18489Y3203D01*
X18459Y3277D01*
X18487Y3346D01*
X18498Y3429D01*
X18487Y3512D01*
X18455Y3589D01*
X18404Y3656D01*
X18338Y3707D01*
X18260Y3739D01*
X18177Y3750D01*
D02*
G37*
G36*
X16247Y2870D02*
X16169Y2860D01*
X16097Y2829D01*
X16034Y2782D01*
X15987Y2719D01*
X15956Y2647D01*
X15946Y2569D01*
X15956Y2491D01*
X15961Y2480D01*
X15923Y2442D01*
X15912Y2446D01*
X15834Y2456D01*
X15756Y2446D01*
X15683Y2416D01*
X15621Y2368D01*
X15573Y2306D01*
X15543Y2233D01*
X15533Y2155D01*
X15543Y2078D01*
X15573Y2005D01*
X15621Y1943D01*
X15683Y1895D01*
X15756Y1865D01*
X15834Y1854D01*
X15912Y1865D01*
X15923Y1869D01*
X15961Y1831D01*
X15956Y1820D01*
X15946Y1742D01*
X15956Y1664D01*
X15987Y1592D01*
X16034Y1529D01*
X16097Y1481D01*
X16169Y1451D01*
X16247Y1441D01*
X16325Y1451D01*
X16398Y1481D01*
X16460Y1529D01*
X16508Y1592D01*
X16538Y1664D01*
X16548Y1742D01*
X16538Y1820D01*
X16533Y1831D01*
X16572Y1869D01*
X16583Y1865D01*
X16661Y1854D01*
X16739Y1865D01*
X16811Y1895D01*
X16873Y1943D01*
X16921Y2005D01*
X16951Y2078D01*
X16962Y2155D01*
X16951Y2233D01*
X16921Y2306D01*
X16873Y2368D01*
X16811Y2416D01*
X16739Y2446D01*
X16661Y2456D01*
X16583Y2446D01*
X16572Y2442D01*
X16533Y2480D01*
X16538Y2491D01*
X16548Y2569D01*
X16538Y2647D01*
X16508Y2719D01*
X16460Y2782D01*
X16398Y2829D01*
X16325Y2860D01*
X16247Y2870D01*
D02*
G37*
G36*
X19407Y2491D02*
Y2329D01*
X19570D01*
X19563Y2364D01*
X19514Y2436D01*
X19442Y2484D01*
X19407Y2491D01*
D02*
G37*
G36*
X19307D02*
X19272Y2484D01*
X19200Y2436D01*
X19152Y2364D01*
X19145Y2329D01*
X19307D01*
Y2491D01*
D02*
G37*
G36*
X19570Y2229D02*
X19407D01*
Y2066D01*
X19442Y2073D01*
X19514Y2122D01*
X19563Y2194D01*
X19570Y2229D01*
D02*
G37*
G36*
X19307D02*
X19145D01*
X19152Y2194D01*
X19200Y2122D01*
X19272Y2073D01*
X19307Y2066D01*
Y2229D01*
D02*
G37*
G36*
X18910Y2122D02*
Y1960D01*
X19072D01*
X19065Y1995D01*
X19017Y2067D01*
X18945Y2115D01*
X18910Y2122D01*
D02*
G37*
G36*
X18810D02*
X18775Y2115D01*
X18703Y2067D01*
X18655Y1995D01*
X18648Y1960D01*
X18810D01*
Y2122D01*
D02*
G37*
G36*
X19072Y1860D02*
X18910D01*
Y1698D01*
X18945Y1705D01*
X19017Y1753D01*
X19065Y1825D01*
X19072Y1860D01*
D02*
G37*
G36*
X18810D02*
X18648D01*
X18655Y1825D01*
X18703Y1753D01*
X18775Y1705D01*
X18810Y1698D01*
Y1860D01*
D02*
G37*
G36*
X20157Y2620D02*
X20074Y2609D01*
X19997Y2577D01*
X19930Y2526D01*
X19879Y2459D01*
X19847Y2382D01*
X19836Y2299D01*
X19847Y2216D01*
X19879Y2138D01*
X19896Y2116D01*
X19879Y2095D01*
X19847Y2017D01*
X19836Y1934D01*
X19847Y1851D01*
X19879Y1774D01*
X19930Y1707D01*
X19997Y1656D01*
X20074Y1624D01*
X20157Y1613D01*
X20240Y1624D01*
X20318Y1656D01*
X20384Y1707D01*
X20435Y1774D01*
X20467Y1851D01*
X20478Y1934D01*
X20467Y2017D01*
X20435Y2095D01*
X20418Y2116D01*
X20435Y2138D01*
X20467Y2216D01*
X20478Y2299D01*
X20467Y2382D01*
X20435Y2459D01*
X20384Y2526D01*
X20318Y2577D01*
X20240Y2609D01*
X20157Y2620D01*
D02*
G37*
G36*
X18795Y731D02*
Y569D01*
X18957D01*
X18950Y604D01*
X18902Y676D01*
X18830Y724D01*
X18795Y731D01*
D02*
G37*
G36*
X18377D02*
X18342Y724D01*
X18270Y676D01*
X18222Y604D01*
X18215Y569D01*
X18377D01*
Y731D01*
D02*
G37*
%LPD*%
D10*
X8268Y7792D02*
G03*
X8268Y9512I0J860D01*
G01*
Y7712D02*
G03*
X8268Y9592I0J940D01*
G01*
Y7952D02*
G03*
X8268Y9352I0J700D01*
G01*
Y7872D02*
G03*
X8268Y9432I0J780D01*
G01*
Y8192D02*
G03*
X8268Y9112I0J460D01*
G01*
X8268Y8352D02*
G03*
X8398Y8472I5J125D01*
G01*
X8268Y8272D02*
G03*
X8268Y9032I0J380D01*
G01*
X8338Y7634D02*
G03*
X8268Y9672I-70J1018D01*
G01*
X8338Y7634D02*
G03*
X8288Y7552I16J-66D01*
G01*
X8268Y8032D02*
G03*
X8268Y9272I0J620D01*
G01*
Y8112D02*
G03*
X8268Y9192I0J540D01*
G01*
Y9272D02*
G03*
X8268Y8112I0J-580D01*
G01*
Y9352D02*
G03*
X8268Y8032I0J-660D01*
G01*
Y9032D02*
G03*
X8268Y8352I0J-340D01*
G01*
Y9112D02*
G03*
X8268Y8272I0J-420D01*
G01*
Y9192D02*
G03*
X8268Y8192I0J-500D01*
G01*
Y9592D02*
G03*
X8268Y7792I0J-900D01*
G01*
Y9432D02*
G03*
X8268Y7952I0J-740D01*
G01*
Y9512D02*
G03*
X8268Y7872I0J-820D01*
G01*
Y9672D02*
G03*
X8268Y7712I0J-980D01*
G01*
X1811D02*
G03*
X1811Y9512I0J900D01*
G01*
Y7632D02*
G03*
X1811Y9592I0J980D01*
G01*
Y7792D02*
G03*
X1811Y9432I0J820D01*
G01*
Y7872D02*
G03*
X1811Y9352I0J740D01*
G01*
Y7952D02*
G03*
X1811Y9272I0J660D01*
G01*
Y8192D02*
G03*
X1811Y9032I0J420D01*
G01*
Y8272D02*
G03*
X1811Y8952I0J340D01*
G01*
X1741Y9669D02*
G03*
X1791Y9752I-16J66D01*
G01*
X1811Y9112D02*
G03*
X1811Y8192I0J-460D01*
G01*
X1811Y8952D02*
G03*
X1681Y8832I-5J-125D01*
G01*
X1811Y9032D02*
G03*
X1811Y8272I0J-380D01*
G01*
Y9272D02*
G03*
X1811Y8032I0J-620D01*
G01*
Y9352D02*
G03*
X1811Y7952I0J-700D01*
G01*
Y8112D02*
G03*
X1811Y9112I0J500D01*
G01*
Y8032D02*
G03*
X1811Y9192I0J580D01*
G01*
D02*
G03*
X1811Y8112I0J-540D01*
G01*
Y9592D02*
G03*
X1811Y7712I0J-940D01*
G01*
X1741Y9669D02*
G03*
X1811Y7632I70J-1018D01*
G01*
Y9432D02*
G03*
X1811Y7872I0J-780D01*
G01*
Y9512D02*
G03*
X1811Y7792I0J-860D01*
G01*
X1876Y4054D02*
G03*
X1876Y4080I-109J13D01*
G01*
X1870Y1760D02*
G03*
X1870Y3080I0J660D01*
G01*
Y1040D02*
G03*
X1870Y3800I0J1380D01*
G01*
Y960D02*
G03*
X1870Y3880I0J1460D01*
G01*
Y1200D02*
G03*
X1870Y3640I0J1220D01*
G01*
Y1120D02*
G03*
X1870Y3720I0J1300D01*
G01*
Y1440D02*
G03*
X1870Y3400I0J980D01*
G01*
Y1360D02*
G03*
X1870Y3480I0J1060D01*
G01*
Y1280D02*
G03*
X1870Y3560I0J1140D01*
G01*
Y1600D02*
G03*
X1870Y3240I0J820D01*
G01*
Y1520D02*
G03*
X1870Y3320I0J900D01*
G01*
X1780Y3957D02*
G03*
X1876Y4054I-13J109D01*
G01*
X1870Y3320D02*
G03*
X1870Y1600I0J-860D01*
G01*
Y1680D02*
G03*
X1870Y3160I0J740D01*
G01*
D02*
G03*
X1870Y1760I0J-700D01*
G01*
Y3080D02*
G03*
X1870Y2560I260J-260D01*
G01*
Y3240D02*
G03*
X1870Y1680I0J-780D01*
G01*
Y3560D02*
G03*
X1870Y1360I0J-1100D01*
G01*
Y3640D02*
G03*
X1870Y1280I0J-1180D01*
G01*
Y3400D02*
G03*
X1870Y1520I0J-940D01*
G01*
Y3480D02*
G03*
X1870Y1440I0J-1020D01*
G01*
Y3800D02*
G03*
X1870Y1120I0J-1340D01*
G01*
Y3880D02*
G03*
X1870Y1040I0J-1420D01*
G01*
X1780Y3957D02*
G03*
X1870Y960I90J-1497D01*
G01*
Y3720D02*
G03*
X1870Y1200I0J-1260D01*
G01*
X9110Y2460D02*
G03*
X7390Y2460I-860J0D01*
G01*
X9747Y2550D02*
G03*
X9844Y2454I109J13D01*
G01*
X8950Y2460D02*
G03*
X7550Y2460I-700J0D01*
G01*
X9030D02*
G03*
X7470Y2460I-780J0D01*
G01*
X7390D02*
G03*
X9030Y2460I820J0D01*
G01*
X7550D02*
G03*
X8870Y2460I660J0D01*
G01*
X7470D02*
G03*
X8950Y2460I740J0D01*
G01*
X9670D02*
G03*
X6830Y2460I-1420J0D01*
G01*
X9590D02*
G03*
X6910Y2460I-1340J0D01*
G01*
X9747Y2550D02*
G03*
X6750Y2460I-1497J-90D01*
G01*
X9510D02*
G03*
X6990Y2460I-1260J0D01*
G01*
X9430D02*
G03*
X7070Y2460I-1180J0D01*
G01*
X9350D02*
G03*
X7150Y2460I-1100J0D01*
G01*
X9270D02*
G03*
X7230Y2460I-1020J0D01*
G01*
X9190D02*
G03*
X7310Y2460I-940J0D01*
G01*
X6910D02*
G03*
X9510Y2460I1300J0D01*
G01*
X6830D02*
G03*
X9590Y2460I1380J0D01*
G01*
X6750D02*
G03*
X9670Y2460I1460J0D01*
G01*
X7310D02*
G03*
X9110Y2460I900J0D01*
G01*
X7230D02*
G03*
X9190Y2460I980J0D01*
G01*
X7150D02*
G03*
X9270Y2460I1060J0D01*
G01*
X7070D02*
G03*
X9350Y2460I1140J0D01*
G01*
X6990D02*
G03*
X9430Y2460I1220J0D01*
G01*
X8870D02*
G03*
X8350Y2460I-260J-260D01*
G01*
X9844Y2454D02*
X10026D01*
D12*
X8398Y8472D02*
G03*
X8268Y8552I-105J-25D01*
G01*
X1681Y8832D02*
G03*
X1811Y8752I105J25D01*
G01*
D38*
X8288Y7332D02*
Y7552D01*
X1791Y9752D02*
Y9972D01*
X1656Y11056D02*
X1750Y11150D01*
X9300D01*
X9580Y10870D01*
X9910D01*
X11120Y3700D02*
X11550D01*
X9720Y5100D02*
X11120Y3700D01*
X1876Y4054D02*
Y4236D01*
X1750Y5100D02*
X9720D01*
X1656Y5006D02*
X1750Y5100D01*
D51*
X1656Y11056D02*
D03*
X9910Y10870D02*
D03*
X21192Y6564D02*
D03*
X34110Y7690D02*
D03*
Y7410D02*
D03*
X31110Y6450D02*
D03*
X24780Y10440D02*
D03*
X27156Y6400D02*
D03*
X18860Y7960D02*
D03*
X22050Y8830D02*
D03*
X8268Y8552D02*
D03*
X8288Y7332D02*
D03*
X1791Y9972D02*
D03*
X1811Y8752D02*
D03*
X18885Y10849D02*
D03*
X20885Y6564D02*
D03*
X18745Y6569D02*
D03*
X18427D02*
D03*
X18567Y10849D02*
D03*
X21332Y10844D02*
D03*
X21025D02*
D03*
X16857Y9745D02*
D03*
X16807Y10285D02*
D03*
X19357Y8329D02*
D03*
X11550Y3700D02*
D03*
X1656Y5006D02*
D03*
X21192Y514D02*
D03*
X34110Y1640D02*
D03*
Y1360D02*
D03*
X31110Y400D02*
D03*
X24780Y4390D02*
D03*
X27156Y350D02*
D03*
X18860Y1910D02*
D03*
X22050Y2780D02*
D03*
X18885Y4799D02*
D03*
X20885Y514D02*
D03*
X18745Y519D02*
D03*
X18427D02*
D03*
X18567Y4799D02*
D03*
X21332Y4794D02*
D03*
X21025D02*
D03*
X16857Y3695D02*
D03*
X16807Y4235D02*
D03*
X19357Y2279D02*
D03*
D53*
X34110Y6540D02*
D03*
Y490D02*
D03*
D55*
X8350Y2460D02*
D03*
X10026Y2454D02*
D03*
X1870Y2560D02*
D03*
X1876Y4236D02*
D03*
M02*
