G04*
G04 #@! TF.GenerationSoftware,Altium Limited,Altium Designer,19.1.9 (167)*
G04*
G04 Layer_Color=65535*
%FSLAX24Y24*%
%MOIN*%
G70*
G01*
G75*
%ADD12C,0.0060*%
%ADD38C,0.0100*%
%ADD40C,0.0090*%
%ADD56C,0.0098*%
%ADD57C,0.0067*%
%ADD58C,0.0079*%
%ADD59C,0.0070*%
%ADD60C,0.0039*%
%ADD61C,0.0065*%
%ADD62C,0.0050*%
%ADD63R,0.0413X0.0150*%
%ADD64R,0.0200X0.0920*%
G36*
X26342Y10622D02*
X26192D01*
Y10722D01*
X26342D01*
Y10622D01*
D02*
G37*
G36*
X24653Y9524D02*
X24553D01*
Y9674D01*
X24653D01*
Y9524D01*
D02*
G37*
G36*
X28571Y9327D02*
X28471D01*
Y9477D01*
X28571D01*
Y9327D01*
D02*
G37*
G36*
X24653Y7555D02*
X24553D01*
Y7705D01*
X24653D01*
Y7555D01*
D02*
G37*
G36*
X28571Y7358D02*
X28471D01*
Y7508D01*
X28571D01*
Y7358D01*
D02*
G37*
G36*
X26539Y6704D02*
X26389D01*
Y6804D01*
X26539D01*
Y6704D01*
D02*
G37*
G36*
X26342Y4572D02*
X26192D01*
Y4672D01*
X26342D01*
Y4572D01*
D02*
G37*
G36*
X24653Y3474D02*
X24553D01*
Y3624D01*
X24653D01*
Y3474D01*
D02*
G37*
G36*
X28571Y3277D02*
X28471D01*
Y3427D01*
X28571D01*
Y3277D01*
D02*
G37*
G36*
X24653Y1505D02*
X24553D01*
Y1655D01*
X24653D01*
Y1505D01*
D02*
G37*
G36*
X28571Y1308D02*
X28471D01*
Y1458D01*
X28571D01*
Y1308D01*
D02*
G37*
G36*
X26539Y654D02*
X26389D01*
Y754D01*
X26539D01*
Y654D01*
D02*
G37*
D12*
X3051Y10771D02*
X2993Y10829D01*
X2876D01*
X2818Y10771D01*
Y10538D01*
X2876Y10479D01*
X2993D01*
X3051Y10538D01*
X3401Y10479D02*
X3168D01*
X3401Y10713D01*
Y10771D01*
X3343Y10829D01*
X3226D01*
X3168Y10771D01*
X3693Y10479D02*
Y10829D01*
X3518Y10654D01*
X3751D01*
X19280Y7010D02*
Y7310D01*
X19430D01*
X19480Y7260D01*
Y7160D01*
X19430Y7110D01*
X19280D01*
X19380D02*
X19480Y7010D01*
X19580D02*
X19680D01*
X19630D01*
Y7310D01*
X19580Y7260D01*
X19830D02*
X19880Y7310D01*
X19980D01*
X20030Y7260D01*
Y7060D01*
X19980Y7010D01*
X19880D01*
X19830Y7060D01*
Y7260D01*
X6623Y6852D02*
X6565Y6910D01*
X6448D01*
X6390Y6852D01*
Y6618D01*
X6448Y6560D01*
X6565D01*
X6623Y6618D01*
X6740Y6560D02*
X6857D01*
X6798D01*
Y6910D01*
X6740Y6852D01*
X7031Y6910D02*
X7265D01*
Y6852D01*
X7031Y6618D01*
Y6560D01*
X20340Y9080D02*
X20390Y9130D01*
Y9230D01*
X20340Y9280D01*
X20140D01*
X20090Y9230D01*
Y9130D01*
X20140Y9080D01*
X20390Y8780D02*
Y8980D01*
X20240D01*
X20290Y8880D01*
Y8830D01*
X20240Y8780D01*
X20140D01*
X20090Y8830D01*
Y8930D01*
X20140Y8980D01*
X17980Y7980D02*
Y7930D01*
X18080Y7830D01*
X18180Y7930D01*
Y7980D01*
X18080Y7830D02*
Y7680D01*
X18480D02*
X18280D01*
X18480Y7880D01*
Y7930D01*
X18430Y7980D01*
X18330D01*
X18280Y7930D01*
X18770Y10010D02*
Y10310D01*
X18920D01*
X18970Y10260D01*
Y10160D01*
X18920Y10110D01*
X18770D01*
X18870D02*
X18970Y10010D01*
X19070D02*
X19170D01*
X19120D01*
Y10310D01*
X19070Y10260D01*
X19520Y10310D02*
X19420Y10260D01*
X19320Y10160D01*
Y10060D01*
X19370Y10010D01*
X19470D01*
X19520Y10060D01*
Y10110D01*
X19470Y10160D01*
X19320D01*
X21510Y10120D02*
Y10420D01*
X21660D01*
X21710Y10370D01*
Y10270D01*
X21660Y10220D01*
X21510D01*
X21610D02*
X21710Y10120D01*
X21810D02*
X21910D01*
X21860D01*
Y10420D01*
X21810Y10370D01*
X22060Y10420D02*
X22260D01*
Y10370D01*
X22060Y10170D01*
Y10120D01*
X3051Y4721D02*
X2993Y4779D01*
X2876D01*
X2818Y4721D01*
Y4488D01*
X2876Y4429D01*
X2993D01*
X3051Y4488D01*
X3401Y4429D02*
X3168D01*
X3401Y4663D01*
Y4721D01*
X3343Y4779D01*
X3226D01*
X3168Y4721D01*
X3693Y4429D02*
Y4779D01*
X3518Y4604D01*
X3751D01*
X19280Y960D02*
Y1260D01*
X19430D01*
X19480Y1210D01*
Y1110D01*
X19430Y1060D01*
X19280D01*
X19380D02*
X19480Y960D01*
X19580D02*
X19680D01*
X19630D01*
Y1260D01*
X19580Y1210D01*
X19830D02*
X19880Y1260D01*
X19980D01*
X20030Y1210D01*
Y1010D01*
X19980Y960D01*
X19880D01*
X19830Y1010D01*
Y1210D01*
X9963Y1582D02*
X9905Y1640D01*
X9788D01*
X9730Y1582D01*
Y1348D01*
X9788Y1290D01*
X9905D01*
X9963Y1348D01*
X10080Y1290D02*
X10197D01*
X10138D01*
Y1640D01*
X10080Y1582D01*
X10371Y1640D02*
X10605D01*
Y1582D01*
X10371Y1348D01*
Y1290D01*
X20340Y3030D02*
X20390Y3080D01*
Y3180D01*
X20340Y3230D01*
X20140D01*
X20090Y3180D01*
Y3080D01*
X20140Y3030D01*
X20390Y2730D02*
Y2930D01*
X20240D01*
X20290Y2830D01*
Y2780D01*
X20240Y2730D01*
X20140D01*
X20090Y2780D01*
Y2880D01*
X20140Y2930D01*
X17980Y1930D02*
Y1880D01*
X18080Y1780D01*
X18180Y1880D01*
Y1930D01*
X18080Y1780D02*
Y1630D01*
X18480D02*
X18280D01*
X18480Y1830D01*
Y1880D01*
X18430Y1930D01*
X18330D01*
X18280Y1880D01*
X18770Y3960D02*
Y4260D01*
X18920D01*
X18970Y4210D01*
Y4110D01*
X18920Y4060D01*
X18770D01*
X18870D02*
X18970Y3960D01*
X19070D02*
X19170D01*
X19120D01*
Y4260D01*
X19070Y4210D01*
X19520Y4260D02*
X19420Y4210D01*
X19320Y4110D01*
Y4010D01*
X19370Y3960D01*
X19470D01*
X19520Y4010D01*
Y4060D01*
X19470Y4110D01*
X19320D01*
X21510Y4070D02*
Y4370D01*
X21660D01*
X21710Y4320D01*
Y4220D01*
X21660Y4170D01*
X21510D01*
X21610D02*
X21710Y4070D01*
X21810D02*
X21910D01*
X21860D01*
Y4370D01*
X21810Y4320D01*
X22060Y4370D02*
X22260D01*
Y4320D01*
X22060Y4120D01*
Y4070D01*
D38*
X19045Y9150D02*
G03*
X19045Y9150I-20J0D01*
G01*
X17767Y6655D02*
Y10785D01*
X14497D02*
X17767D01*
X14497Y6655D02*
Y10785D01*
Y6655D02*
X17767D01*
X37870Y6830D02*
X37670D01*
X37770D01*
Y6330D01*
X37670Y6230D01*
X37570D01*
X37470Y6330D01*
X38070Y6230D02*
X38270D01*
X38170D01*
Y6830D01*
X38070Y6730D01*
X19045Y3100D02*
G03*
X19045Y3100I-20J0D01*
G01*
X17767Y605D02*
Y4735D01*
X14497D02*
X17767D01*
X14497Y605D02*
Y4735D01*
Y605D02*
X17767D01*
X37870Y780D02*
X37670D01*
X37770D01*
Y280D01*
X37670Y180D01*
X37570D01*
X37470Y280D01*
X38070Y180D02*
X38270D01*
X38170D01*
Y780D01*
X38070Y680D01*
D40*
X7900Y10470D02*
X7800Y10570D01*
X7600D01*
X7500Y10470D01*
Y10070D01*
X7600Y9970D01*
X7800D01*
X7900Y10070D01*
X8100Y10570D02*
Y9970D01*
Y10270D01*
X8500D01*
Y10570D01*
Y9970D01*
X8700D02*
X8900D01*
X8800D01*
Y10570D01*
X8700Y10470D01*
X1420Y7210D02*
X1320Y7310D01*
X1120D01*
X1020Y7210D01*
Y6810D01*
X1120Y6710D01*
X1320D01*
X1420Y6810D01*
X1620Y7310D02*
Y6710D01*
Y7010D01*
X2020D01*
Y7310D01*
Y6710D01*
X2220Y7210D02*
X2320Y7310D01*
X2520D01*
X2619Y7210D01*
Y6810D01*
X2520Y6710D01*
X2320D01*
X2220Y6810D01*
Y7210D01*
X7910Y4240D02*
X7810Y4340D01*
X7610D01*
X7510Y4240D01*
Y3840D01*
X7610Y3740D01*
X7810D01*
X7910Y3840D01*
X8110Y4340D02*
Y3740D01*
Y4040D01*
X8510D01*
Y4340D01*
Y3740D01*
X8710D02*
X8910D01*
X8810D01*
Y4340D01*
X8710Y4240D01*
X1370Y1370D02*
X1270Y1470D01*
X1070D01*
X970Y1370D01*
Y970D01*
X1070Y870D01*
X1270D01*
X1370Y970D01*
X1570Y1470D02*
Y870D01*
Y1170D01*
X1970D01*
Y1470D01*
Y870D01*
X2170Y1370D02*
X2270Y1470D01*
X2470D01*
X2569Y1370D01*
Y970D01*
X2470Y870D01*
X2270D01*
X2170Y970D01*
Y1370D01*
D56*
X33668Y8962D02*
G03*
X33668Y8962I-49J0D01*
G01*
X37350Y9213D02*
G03*
X37350Y9213I-49J0D01*
G01*
X31552Y8319D02*
X31838D01*
X33668Y2912D02*
G03*
X33668Y2912I-49J0D01*
G01*
X37350Y3163D02*
G03*
X37350Y3163I-49J0D01*
G01*
X31552Y2269D02*
X31838D01*
D57*
X30199Y8852D02*
Y9157D01*
X29992Y8852D02*
X30199D01*
X31503Y8851D02*
Y8929D01*
X31897Y8851D02*
Y8929D01*
X30199Y2802D02*
Y3107D01*
X29992Y2802D02*
X30199D01*
X31503Y2801D02*
Y2879D01*
X31897Y2801D02*
Y2879D01*
D58*
X32290Y8392D02*
X33510D01*
X32290Y8588D02*
X33510D01*
X32290Y8392D02*
Y8588D01*
X33510Y8392D02*
Y8588D01*
X36282Y9018D02*
Y9097D01*
Y8388D02*
Y8467D01*
X37030Y8388D02*
Y8467D01*
Y8812D02*
Y9097D01*
X17104Y7349D02*
Y7733D01*
X16720Y7349D02*
X17104D01*
X15391D02*
X15470D01*
X15391D02*
Y7428D01*
Y8983D02*
Y9062D01*
X15470D01*
X17104Y8983D02*
Y9062D01*
X17025D02*
X17104D01*
X32290Y2342D02*
X33510D01*
X32290Y2538D02*
X33510D01*
X32290Y2342D02*
Y2538D01*
X33510Y2342D02*
Y2538D01*
X36282Y2968D02*
Y3047D01*
Y2338D02*
Y2417D01*
X37030Y2338D02*
Y2417D01*
Y2762D02*
Y3047D01*
X17104Y1299D02*
Y1683D01*
X16720Y1299D02*
X17104D01*
X15391D02*
X15470D01*
X15391D02*
Y1378D01*
Y2933D02*
Y3012D01*
X15470D01*
X17104Y2933D02*
Y3012D01*
X17025D02*
X17104D01*
D59*
X19217Y10566D02*
X19477D01*
X19217D02*
Y11111D01*
X19477D01*
X20157D02*
X20417D01*
Y10566D02*
Y11111D01*
X20157Y10566D02*
X20417D01*
X11157Y9140D02*
Y9400D01*
Y9140D02*
X11702D01*
Y9400D01*
Y10080D02*
Y10340D01*
X11157D02*
X11702D01*
X11157Y10080D02*
Y10340D01*
X11450Y6217D02*
X11710D01*
Y6762D01*
X11450D02*
X11710D01*
X10510D02*
X10770D01*
X10510Y6217D02*
Y6762D01*
Y6217D02*
X10770D01*
X13860Y7937D02*
X14120D01*
Y8482D01*
X13860D02*
X14120D01*
X12920D02*
X13180D01*
X12920Y7937D02*
Y8482D01*
Y7937D02*
X13180D01*
X13847Y9510D02*
Y9770D01*
Y9510D02*
X14392D01*
Y9770D01*
Y10450D02*
Y10710D01*
X13847D02*
X14392D01*
X13847Y10450D02*
Y10710D01*
X11733Y7790D02*
Y8050D01*
X11188D02*
X11733D01*
X11188Y7790D02*
Y8050D01*
Y6850D02*
Y7110D01*
Y6850D02*
X11733D01*
Y7110D01*
X12900Y9393D02*
X13160D01*
X12900Y8848D02*
Y9393D01*
Y8848D02*
X13160D01*
X13840D02*
X14100D01*
Y9393D01*
X13840D02*
X14100D01*
X11450Y10457D02*
X11710D01*
Y11002D01*
X11450D02*
X11710D01*
X10510D02*
X10770D01*
X10510Y10457D02*
Y11002D01*
Y10457D02*
X10770D01*
X13827Y6520D02*
Y6780D01*
Y6520D02*
X14372D01*
Y6780D01*
Y7460D02*
Y7720D01*
X13827D02*
X14372D01*
X13827Y7460D02*
Y7720D01*
X35593Y8510D02*
Y8740D01*
X36003D01*
Y8510D02*
Y8740D01*
X35593Y7780D02*
Y8010D01*
Y7780D02*
X36003D01*
Y8010D01*
X28950Y10657D02*
X29210D01*
X28950D02*
Y11202D01*
X29210D01*
X29890D02*
X30150D01*
Y10657D02*
Y11202D01*
X29890Y10657D02*
X30150D01*
X12954Y7856D02*
X13294D01*
Y7456D02*
Y7856D01*
Y7056D02*
Y7456D01*
X12954Y7056D02*
X13294D01*
X11814D02*
X12154D01*
X11814D02*
Y7456D01*
Y7856D01*
X12154D01*
X12950Y10280D02*
X13290D01*
Y9880D02*
Y10280D01*
Y9480D02*
Y9880D01*
X12950Y9480D02*
X13290D01*
X11810D02*
X12150D01*
X11810D02*
Y9880D01*
Y10280D01*
X12150D01*
X12950Y11190D02*
X13290D01*
Y10790D02*
Y11190D01*
Y10390D02*
Y10790D01*
X12950Y10390D02*
X13290D01*
X11810D02*
X12150D01*
X11810D02*
Y10790D01*
Y11190D01*
X12150D01*
X12954Y6956D02*
X13294D01*
Y6556D02*
Y6956D01*
Y6156D02*
Y6556D01*
X12954Y6156D02*
X13294D01*
X11814D02*
X12154D01*
X11814D02*
Y6556D01*
Y6956D01*
X12154D01*
X19497Y9316D02*
X19757D01*
Y9861D01*
X19497D02*
X19757D01*
X18557D02*
X18817D01*
X18557Y9316D02*
Y9861D01*
Y9316D02*
X18817D01*
X22990Y6837D02*
X23250D01*
X22990D02*
Y7382D01*
X23250D01*
X23930D02*
X24190D01*
Y6837D02*
Y7382D01*
X23930Y6837D02*
X24190D01*
X22990Y7507D02*
X23250D01*
X22990D02*
Y8052D01*
X23250D01*
X23930D02*
X24190D01*
Y7507D02*
Y8052D01*
X23930Y7507D02*
X24190D01*
X22990Y8177D02*
X23250D01*
X22990D02*
Y8722D01*
X23250D01*
X23930D02*
X24190D01*
Y8177D02*
Y8722D01*
X23930Y8177D02*
X24190D01*
X22990Y8847D02*
X23250D01*
X22990D02*
Y9392D01*
X23250D01*
X23930D02*
X24190D01*
Y8847D02*
Y9392D01*
X23930Y8847D02*
X24190D01*
X24702Y10494D02*
Y10573D01*
X24781D01*
X24702Y6853D02*
Y6931D01*
Y6853D02*
X24781D01*
X28344D02*
X28423D01*
Y6931D01*
Y10326D02*
Y10573D01*
X28175D02*
X28423D01*
X19087Y6296D02*
X19347D01*
X19087D02*
Y6841D01*
X19347D01*
X20027D02*
X20287D01*
Y6296D02*
Y6841D01*
X20027Y6296D02*
X20287D01*
X30000Y6245D02*
X30230D01*
X30000D02*
Y6655D01*
X30230D01*
X30730Y6245D02*
X30960D01*
Y6655D01*
X30730D02*
X30960D01*
X31925Y9800D02*
Y10030D01*
X31515Y9800D02*
X31925D01*
X31515D02*
Y10030D01*
X31925Y10530D02*
Y10760D01*
X31515D02*
X31925D01*
X31515Y10530D02*
Y10760D01*
X28170Y11245D02*
X28400D01*
Y10835D02*
Y11245D01*
X28170Y10835D02*
X28400D01*
X27440Y11245D02*
X27670D01*
X27440Y10835D02*
Y11245D01*
Y10835D02*
X27670D01*
X22043Y6280D02*
Y6540D01*
X21498Y6280D02*
X22043D01*
X21498D02*
Y6540D01*
Y7220D02*
Y7480D01*
X22043D01*
Y7220D02*
Y7480D01*
X21777Y8470D02*
Y8730D01*
X22322D01*
Y8470D02*
Y8730D01*
Y7530D02*
Y7790D01*
X21777Y7530D02*
X22322D01*
X21777D02*
Y7790D01*
X37083Y6580D02*
Y6840D01*
X36538Y6580D02*
X37083D01*
X36538D02*
Y6840D01*
Y7520D02*
Y7780D01*
X37083D01*
Y7520D02*
Y7780D01*
X35270Y8715D02*
X35500D01*
Y8305D02*
Y8715D01*
X35270Y8305D02*
X35500D01*
X34540Y8715D02*
X34770D01*
X34540Y8305D02*
Y8715D01*
Y8305D02*
X34770D01*
X34540Y7805D02*
X34770D01*
X34540D02*
Y8215D01*
X34770D01*
X35270Y7805D02*
X35500D01*
Y8215D01*
X35270D02*
X35500D01*
X34490Y8835D02*
X34720D01*
X34490D02*
Y9245D01*
X34720D01*
X35220Y8835D02*
X35450D01*
Y9245D01*
X35220D02*
X35450D01*
X35440Y11265D02*
X37190D01*
X35440Y10415D02*
X37190D01*
X15607Y9790D02*
X15837D01*
X15607D02*
Y10200D01*
X15837D01*
X16337Y9790D02*
X16567D01*
Y10200D01*
X16337D02*
X16567D01*
X26140Y6185D02*
X26370D01*
X26140D02*
Y6595D01*
X26370D01*
X26870Y6185D02*
X27100D01*
Y6595D01*
X26870D02*
X27100D01*
X25370Y11245D02*
X25600D01*
Y10835D02*
Y11245D01*
X25370Y10835D02*
X25600D01*
X24640Y11245D02*
X24870D01*
X24640Y10835D02*
Y11245D01*
Y10835D02*
X24870D01*
X23300Y10547D02*
X23560D01*
X23300D02*
Y11092D01*
X23560D01*
X24240D02*
X24500D01*
Y10547D02*
Y11092D01*
X24240Y10547D02*
X24500D01*
X25820Y10845D02*
X26050D01*
X25820D02*
Y11255D01*
X26050D01*
X26550Y10845D02*
X26780D01*
Y11255D01*
X26550D02*
X26780D01*
X29800Y8055D02*
X30030D01*
Y7645D02*
Y8055D01*
X29800Y7645D02*
X30030D01*
X29070Y8055D02*
X29300D01*
X29070Y7645D02*
Y8055D01*
Y7645D02*
X29300D01*
X23320Y9897D02*
X23580D01*
X23320D02*
Y10442D01*
X23580D01*
X24260D02*
X24520D01*
Y9897D02*
Y10442D01*
X24260Y9897D02*
X24520D01*
X30000Y6747D02*
X30260D01*
X30000D02*
Y7292D01*
X30260D01*
X30940D02*
X31200D01*
Y6747D02*
Y7292D01*
X30940Y6747D02*
X31200D01*
X28850Y8137D02*
X29110D01*
X28850D02*
Y8682D01*
X29110D01*
X29790D02*
X30050D01*
Y8137D02*
Y8682D01*
X29790Y8137D02*
X30050D01*
X15607Y10270D02*
X15837D01*
X15607D02*
Y10680D01*
X15837D01*
X16337Y10270D02*
X16567D01*
Y10680D01*
X16337D02*
X16567D01*
X2248Y10922D02*
X2508D01*
Y10377D02*
Y10922D01*
X2248Y10377D02*
X2508D01*
X1308D02*
X1568D01*
X1308D02*
Y10922D01*
X1568D01*
X7550Y6437D02*
X7810D01*
X7550D02*
Y6982D01*
X7810D01*
X8490D02*
X8750D01*
Y6437D02*
Y6982D01*
X8490Y6437D02*
X8750D01*
X30980Y8839D02*
Y9099D01*
X30435Y8839D02*
X30980D01*
X30435D02*
Y9099D01*
Y9779D02*
Y10039D01*
X30980D01*
Y9779D02*
Y10039D01*
X36835Y10050D02*
Y10280D01*
X37245D01*
Y10050D02*
Y10280D01*
X36835Y9320D02*
Y9550D01*
Y9320D02*
X37245D01*
Y9550D01*
X35220Y10170D02*
X35560D01*
X35220Y9770D02*
Y10170D01*
Y9370D02*
Y9770D01*
Y9370D02*
X35560D01*
X36360D02*
X36700D01*
Y9770D01*
Y10170D01*
X36360D02*
X36700D01*
X32793Y6470D02*
Y6730D01*
X32248Y6470D02*
X32793D01*
X32248D02*
Y6730D01*
Y7410D02*
Y7670D01*
X32793D01*
Y7410D02*
Y7670D01*
X33837Y8720D02*
Y8980D01*
X34382D01*
Y8720D02*
Y8980D01*
Y7780D02*
Y8040D01*
X33837Y7780D02*
X34382D01*
X33837D02*
Y8040D01*
X33030Y10335D02*
X33260D01*
Y9925D02*
Y10335D01*
X33030Y9925D02*
X33260D01*
X32300Y10335D02*
X32530D01*
X32300Y9925D02*
Y10335D01*
Y9925D02*
X32530D01*
X33110Y9823D02*
X33370D01*
Y9278D02*
Y9823D01*
X33110Y9278D02*
X33370D01*
X32170D02*
X32430D01*
X32170D02*
Y9823D01*
X32430D01*
X23460Y6227D02*
X23720D01*
Y6772D01*
X23460D02*
X23720D01*
X22520D02*
X22780D01*
X22520Y6227D02*
Y6772D01*
Y6227D02*
X22780D01*
X16337Y9740D02*
X16567D01*
Y9330D02*
Y9740D01*
X16337Y9330D02*
X16567D01*
X15607Y9740D02*
X15837D01*
X15607Y9330D02*
Y9740D01*
Y9330D02*
X15837D01*
X22447Y9910D02*
Y10170D01*
Y9910D02*
X22992D01*
Y10170D01*
Y10850D02*
Y11110D01*
X22447D02*
X22992D01*
X22447Y10850D02*
Y11110D01*
X19365Y7829D02*
Y8089D01*
Y7829D02*
X19909D01*
Y8089D01*
Y8769D02*
Y9029D01*
X19365D02*
X19909D01*
X19365Y8769D02*
Y9029D01*
X16550Y7200D02*
Y6800D01*
X16817D01*
X16950Y7200D02*
Y6800D01*
X17150D01*
X17216Y6867D01*
Y7133D01*
X17150Y7200D01*
X16950D01*
X17616Y7133D02*
X17550Y7200D01*
X17416D01*
X17350Y7133D01*
Y6867D01*
X17416Y6800D01*
X17550D01*
X17616Y6867D01*
X30380Y11130D02*
Y11063D01*
X30513Y10930D01*
X30647Y11063D01*
Y11130D01*
X30513Y10930D02*
Y10730D01*
X30780D02*
X30913D01*
X30847D01*
Y11130D01*
X30780Y11063D01*
X14700Y7800D02*
Y7467D01*
X14767Y7400D01*
X14900D01*
X14967Y7467D01*
Y7800D01*
X15100Y7400D02*
X15233D01*
X15167D01*
Y7800D01*
X15100Y7733D01*
X20140Y10030D02*
Y10330D01*
X20290D01*
X20340Y10280D01*
Y10180D01*
X20290Y10130D01*
X20140D01*
X20240D02*
X20340Y10030D01*
X20440D02*
X20540D01*
X20490D01*
Y10330D01*
X20440Y10280D01*
X20690D02*
X20740Y10330D01*
X20840D01*
X20890Y10280D01*
Y10230D01*
X20840Y10180D01*
X20890Y10130D01*
Y10080D01*
X20840Y10030D01*
X20740D01*
X20690Y10080D01*
Y10130D01*
X20740Y10180D01*
X20690Y10230D01*
Y10280D01*
X20740Y10180D02*
X20840D01*
X19217Y4516D02*
X19477D01*
X19217D02*
Y5061D01*
X19477D01*
X20157D02*
X20417D01*
Y4516D02*
Y5061D01*
X20157Y4516D02*
X20417D01*
X12540Y2787D02*
X12800D01*
Y3332D01*
X12540D02*
X12800D01*
X11600D02*
X11860D01*
X11600Y2787D02*
Y3332D01*
Y2787D02*
X11860D01*
X11850Y2503D02*
X12110D01*
X11850Y1958D02*
Y2503D01*
Y1958D02*
X12110D01*
X12790D02*
X13050D01*
Y2503D01*
X12790D02*
X13050D01*
X14100Y2157D02*
X14360D01*
Y2702D01*
X14100D02*
X14360D01*
X13160D02*
X13420D01*
X13160Y2157D02*
Y2702D01*
Y2157D02*
X13420D01*
X13847Y3460D02*
Y3720D01*
Y3460D02*
X14392D01*
Y3720D01*
Y4400D02*
Y4660D01*
X13847D02*
X14392D01*
X13847Y4400D02*
Y4660D01*
X10500Y713D02*
X10760D01*
X10500Y168D02*
Y713D01*
Y168D02*
X10760D01*
X11440D02*
X11700D01*
Y713D01*
X11440D02*
X11700D01*
X12900Y3343D02*
X13160D01*
X12900Y2798D02*
Y3343D01*
Y2798D02*
X13160D01*
X13840D02*
X14100D01*
Y3343D01*
X13840D02*
X14100D01*
X11167Y3930D02*
Y4190D01*
Y3930D02*
X11712D01*
Y4190D01*
Y4870D02*
Y5130D01*
X11167D02*
X11712D01*
X11167Y4870D02*
Y5130D01*
X13827Y540D02*
Y800D01*
Y540D02*
X14372D01*
Y800D01*
Y1480D02*
Y1740D01*
X13827D02*
X14372D01*
X13827Y1480D02*
Y1740D01*
X35593Y2460D02*
Y2690D01*
X36003D01*
Y2460D02*
Y2690D01*
X35593Y1730D02*
Y1960D01*
Y1730D02*
X36003D01*
Y1960D01*
X28950Y4607D02*
X29210D01*
X28950D02*
Y5152D01*
X29210D01*
X29890D02*
X30150D01*
Y4607D02*
Y5152D01*
X29890Y4607D02*
X30150D01*
X12954Y1806D02*
X13294D01*
Y1406D02*
Y1806D01*
Y1006D02*
Y1406D01*
X12954Y1006D02*
X13294D01*
X11814D02*
X12154D01*
X11814D02*
Y1406D01*
Y1806D01*
X12154D01*
X12950Y4230D02*
X13290D01*
Y3830D02*
Y4230D01*
Y3430D02*
Y3830D01*
X12950Y3430D02*
X13290D01*
X11810D02*
X12150D01*
X11810D02*
Y3830D01*
Y4230D01*
X12150D01*
X12950Y5140D02*
X13290D01*
Y4740D02*
Y5140D01*
Y4340D02*
Y4740D01*
X12950Y4340D02*
X13290D01*
X11810D02*
X12150D01*
X11810D02*
Y4740D01*
Y5140D01*
X12150D01*
X12954Y906D02*
X13294D01*
Y506D02*
Y906D01*
Y106D02*
Y506D01*
X12954Y106D02*
X13294D01*
X11814D02*
X12154D01*
X11814D02*
Y506D01*
Y906D01*
X12154D01*
X19497Y3266D02*
X19757D01*
Y3811D01*
X19497D02*
X19757D01*
X18557D02*
X18817D01*
X18557Y3266D02*
Y3811D01*
Y3266D02*
X18817D01*
X22990Y787D02*
X23250D01*
X22990D02*
Y1332D01*
X23250D01*
X23930D02*
X24190D01*
Y787D02*
Y1332D01*
X23930Y787D02*
X24190D01*
X22990Y1457D02*
X23250D01*
X22990D02*
Y2002D01*
X23250D01*
X23930D02*
X24190D01*
Y1457D02*
Y2002D01*
X23930Y1457D02*
X24190D01*
X22990Y2127D02*
X23250D01*
X22990D02*
Y2672D01*
X23250D01*
X23930D02*
X24190D01*
Y2127D02*
Y2672D01*
X23930Y2127D02*
X24190D01*
X22990Y2797D02*
X23250D01*
X22990D02*
Y3342D01*
X23250D01*
X23930D02*
X24190D01*
Y2797D02*
Y3342D01*
X23930Y2797D02*
X24190D01*
X24702Y4444D02*
Y4523D01*
X24781D01*
X24702Y803D02*
Y881D01*
Y803D02*
X24781D01*
X28344D02*
X28423D01*
Y881D01*
Y4276D02*
Y4523D01*
X28175D02*
X28423D01*
X19087Y246D02*
X19347D01*
X19087D02*
Y791D01*
X19347D01*
X20027D02*
X20287D01*
Y246D02*
Y791D01*
X20027Y246D02*
X20287D01*
X30000Y195D02*
X30230D01*
X30000D02*
Y605D01*
X30230D01*
X30730Y195D02*
X30960D01*
Y605D01*
X30730D02*
X30960D01*
X31925Y3750D02*
Y3980D01*
X31515Y3750D02*
X31925D01*
X31515D02*
Y3980D01*
X31925Y4480D02*
Y4710D01*
X31515D02*
X31925D01*
X31515Y4480D02*
Y4710D01*
X28170Y5195D02*
X28400D01*
Y4785D02*
Y5195D01*
X28170Y4785D02*
X28400D01*
X27440Y5195D02*
X27670D01*
X27440Y4785D02*
Y5195D01*
Y4785D02*
X27670D01*
X22043Y230D02*
Y490D01*
X21498Y230D02*
X22043D01*
X21498D02*
Y490D01*
Y1170D02*
Y1430D01*
X22043D01*
Y1170D02*
Y1430D01*
X21777Y2420D02*
Y2680D01*
X22322D01*
Y2420D02*
Y2680D01*
Y1480D02*
Y1740D01*
X21777Y1480D02*
X22322D01*
X21777D02*
Y1740D01*
X37083Y530D02*
Y790D01*
X36538Y530D02*
X37083D01*
X36538D02*
Y790D01*
Y1470D02*
Y1730D01*
X37083D01*
Y1470D02*
Y1730D01*
X35270Y2665D02*
X35500D01*
Y2255D02*
Y2665D01*
X35270Y2255D02*
X35500D01*
X34540Y2665D02*
X34770D01*
X34540Y2255D02*
Y2665D01*
Y2255D02*
X34770D01*
X34540Y1755D02*
X34770D01*
X34540D02*
Y2165D01*
X34770D01*
X35270Y1755D02*
X35500D01*
Y2165D01*
X35270D02*
X35500D01*
X34490Y2785D02*
X34720D01*
X34490D02*
Y3195D01*
X34720D01*
X35220Y2785D02*
X35450D01*
Y3195D01*
X35220D02*
X35450D01*
X35440Y5215D02*
X37190D01*
X35440Y4365D02*
X37190D01*
X15607Y3740D02*
X15837D01*
X15607D02*
Y4150D01*
X15837D01*
X16337Y3740D02*
X16567D01*
Y4150D01*
X16337D02*
X16567D01*
X26140Y135D02*
X26370D01*
X26140D02*
Y545D01*
X26370D01*
X26870Y135D02*
X27100D01*
Y545D01*
X26870D02*
X27100D01*
X25370Y5195D02*
X25600D01*
Y4785D02*
Y5195D01*
X25370Y4785D02*
X25600D01*
X24640Y5195D02*
X24870D01*
X24640Y4785D02*
Y5195D01*
Y4785D02*
X24870D01*
X23300Y4497D02*
X23560D01*
X23300D02*
Y5042D01*
X23560D01*
X24240D02*
X24500D01*
Y4497D02*
Y5042D01*
X24240Y4497D02*
X24500D01*
X25820Y4795D02*
X26050D01*
X25820D02*
Y5205D01*
X26050D01*
X26550Y4795D02*
X26780D01*
Y5205D01*
X26550D02*
X26780D01*
X29800Y2005D02*
X30030D01*
Y1595D02*
Y2005D01*
X29800Y1595D02*
X30030D01*
X29070Y2005D02*
X29300D01*
X29070Y1595D02*
Y2005D01*
Y1595D02*
X29300D01*
X23320Y3847D02*
X23580D01*
X23320D02*
Y4392D01*
X23580D01*
X24260D02*
X24520D01*
Y3847D02*
Y4392D01*
X24260Y3847D02*
X24520D01*
X30000Y697D02*
X30260D01*
X30000D02*
Y1242D01*
X30260D01*
X30940D02*
X31200D01*
Y697D02*
Y1242D01*
X30940Y697D02*
X31200D01*
X28850Y2087D02*
X29110D01*
X28850D02*
Y2632D01*
X29110D01*
X29790D02*
X30050D01*
Y2087D02*
Y2632D01*
X29790Y2087D02*
X30050D01*
X15607Y4220D02*
X15837D01*
X15607D02*
Y4630D01*
X15837D01*
X16337Y4220D02*
X16567D01*
Y4630D01*
X16337D02*
X16567D01*
X2248Y4872D02*
X2508D01*
Y4327D02*
Y4872D01*
X2248Y4327D02*
X2508D01*
X1308D02*
X1568D01*
X1308D02*
Y4872D01*
X1568D01*
X10703Y1810D02*
Y2070D01*
X10158Y1810D02*
X10703D01*
X10158D02*
Y2070D01*
Y2750D02*
Y3010D01*
X10703D01*
Y2750D02*
Y3010D01*
X30980Y2789D02*
Y3049D01*
X30435Y2789D02*
X30980D01*
X30435D02*
Y3049D01*
Y3729D02*
Y3989D01*
X30980D01*
Y3729D02*
Y3989D01*
X36835Y4000D02*
Y4230D01*
X37245D01*
Y4000D02*
Y4230D01*
X36835Y3270D02*
Y3500D01*
Y3270D02*
X37245D01*
Y3500D01*
X35220Y4120D02*
X35560D01*
X35220Y3720D02*
Y4120D01*
Y3320D02*
Y3720D01*
Y3320D02*
X35560D01*
X36360D02*
X36700D01*
Y3720D01*
Y4120D01*
X36360D02*
X36700D01*
X32793Y420D02*
Y680D01*
X32248Y420D02*
X32793D01*
X32248D02*
Y680D01*
Y1360D02*
Y1620D01*
X32793D01*
Y1360D02*
Y1620D01*
X33837Y2670D02*
Y2930D01*
X34382D01*
Y2670D02*
Y2930D01*
Y1730D02*
Y1990D01*
X33837Y1730D02*
X34382D01*
X33837D02*
Y1990D01*
X33030Y4285D02*
X33260D01*
Y3875D02*
Y4285D01*
X33030Y3875D02*
X33260D01*
X32300Y4285D02*
X32530D01*
X32300Y3875D02*
Y4285D01*
Y3875D02*
X32530D01*
X33110Y3773D02*
X33370D01*
Y3228D02*
Y3773D01*
X33110Y3228D02*
X33370D01*
X32170D02*
X32430D01*
X32170D02*
Y3773D01*
X32430D01*
X23460Y177D02*
X23720D01*
Y722D01*
X23460D02*
X23720D01*
X22520D02*
X22780D01*
X22520Y177D02*
Y722D01*
Y177D02*
X22780D01*
X16337Y3690D02*
X16567D01*
Y3280D02*
Y3690D01*
X16337Y3280D02*
X16567D01*
X15607Y3690D02*
X15837D01*
X15607Y3280D02*
Y3690D01*
Y3280D02*
X15837D01*
X22447Y3860D02*
Y4120D01*
Y3860D02*
X22992D01*
Y4120D01*
Y4800D02*
Y5060D01*
X22447D02*
X22992D01*
X22447Y4800D02*
Y5060D01*
X19365Y1779D02*
Y2039D01*
Y1779D02*
X19909D01*
Y2039D01*
Y2719D02*
Y2979D01*
X19365D02*
X19909D01*
X19365Y2719D02*
Y2979D01*
X16550Y1150D02*
Y750D01*
X16817D01*
X16950Y1150D02*
Y750D01*
X17150D01*
X17216Y817D01*
Y1083D01*
X17150Y1150D01*
X16950D01*
X17616Y1083D02*
X17550Y1150D01*
X17416D01*
X17350Y1083D01*
Y817D01*
X17416Y750D01*
X17550D01*
X17616Y817D01*
X30380Y5080D02*
Y5013D01*
X30513Y4880D01*
X30647Y5013D01*
Y5080D01*
X30513Y4880D02*
Y4680D01*
X30780D02*
X30913D01*
X30847D01*
Y5080D01*
X30780Y5013D01*
X14700Y1750D02*
Y1417D01*
X14767Y1350D01*
X14900D01*
X14967Y1417D01*
Y1750D01*
X15100Y1350D02*
X15233D01*
X15167D01*
Y1750D01*
X15100Y1683D01*
X20140Y3980D02*
Y4280D01*
X20290D01*
X20340Y4230D01*
Y4130D01*
X20290Y4080D01*
X20140D01*
X20240D02*
X20340Y3980D01*
X20440D02*
X20540D01*
X20490D01*
Y4280D01*
X20440Y4230D01*
X20690D02*
X20740Y4280D01*
X20840D01*
X20890Y4230D01*
Y4180D01*
X20840Y4130D01*
X20890Y4080D01*
Y4030D01*
X20840Y3980D01*
X20740D01*
X20690Y4030D01*
Y4080D01*
X20740Y4130D01*
X20690Y4180D01*
Y4230D01*
X20740Y4130D02*
X20840D01*
D60*
X37369Y10450D02*
X37569D01*
X37369Y10300D02*
Y10450D01*
Y6950D02*
Y7100D01*
Y6950D02*
X37569D01*
X38319Y10450D02*
Y10650D01*
X38169Y10450D02*
X38319D01*
X38169Y6950D02*
X38319D01*
Y6750D02*
Y6950D01*
X37369Y4400D02*
X37569D01*
X37369Y4250D02*
Y4400D01*
Y900D02*
Y1050D01*
Y900D02*
X37569D01*
X38319Y4400D02*
Y4600D01*
X38169Y4400D02*
X38319D01*
X38169Y900D02*
X38319D01*
Y700D02*
Y900D01*
D61*
X34681Y11224D02*
X34799D01*
X34681Y10416D02*
X34799D01*
X34681Y5174D02*
X34799D01*
X34681Y4366D02*
X34799D01*
D62*
X33460Y7075D02*
X33627D01*
X33543Y7158D02*
Y6992D01*
X33710Y7158D02*
X33752Y7200D01*
X33835D01*
X33877Y7158D01*
Y7117D01*
X33835Y7075D01*
X33793D01*
X33835D01*
X33877Y7033D01*
Y6992D01*
X33835Y6950D01*
X33752D01*
X33710Y6992D01*
X33960Y6950D02*
Y6992D01*
X34001D01*
Y6950D01*
X33960D01*
X34168Y7158D02*
X34210Y7200D01*
X34293D01*
X34335Y7158D01*
Y7117D01*
X34293Y7075D01*
X34251D01*
X34293D01*
X34335Y7033D01*
Y6992D01*
X34293Y6950D01*
X34210D01*
X34168Y6992D01*
X34418Y7200D02*
Y7033D01*
X34501Y6950D01*
X34585Y7033D01*
Y7200D01*
X33320Y11010D02*
X33520D01*
X33420Y11110D02*
Y10910D01*
X33820Y11160D02*
X33620D01*
Y11010D01*
X33720Y11060D01*
X33770D01*
X33820Y11010D01*
Y10910D01*
X33770Y10860D01*
X33670D01*
X33620Y10910D01*
X33920Y11160D02*
Y10960D01*
X34020Y10860D01*
X34120Y10960D01*
Y11160D01*
X32910Y7660D02*
Y7452D01*
X32952Y7410D01*
X33035D01*
X33077Y7452D01*
Y7660D01*
X33327Y7410D02*
X33160D01*
X33327Y7577D01*
Y7618D01*
X33285Y7660D01*
X33202D01*
X33160Y7618D01*
X10988Y7663D02*
X11030Y7705D01*
Y7788D01*
X10988Y7830D01*
X10822D01*
X10780Y7788D01*
Y7705D01*
X10822Y7663D01*
X10780Y7455D02*
X11030D01*
X10905Y7580D01*
Y7413D01*
X10780Y7164D02*
Y7330D01*
X10947Y7164D01*
X10988D01*
X11030Y7205D01*
Y7289D01*
X10988Y7330D01*
X35620Y7380D02*
Y7630D01*
X35745D01*
X35787Y7588D01*
Y7505D01*
X35745Y7463D01*
X35620D01*
X35703D02*
X35787Y7380D01*
X35870Y7588D02*
X35912Y7630D01*
X35995D01*
X36037Y7588D01*
Y7547D01*
X35995Y7505D01*
X36037Y7463D01*
Y7422D01*
X35995Y7380D01*
X35912D01*
X35870Y7422D01*
Y7463D01*
X35912Y7505D01*
X35870Y7547D01*
Y7588D01*
X35912Y7505D02*
X35995D01*
X13410Y7810D02*
X13660D01*
Y7685D01*
X13618Y7643D01*
X13535D01*
X13493Y7685D01*
Y7810D01*
Y7727D02*
X13410Y7643D01*
Y7393D02*
Y7560D01*
X13577Y7393D01*
X13618D01*
X13660Y7435D01*
Y7518D01*
X13618Y7560D01*
Y7310D02*
X13660Y7269D01*
Y7185D01*
X13618Y7144D01*
X13452D01*
X13410Y7185D01*
Y7269D01*
X13452Y7310D01*
X13618D01*
X13425Y10225D02*
X13675D01*
Y10100D01*
X13633Y10058D01*
X13550D01*
X13508Y10100D01*
Y10225D01*
Y10142D02*
X13425Y10058D01*
Y9808D02*
Y9975D01*
X13592Y9808D01*
X13633D01*
X13675Y9850D01*
Y9933D01*
X13633Y9975D01*
Y9725D02*
X13675Y9684D01*
Y9600D01*
X13633Y9559D01*
X13592D01*
X13550Y9600D01*
Y9642D01*
Y9600D01*
X13508Y9559D01*
X13467D01*
X13425Y9600D01*
Y9684D01*
X13467Y9725D01*
X13460Y11160D02*
X13710D01*
Y11035D01*
X13668Y10993D01*
X13585D01*
X13543Y11035D01*
Y11160D01*
Y11077D02*
X13460Y10993D01*
X13668Y10910D02*
X13710Y10868D01*
Y10785D01*
X13668Y10743D01*
X13627D01*
X13585Y10785D01*
Y10827D01*
Y10785D01*
X13543Y10743D01*
X13502D01*
X13460Y10785D01*
Y10868D01*
X13502Y10910D01*
X13668Y10660D02*
X13710Y10619D01*
Y10535D01*
X13668Y10494D01*
X13627D01*
X13585Y10535D01*
Y10577D01*
Y10535D01*
X13543Y10494D01*
X13502D01*
X13460Y10535D01*
Y10619D01*
X13502Y10660D01*
X13430Y6160D02*
Y6410D01*
X13555D01*
X13597Y6368D01*
Y6285D01*
X13555Y6243D01*
X13430D01*
X13513D02*
X13597Y6160D01*
X13680D02*
X13763D01*
X13722D01*
Y6410D01*
X13680Y6368D01*
X13888Y6202D02*
X13930Y6160D01*
X14013D01*
X14055Y6202D01*
Y6368D01*
X14013Y6410D01*
X13930D01*
X13888Y6368D01*
Y6327D01*
X13930Y6285D01*
X14055D01*
X34430Y10260D02*
Y10010D01*
X34597D01*
X34680D02*
X34763D01*
X34722D01*
Y10260D01*
X34680Y10218D01*
X34888D02*
X34930Y10260D01*
X35013D01*
X35055Y10218D01*
Y10052D01*
X35013Y10010D01*
X34930D01*
X34888Y10052D01*
Y10218D01*
X9687Y6528D02*
X9645Y6570D01*
X9562D01*
X9520Y6528D01*
Y6362D01*
X9562Y6320D01*
X9645D01*
X9687Y6362D01*
X9895Y6320D02*
Y6570D01*
X9770Y6445D01*
X9937D01*
X10145Y6320D02*
Y6570D01*
X10020Y6445D01*
X10186D01*
X12077Y8368D02*
X12035Y8410D01*
X11952D01*
X11910Y8368D01*
Y8202D01*
X11952Y8160D01*
X12035D01*
X12077Y8202D01*
X12327Y8160D02*
X12160D01*
X12327Y8327D01*
Y8368D01*
X12285Y8410D01*
X12202D01*
X12160Y8368D01*
X12410D02*
X12451Y8410D01*
X12535D01*
X12576Y8368D01*
Y8327D01*
X12535Y8285D01*
X12493D01*
X12535D01*
X12576Y8243D01*
Y8202D01*
X12535Y8160D01*
X12451D01*
X12410Y8202D01*
X9890Y10450D02*
X9840Y10500D01*
X9740D01*
X9690Y10450D01*
Y10250D01*
X9740Y10200D01*
X9840D01*
X9890Y10250D01*
X10140Y10200D02*
Y10500D01*
X9990Y10350D01*
X10190D01*
X10290Y10200D02*
X10390D01*
X10340D01*
Y10500D01*
X10290Y10450D01*
X10940Y9820D02*
X10990Y9870D01*
Y9970D01*
X10940Y10020D01*
X10740D01*
X10690Y9970D01*
Y9870D01*
X10740Y9820D01*
X10940Y9720D02*
X10990Y9670D01*
Y9570D01*
X10940Y9520D01*
X10890D01*
X10840Y9570D01*
Y9620D01*
Y9570D01*
X10790Y9520D01*
X10740D01*
X10690Y9570D01*
Y9670D01*
X10740Y9720D01*
Y9420D02*
X10690Y9370D01*
Y9270D01*
X10740Y9220D01*
X10940D01*
X10990Y9270D01*
Y9370D01*
X10940Y9420D01*
X10890D01*
X10840Y9370D01*
Y9220D01*
X14850Y10100D02*
X14800Y10150D01*
X14700D01*
X14650Y10100D01*
Y9900D01*
X14700Y9850D01*
X14800D01*
X14850Y9900D01*
X14950Y10100D02*
X15000Y10150D01*
X15100D01*
X15150Y10100D01*
Y10050D01*
X15100Y10000D01*
X15050D01*
X15100D01*
X15150Y9950D01*
Y9900D01*
X15100Y9850D01*
X15000D01*
X14950Y9900D01*
X15400Y9850D02*
Y10150D01*
X15250Y10000D01*
X15450D01*
X14530Y11200D02*
X14480Y11250D01*
X14380D01*
X14330Y11200D01*
Y11000D01*
X14380Y10950D01*
X14480D01*
X14530Y11000D01*
X14630Y11200D02*
X14680Y11250D01*
X14780D01*
X14830Y11200D01*
Y11150D01*
X14780Y11100D01*
X14730D01*
X14780D01*
X14830Y11050D01*
Y11000D01*
X14780Y10950D01*
X14680D01*
X14630Y11000D01*
X14930Y11200D02*
X14980Y11250D01*
X15080D01*
X15130Y11200D01*
Y11150D01*
X15080Y11100D01*
X15130Y11050D01*
Y11000D01*
X15080Y10950D01*
X14980D01*
X14930Y11000D01*
Y11050D01*
X14980Y11100D01*
X14930Y11150D01*
Y11200D01*
X14980Y11100D02*
X15080D01*
X12020Y9240D02*
X11970Y9290D01*
X11870D01*
X11820Y9240D01*
Y9040D01*
X11870Y8990D01*
X11970D01*
X12020Y9040D01*
X12120Y9240D02*
X12170Y9290D01*
X12270D01*
X12320Y9240D01*
Y9190D01*
X12270Y9140D01*
X12220D01*
X12270D01*
X12320Y9090D01*
Y9040D01*
X12270Y8990D01*
X12170D01*
X12120Y9040D01*
X12420Y9290D02*
X12620D01*
Y9240D01*
X12420Y9040D01*
Y8990D01*
X14840Y10580D02*
X14790Y10630D01*
X14690D01*
X14640Y10580D01*
Y10380D01*
X14690Y10330D01*
X14790D01*
X14840Y10380D01*
X15140Y10330D02*
X14940D01*
X15140Y10530D01*
Y10580D01*
X15090Y10630D01*
X14990D01*
X14940Y10580D01*
X15440Y10630D02*
X15240D01*
Y10480D01*
X15340Y10530D01*
X15390D01*
X15440Y10480D01*
Y10380D01*
X15390Y10330D01*
X15290D01*
X15240Y10380D01*
X14730Y6460D02*
X14680Y6510D01*
X14580D01*
X14530Y6460D01*
Y6260D01*
X14580Y6210D01*
X14680D01*
X14730Y6260D01*
X15030Y6210D02*
X14830D01*
X15030Y6410D01*
Y6460D01*
X14980Y6510D01*
X14880D01*
X14830Y6460D01*
X15130D02*
X15180Y6510D01*
X15280D01*
X15330Y6460D01*
Y6260D01*
X15280Y6210D01*
X15180D01*
X15130Y6260D01*
Y6460D01*
X34790Y6820D02*
Y7070D01*
X34915D01*
X34957Y7028D01*
Y6945D01*
X34915Y6903D01*
X34790D01*
X34873D02*
X34957Y6820D01*
X35207Y7070D02*
X35123Y7028D01*
X35040Y6945D01*
Y6862D01*
X35082Y6820D01*
X35165D01*
X35207Y6862D01*
Y6903D01*
X35165Y6945D01*
X35040D01*
X32238Y8963D02*
X32280Y9005D01*
Y9088D01*
X32238Y9130D01*
X32072D01*
X32030Y9088D01*
Y9005D01*
X32072Y8963D01*
X32030Y8880D02*
Y8797D01*
Y8838D01*
X32280D01*
X32238Y8880D01*
X33417Y10688D02*
X33375Y10730D01*
X33292D01*
X33250Y10688D01*
Y10522D01*
X33292Y10480D01*
X33375D01*
X33417Y10522D01*
X33667Y10480D02*
X33500D01*
X33667Y10647D01*
Y10688D01*
X33625Y10730D01*
X33542D01*
X33500Y10688D01*
X33708Y7583D02*
X33750Y7625D01*
Y7708D01*
X33708Y7750D01*
X33542D01*
X33500Y7708D01*
Y7625D01*
X33542Y7583D01*
X33708Y7500D02*
X33750Y7458D01*
Y7375D01*
X33708Y7333D01*
X33667D01*
X33625Y7375D01*
Y7417D01*
Y7375D01*
X33583Y7333D01*
X33542D01*
X33500Y7375D01*
Y7458D01*
X33542Y7500D01*
X33398Y6683D02*
X33440Y6725D01*
Y6808D01*
X33398Y6850D01*
X33232D01*
X33190Y6808D01*
Y6725D01*
X33232Y6683D01*
X33190Y6475D02*
X33440D01*
X33315Y6600D01*
Y6433D01*
X35867Y9198D02*
X35825Y9240D01*
X35742D01*
X35700Y9198D01*
Y9032D01*
X35742Y8990D01*
X35825D01*
X35867Y9032D01*
X35950Y9198D02*
X35992Y9240D01*
X36075D01*
X36117Y9198D01*
Y9157D01*
X36075Y9115D01*
X36117Y9073D01*
Y9032D01*
X36075Y8990D01*
X35992D01*
X35950Y9032D01*
Y9073D01*
X35992Y9115D01*
X35950Y9157D01*
Y9198D01*
X35992Y9115D02*
X36075D01*
X30447Y10408D02*
X30405Y10450D01*
X30322D01*
X30280Y10408D01*
Y10242D01*
X30322Y10200D01*
X30405D01*
X30447Y10242D01*
X30530Y10200D02*
X30613D01*
X30572D01*
Y10450D01*
X30530Y10408D01*
X30863Y10200D02*
Y10450D01*
X30738Y10325D01*
X30905D01*
X30387Y8548D02*
X30345Y8590D01*
X30262D01*
X30220Y8548D01*
Y8382D01*
X30262Y8340D01*
X30345D01*
X30387Y8382D01*
X30637Y8340D02*
X30470D01*
X30637Y8507D01*
Y8548D01*
X30595Y8590D01*
X30512D01*
X30470Y8548D01*
X30886Y8590D02*
X30803Y8548D01*
X30720Y8465D01*
Y8382D01*
X30761Y8340D01*
X30845D01*
X30886Y8382D01*
Y8423D01*
X30845Y8465D01*
X30720D01*
X29357Y7078D02*
X29315Y7120D01*
X29232D01*
X29190Y7078D01*
Y6912D01*
X29232Y6870D01*
X29315D01*
X29357Y6912D01*
X29607Y6870D02*
X29440D01*
X29607Y7037D01*
Y7078D01*
X29565Y7120D01*
X29482D01*
X29440Y7078D01*
X29690Y7120D02*
X29856D01*
Y7078D01*
X29690Y6912D01*
Y6870D01*
X30327Y7848D02*
X30285Y7890D01*
X30202D01*
X30160Y7848D01*
Y7682D01*
X30202Y7640D01*
X30285D01*
X30327Y7682D01*
X30577Y7640D02*
X30410D01*
X30577Y7807D01*
Y7848D01*
X30535Y7890D01*
X30452D01*
X30410Y7848D01*
X30660Y7682D02*
X30701Y7640D01*
X30785D01*
X30826Y7682D01*
Y7848D01*
X30785Y7890D01*
X30701D01*
X30660Y7848D01*
Y7807D01*
X30701Y7765D01*
X30826D01*
X37700Y11020D02*
Y10720D01*
X37850D01*
X37900Y10770D01*
Y10970D01*
X37850Y11020D01*
X37700D01*
X38000Y10720D02*
X38100D01*
X38050D01*
Y11020D01*
X38000Y10970D01*
X31530Y8070D02*
Y7870D01*
X31630D01*
X31663Y7903D01*
Y8037D01*
X31630Y8070D01*
X31530D01*
X31863Y7870D02*
X31730D01*
X31863Y8003D01*
Y8037D01*
X31830Y8070D01*
X31763D01*
X31730Y8037D01*
X32070Y7310D02*
X31870D01*
Y7210D01*
X31903Y7177D01*
X32037D01*
X32070Y7210D01*
Y7310D01*
X32037Y7110D02*
X32070Y7077D01*
Y7010D01*
X32037Y6977D01*
X32003D01*
X31970Y7010D01*
Y7043D01*
Y7010D01*
X31937Y6977D01*
X31903D01*
X31870Y7010D01*
Y7077D01*
X31903Y7110D01*
X34180Y9410D02*
Y9660D01*
X34305D01*
X34347Y9618D01*
Y9535D01*
X34305Y9493D01*
X34180D01*
X34263D02*
X34347Y9410D01*
X34430Y9452D02*
X34472Y9410D01*
X34555D01*
X34597Y9452D01*
Y9618D01*
X34555Y9660D01*
X34472D01*
X34430Y9618D01*
Y9577D01*
X34472Y9535D01*
X34597D01*
X34760Y7210D02*
Y7460D01*
X34885D01*
X34927Y7418D01*
Y7335D01*
X34885Y7293D01*
X34760D01*
X34843D02*
X34927Y7210D01*
X35010D02*
X35093D01*
X35052D01*
Y7460D01*
X35010Y7418D01*
X35385Y7460D02*
X35218D01*
Y7335D01*
X35301Y7377D01*
X35343D01*
X35385Y7335D01*
Y7252D01*
X35343Y7210D01*
X35260D01*
X35218Y7252D01*
X36590Y6150D02*
Y6450D01*
X36740D01*
X36790Y6400D01*
Y6300D01*
X36740Y6250D01*
X36590D01*
X36690D02*
X36790Y6150D01*
X36890Y6450D02*
X37090D01*
Y6400D01*
X36890Y6200D01*
Y6150D01*
X22490Y8740D02*
X22740D01*
Y8615D01*
X22698Y8573D01*
X22615D01*
X22573Y8615D01*
Y8740D01*
Y8657D02*
X22490Y8573D01*
Y8490D02*
Y8407D01*
Y8448D01*
X22740D01*
X22698Y8490D01*
X22490Y8115D02*
Y8282D01*
X22657Y8115D01*
X22698D01*
X22740Y8157D01*
Y8240D01*
X22698Y8282D01*
X20730Y7200D02*
Y7450D01*
X20855D01*
X20897Y7408D01*
Y7325D01*
X20855Y7283D01*
X20730D01*
X20813D02*
X20897Y7200D01*
X20980D02*
X21063D01*
X21022D01*
Y7450D01*
X20980Y7408D01*
X21188D02*
X21230Y7450D01*
X21313D01*
X21355Y7408D01*
Y7367D01*
X21313Y7325D01*
X21271D01*
X21313D01*
X21355Y7283D01*
Y7242D01*
X21313Y7200D01*
X21230D01*
X21188Y7242D01*
X28890Y6410D02*
Y6610D01*
X28990D01*
X29023Y6577D01*
Y6510D01*
X28990Y6477D01*
X28890D01*
X28957D02*
X29023Y6410D01*
X29223D02*
X29090D01*
X29223Y6543D01*
Y6577D01*
X29190Y6610D01*
X29123D01*
X29090Y6577D01*
X29290Y6443D02*
X29323Y6410D01*
X29390D01*
X29423Y6443D01*
Y6577D01*
X29390Y6610D01*
X29323D01*
X29290Y6577D01*
Y6543D01*
X29323Y6510D01*
X29423D01*
X15090Y9610D02*
X15040Y9660D01*
X14940D01*
X14890Y9610D01*
Y9410D01*
X14940Y9360D01*
X15040D01*
X15090Y9410D01*
X15390Y9660D02*
X15290Y9610D01*
X15190Y9510D01*
Y9410D01*
X15240Y9360D01*
X15340D01*
X15390Y9410D01*
Y9460D01*
X15340Y9510D01*
X15190D01*
X33470Y995D02*
X33637D01*
X33553Y1078D02*
Y912D01*
X33720Y1078D02*
X33762Y1120D01*
X33845D01*
X33887Y1078D01*
Y1037D01*
X33845Y995D01*
X33803D01*
X33845D01*
X33887Y953D01*
Y912D01*
X33845Y870D01*
X33762D01*
X33720Y912D01*
X33970Y870D02*
Y912D01*
X34011D01*
Y870D01*
X33970D01*
X34178Y1078D02*
X34220Y1120D01*
X34303D01*
X34345Y1078D01*
Y1037D01*
X34303Y995D01*
X34261D01*
X34303D01*
X34345Y953D01*
Y912D01*
X34303Y870D01*
X34220D01*
X34178Y912D01*
X34428Y1120D02*
Y953D01*
X34511Y870D01*
X34595Y953D01*
Y1120D01*
X33320Y4960D02*
X33520D01*
X33420Y5060D02*
Y4860D01*
X33820Y5110D02*
X33620D01*
Y4960D01*
X33720Y5010D01*
X33770D01*
X33820Y4960D01*
Y4860D01*
X33770Y4810D01*
X33670D01*
X33620Y4860D01*
X33920Y5110D02*
Y4910D01*
X34020Y4810D01*
X34120Y4910D01*
Y5110D01*
X32910Y1610D02*
Y1402D01*
X32952Y1360D01*
X33035D01*
X33077Y1402D01*
Y1610D01*
X33327Y1360D02*
X33160D01*
X33327Y1527D01*
Y1568D01*
X33285Y1610D01*
X33202D01*
X33160Y1568D01*
X10897Y1268D02*
X10855Y1310D01*
X10772D01*
X10730Y1268D01*
Y1102D01*
X10772Y1060D01*
X10855D01*
X10897Y1102D01*
X11105Y1060D02*
Y1310D01*
X10980Y1185D01*
X11147D01*
X11396Y1060D02*
X11230D01*
X11396Y1227D01*
Y1268D01*
X11355Y1310D01*
X11271D01*
X11230Y1268D01*
X35620Y1330D02*
Y1580D01*
X35745D01*
X35787Y1538D01*
Y1455D01*
X35745Y1413D01*
X35620D01*
X35703D02*
X35787Y1330D01*
X35870Y1538D02*
X35912Y1580D01*
X35995D01*
X36037Y1538D01*
Y1497D01*
X35995Y1455D01*
X36037Y1413D01*
Y1372D01*
X35995Y1330D01*
X35912D01*
X35870Y1372D01*
Y1413D01*
X35912Y1455D01*
X35870Y1497D01*
Y1538D01*
X35912Y1455D02*
X35995D01*
X13410Y1760D02*
X13660D01*
Y1635D01*
X13618Y1593D01*
X13535D01*
X13493Y1635D01*
Y1760D01*
Y1677D02*
X13410Y1593D01*
Y1343D02*
Y1510D01*
X13577Y1343D01*
X13618D01*
X13660Y1385D01*
Y1468D01*
X13618Y1510D01*
Y1260D02*
X13660Y1219D01*
Y1135D01*
X13618Y1094D01*
X13452D01*
X13410Y1135D01*
Y1219D01*
X13452Y1260D01*
X13618D01*
X13425Y4175D02*
X13675D01*
Y4050D01*
X13633Y4008D01*
X13550D01*
X13508Y4050D01*
Y4175D01*
Y4092D02*
X13425Y4008D01*
Y3758D02*
Y3925D01*
X13592Y3758D01*
X13633D01*
X13675Y3800D01*
Y3883D01*
X13633Y3925D01*
Y3675D02*
X13675Y3634D01*
Y3550D01*
X13633Y3509D01*
X13592D01*
X13550Y3550D01*
Y3592D01*
Y3550D01*
X13508Y3509D01*
X13467D01*
X13425Y3550D01*
Y3634D01*
X13467Y3675D01*
X13460Y5110D02*
X13710D01*
Y4985D01*
X13668Y4943D01*
X13585D01*
X13543Y4985D01*
Y5110D01*
Y5027D02*
X13460Y4943D01*
X13668Y4860D02*
X13710Y4818D01*
Y4735D01*
X13668Y4693D01*
X13627D01*
X13585Y4735D01*
Y4777D01*
Y4735D01*
X13543Y4693D01*
X13502D01*
X13460Y4735D01*
Y4818D01*
X13502Y4860D01*
X13668Y4610D02*
X13710Y4569D01*
Y4485D01*
X13668Y4444D01*
X13627D01*
X13585Y4485D01*
Y4527D01*
Y4485D01*
X13543Y4444D01*
X13502D01*
X13460Y4485D01*
Y4569D01*
X13502Y4610D01*
X13430Y110D02*
Y360D01*
X13555D01*
X13597Y318D01*
Y235D01*
X13555Y193D01*
X13430D01*
X13513D02*
X13597Y110D01*
X13680D02*
X13763D01*
X13722D01*
Y360D01*
X13680Y318D01*
X13888Y152D02*
X13930Y110D01*
X14013D01*
X14055Y152D01*
Y318D01*
X14013Y360D01*
X13930D01*
X13888Y318D01*
Y277D01*
X13930Y235D01*
X14055D01*
X34430Y4210D02*
Y3960D01*
X34597D01*
X34680D02*
X34763D01*
X34722D01*
Y4210D01*
X34680Y4168D01*
X34888D02*
X34930Y4210D01*
X35013D01*
X35055Y4168D01*
Y4002D01*
X35013Y3960D01*
X34930D01*
X34888Y4002D01*
Y4168D01*
X11157Y2288D02*
X11115Y2330D01*
X11032D01*
X10990Y2288D01*
Y2122D01*
X11032Y2080D01*
X11115D01*
X11157Y2122D01*
X11365Y2080D02*
Y2330D01*
X11240Y2205D01*
X11407D01*
X11615Y2080D02*
Y2330D01*
X11490Y2205D01*
X11656D01*
X10890Y4300D02*
X10940Y4350D01*
Y4450D01*
X10890Y4500D01*
X10690D01*
X10640Y4450D01*
Y4350D01*
X10690Y4300D01*
X10640Y4050D02*
X10940D01*
X10790Y4200D01*
Y4000D01*
X10640Y3900D02*
Y3800D01*
Y3850D01*
X10940D01*
X10890Y3900D01*
X10987Y3068D02*
X10945Y3110D01*
X10862D01*
X10820Y3068D01*
Y2902D01*
X10862Y2860D01*
X10945D01*
X10987Y2902D01*
X11070Y3068D02*
X11112Y3110D01*
X11195D01*
X11237Y3068D01*
Y3027D01*
X11195Y2985D01*
X11153D01*
X11195D01*
X11237Y2943D01*
Y2902D01*
X11195Y2860D01*
X11112D01*
X11070Y2902D01*
X11320D02*
X11361Y2860D01*
X11445D01*
X11486Y2902D01*
Y3068D01*
X11445Y3110D01*
X11361D01*
X11320Y3068D01*
Y3027D01*
X11361Y2985D01*
X11486D01*
X14850Y4050D02*
X14800Y4100D01*
X14700D01*
X14650Y4050D01*
Y3850D01*
X14700Y3800D01*
X14800D01*
X14850Y3850D01*
X14950Y4050D02*
X15000Y4100D01*
X15100D01*
X15150Y4050D01*
Y4000D01*
X15100Y3950D01*
X15050D01*
X15100D01*
X15150Y3900D01*
Y3850D01*
X15100Y3800D01*
X15000D01*
X14950Y3850D01*
X15400Y3800D02*
Y4100D01*
X15250Y3950D01*
X15450D01*
X14567Y5108D02*
X14525Y5150D01*
X14442D01*
X14400Y5108D01*
Y4942D01*
X14442Y4900D01*
X14525D01*
X14567Y4942D01*
X14650Y5108D02*
X14692Y5150D01*
X14775D01*
X14817Y5108D01*
Y5067D01*
X14775Y5025D01*
X14733D01*
X14775D01*
X14817Y4983D01*
Y4942D01*
X14775Y4900D01*
X14692D01*
X14650Y4942D01*
X14900Y5108D02*
X14941Y5150D01*
X15025D01*
X15066Y5108D01*
Y5067D01*
X15025Y5025D01*
X15066Y4983D01*
Y4942D01*
X15025Y4900D01*
X14941D01*
X14900Y4942D01*
Y4983D01*
X14941Y5025D01*
X14900Y5067D01*
Y5108D01*
X14941Y5025D02*
X15025D01*
X14840Y4530D02*
X14790Y4580D01*
X14690D01*
X14640Y4530D01*
Y4330D01*
X14690Y4280D01*
X14790D01*
X14840Y4330D01*
X15140Y4280D02*
X14940D01*
X15140Y4480D01*
Y4530D01*
X15090Y4580D01*
X14990D01*
X14940Y4530D01*
X15440Y4580D02*
X15240D01*
Y4430D01*
X15340Y4480D01*
X15390D01*
X15440Y4430D01*
Y4330D01*
X15390Y4280D01*
X15290D01*
X15240Y4330D01*
X14637Y378D02*
X14595Y420D01*
X14512D01*
X14470Y378D01*
Y212D01*
X14512Y170D01*
X14595D01*
X14637Y212D01*
X14887Y170D02*
X14720D01*
X14887Y337D01*
Y378D01*
X14845Y420D01*
X14762D01*
X14720Y378D01*
X14970D02*
X15011Y420D01*
X15095D01*
X15136Y378D01*
Y212D01*
X15095Y170D01*
X15011D01*
X14970Y212D01*
Y378D01*
X34790Y780D02*
Y1030D01*
X34915D01*
X34957Y988D01*
Y905D01*
X34915Y863D01*
X34790D01*
X34873D02*
X34957Y780D01*
X35207Y1030D02*
X35123Y988D01*
X35040Y905D01*
Y822D01*
X35082Y780D01*
X35165D01*
X35207Y822D01*
Y863D01*
X35165Y905D01*
X35040D01*
X32238Y2913D02*
X32280Y2955D01*
Y3038D01*
X32238Y3080D01*
X32072D01*
X32030Y3038D01*
Y2955D01*
X32072Y2913D01*
X32030Y2830D02*
Y2747D01*
Y2788D01*
X32280D01*
X32238Y2830D01*
X33417Y4638D02*
X33375Y4680D01*
X33292D01*
X33250Y4638D01*
Y4472D01*
X33292Y4430D01*
X33375D01*
X33417Y4472D01*
X33667Y4430D02*
X33500D01*
X33667Y4597D01*
Y4638D01*
X33625Y4680D01*
X33542D01*
X33500Y4638D01*
X33708Y1533D02*
X33750Y1575D01*
Y1658D01*
X33708Y1700D01*
X33542D01*
X33500Y1658D01*
Y1575D01*
X33542Y1533D01*
X33708Y1450D02*
X33750Y1408D01*
Y1325D01*
X33708Y1283D01*
X33667D01*
X33625Y1325D01*
Y1367D01*
Y1325D01*
X33583Y1283D01*
X33542D01*
X33500Y1325D01*
Y1408D01*
X33542Y1450D01*
X33178Y1073D02*
X33220Y1115D01*
Y1198D01*
X33178Y1240D01*
X33012D01*
X32970Y1198D01*
Y1115D01*
X33012Y1073D01*
X32970Y865D02*
X33220D01*
X33095Y990D01*
Y823D01*
X35867Y3148D02*
X35825Y3190D01*
X35742D01*
X35700Y3148D01*
Y2982D01*
X35742Y2940D01*
X35825D01*
X35867Y2982D01*
X35950Y3148D02*
X35992Y3190D01*
X36075D01*
X36117Y3148D01*
Y3107D01*
X36075Y3065D01*
X36117Y3023D01*
Y2982D01*
X36075Y2940D01*
X35992D01*
X35950Y2982D01*
Y3023D01*
X35992Y3065D01*
X35950Y3107D01*
Y3148D01*
X35992Y3065D02*
X36075D01*
X30447Y4358D02*
X30405Y4400D01*
X30322D01*
X30280Y4358D01*
Y4192D01*
X30322Y4150D01*
X30405D01*
X30447Y4192D01*
X30530Y4150D02*
X30613D01*
X30572D01*
Y4400D01*
X30530Y4358D01*
X30863Y4150D02*
Y4400D01*
X30738Y4275D01*
X30905D01*
X30387Y2498D02*
X30345Y2540D01*
X30262D01*
X30220Y2498D01*
Y2332D01*
X30262Y2290D01*
X30345D01*
X30387Y2332D01*
X30637Y2290D02*
X30470D01*
X30637Y2457D01*
Y2498D01*
X30595Y2540D01*
X30512D01*
X30470Y2498D01*
X30886Y2540D02*
X30803Y2498D01*
X30720Y2415D01*
Y2332D01*
X30761Y2290D01*
X30845D01*
X30886Y2332D01*
Y2373D01*
X30845Y2415D01*
X30720D01*
X29357Y1028D02*
X29315Y1070D01*
X29232D01*
X29190Y1028D01*
Y862D01*
X29232Y820D01*
X29315D01*
X29357Y862D01*
X29607Y820D02*
X29440D01*
X29607Y987D01*
Y1028D01*
X29565Y1070D01*
X29482D01*
X29440Y1028D01*
X29690Y1070D02*
X29856D01*
Y1028D01*
X29690Y862D01*
Y820D01*
X30327Y1798D02*
X30285Y1840D01*
X30202D01*
X30160Y1798D01*
Y1632D01*
X30202Y1590D01*
X30285D01*
X30327Y1632D01*
X30577Y1590D02*
X30410D01*
X30577Y1757D01*
Y1798D01*
X30535Y1840D01*
X30452D01*
X30410Y1798D01*
X30660Y1632D02*
X30701Y1590D01*
X30785D01*
X30826Y1632D01*
Y1798D01*
X30785Y1840D01*
X30701D01*
X30660Y1798D01*
Y1757D01*
X30701Y1715D01*
X30826D01*
X37700Y4970D02*
Y4670D01*
X37850D01*
X37900Y4720D01*
Y4920D01*
X37850Y4970D01*
X37700D01*
X38000Y4670D02*
X38100D01*
X38050D01*
Y4970D01*
X38000Y4920D01*
X31530Y2020D02*
Y1820D01*
X31630D01*
X31663Y1853D01*
Y1987D01*
X31630Y2020D01*
X31530D01*
X31863Y1820D02*
X31730D01*
X31863Y1953D01*
Y1987D01*
X31830Y2020D01*
X31763D01*
X31730Y1987D01*
X32070Y1260D02*
X31870D01*
Y1160D01*
X31903Y1127D01*
X32037D01*
X32070Y1160D01*
Y1260D01*
X32037Y1060D02*
X32070Y1027D01*
Y960D01*
X32037Y927D01*
X32003D01*
X31970Y960D01*
Y993D01*
Y960D01*
X31937Y927D01*
X31903D01*
X31870Y960D01*
Y1027D01*
X31903Y1060D01*
X34180Y3360D02*
Y3610D01*
X34305D01*
X34347Y3568D01*
Y3485D01*
X34305Y3443D01*
X34180D01*
X34263D02*
X34347Y3360D01*
X34430Y3402D02*
X34472Y3360D01*
X34555D01*
X34597Y3402D01*
Y3568D01*
X34555Y3610D01*
X34472D01*
X34430Y3568D01*
Y3527D01*
X34472Y3485D01*
X34597D01*
X34780Y1170D02*
Y1420D01*
X34905D01*
X34947Y1378D01*
Y1295D01*
X34905Y1253D01*
X34780D01*
X34863D02*
X34947Y1170D01*
X35030D02*
X35113D01*
X35072D01*
Y1420D01*
X35030Y1378D01*
X35405Y1420D02*
X35238D01*
Y1295D01*
X35321Y1337D01*
X35363D01*
X35405Y1295D01*
Y1212D01*
X35363Y1170D01*
X35280D01*
X35238Y1212D01*
X36590Y100D02*
Y400D01*
X36740D01*
X36790Y350D01*
Y250D01*
X36740Y200D01*
X36590D01*
X36690D02*
X36790Y100D01*
X36890Y400D02*
X37090D01*
Y350D01*
X36890Y150D01*
Y100D01*
X22490Y2690D02*
X22740D01*
Y2565D01*
X22698Y2523D01*
X22615D01*
X22573Y2565D01*
Y2690D01*
Y2607D02*
X22490Y2523D01*
Y2440D02*
Y2357D01*
Y2398D01*
X22740D01*
X22698Y2440D01*
X22490Y2065D02*
Y2232D01*
X22657Y2065D01*
X22698D01*
X22740Y2107D01*
Y2190D01*
X22698Y2232D01*
X20730Y1150D02*
Y1400D01*
X20855D01*
X20897Y1358D01*
Y1275D01*
X20855Y1233D01*
X20730D01*
X20813D02*
X20897Y1150D01*
X20980D02*
X21063D01*
X21022D01*
Y1400D01*
X20980Y1358D01*
X21188D02*
X21230Y1400D01*
X21313D01*
X21355Y1358D01*
Y1317D01*
X21313Y1275D01*
X21271D01*
X21313D01*
X21355Y1233D01*
Y1192D01*
X21313Y1150D01*
X21230D01*
X21188Y1192D01*
X28890Y360D02*
Y560D01*
X28990D01*
X29023Y527D01*
Y460D01*
X28990Y427D01*
X28890D01*
X28957D02*
X29023Y360D01*
X29223D02*
X29090D01*
X29223Y493D01*
Y527D01*
X29190Y560D01*
X29123D01*
X29090Y527D01*
X29290Y393D02*
X29323Y360D01*
X29390D01*
X29423Y393D01*
Y527D01*
X29390Y560D01*
X29323D01*
X29290Y527D01*
Y493D01*
X29323Y460D01*
X29423D01*
X15090Y3560D02*
X15040Y3610D01*
X14940D01*
X14890Y3560D01*
Y3360D01*
X14940Y3310D01*
X15040D01*
X15090Y3360D01*
X15390Y3610D02*
X15290Y3560D01*
X15190Y3460D01*
Y3360D01*
X15240Y3310D01*
X15340D01*
X15390Y3360D01*
Y3410D01*
X15340Y3460D01*
X15190D01*
D63*
X31590Y6525D02*
D03*
Y475D02*
D03*
D64*
X35410Y10840D02*
D03*
Y4790D02*
D03*
M02*
